<svg width="176" height="123" viewBox="0 0 176 123" fill="none" xmlns="http://www.w3.org/2000/svg">
<rect x="0.6875" y="0.744141" width="175" height="122" rx="10.0575" fill="#22173D"/>
<path fill-rule="evenodd" clip-rule="evenodd" d="M64.3529 38.4647C63.0932 38.7704 59.608 40.1713 56.608 41.5772C53.6081 42.9831 47.9758 45.3981 44.092 46.9439C31.6898 51.8791 27.6474 54.5648 25.2497 59.4618C23.7135 62.5989 22.6985 67.1501 22.6876 70.9469C22.6803 73.6703 23.3076 75.0895 23.8707 73.622C24.2716 72.5779 24.9049 72.7514 25.5062 74.0712C25.9386 75.0198 26.1062 75.1059 26.4224 74.5409C26.7659 73.9273 26.9873 73.9346 28.3959 74.6065C29.9208 75.3336 30.0666 75.3223 32.1399 74.3186C35.4843 72.699 39.4742 69.6676 42.7717 66.2412C46.1457 62.7346 47.266 60.8112 48.4395 56.5092C49.4313 52.8737 50.6564 50.332 51.5894 49.9739C52.4582 49.6404 52.4974 49.3953 51.1621 52.6368C50.2742 54.7921 50.0336 56.1839 50.0254 59.2176C50.0154 62.7643 49.9188 63.1652 48.7912 64.3419L47.568 65.6189L48.5635 67.3902C49.1297 68.3975 49.5589 69.9537 49.5589 70.9984C49.5589 76.1414 52.0208 75.1323 53.1256 69.5364C54.2782 63.6996 57.208 59.6381 61.829 57.4709C64.0586 56.4254 64.9433 56.2814 69.1487 56.2814C72.6006 56.2814 74.5942 56.5124 76.3104 57.1105C79.4339 58.1998 82.9751 61.3971 83.9842 64.039C84.4119 65.1597 85.0443 66.0763 85.3896 66.0763C85.7345 66.0763 86.4652 66.9989 87.0128 68.1264C87.5609 69.254 88.1914 70.1765 88.4142 70.1765C88.637 70.1765 88.2944 70.8007 87.652 71.5637C86.1336 73.3687 85.386 76.2298 85.7117 78.9906C86.2447 83.5053 88.7996 85.821 93.2388 85.8138C97.3271 85.8069 97.8501 85.5008 97.8501 83.1135C97.8501 81.2425 97.779 81.1163 96.969 81.55C96.4843 81.8092 95.1836 82.0215 94.0784 82.0215C91.3422 82.0215 90.3882 80.9309 90.3568 77.7669C90.3231 74.3815 91.3636 72.91 93.7905 72.91C94.8032 72.91 96.0005 73.1072 96.451 73.3482C97.139 73.7163 97.3804 73.5054 97.9604 72.0293C98.6355 70.3105 98.6264 70.2612 97.5453 69.7688C96.1125 69.1159 91.2297 69.1191 90.0064 69.7738C89.1636 70.2248 89.1026 70.1861 89.4666 69.4321C89.6926 68.9647 89.8734 66.9419 89.8684 64.9374C89.8602 61.6704 89.6994 60.9957 88.314 58.4263C84.3924 51.1516 74.238 45.6728 64.4062 45.5275L61.1761 45.4797L62.9984 44.8792C66.7446 43.6446 73.2275 44.322 80.2625 46.6837C84.4921 48.1033 87.5149 49.5858 91.472 52.1807C94.1855 53.9602 94.8132 54.1666 98.9768 54.6486C103.877 55.2163 108.026 56.1907 114.471 58.2882C120.09 60.1169 120.576 59.6969 117.118 56.0003C114.566 53.2714 107.978 48.7612 104.859 47.6081C101.974 46.5416 101.495 46.1462 101.495 44.8364C101.495 43.5134 101.162 43.4792 99.8934 44.6705L98.9171 45.5881L95.3836 43.9553C90.5518 41.723 83.0712 39.3257 78.3878 38.5093C73.7847 37.7066 67.5542 37.6865 64.3529 38.4647ZM65.7319 61.2946C61.1871 62.9032 58.3689 68.2553 58.7707 74.5159C59.1538 80.4858 61.8103 83.9204 67.2722 85.5085C70.3105 86.3919 76.6936 86.1563 79.2853 85.0652L80.9937 84.3459V81.3614C80.9937 78.3181 80.7591 77.9828 79.2111 78.8115C78.7646 79.0503 77.1642 79.4448 75.6548 79.6876C71.2152 80.4029 68.3688 79.3395 67.5711 76.6685L67.2649 75.6434H75.1081H82.9514L82.6803 71.8006C82.2726 66.0262 80.2206 62.788 76.0325 61.3105C73.566 60.4404 68.1692 60.4317 65.7319 61.2946ZM68.6932 67.443C68.192 67.9442 67.782 68.7642 67.782 69.2654C67.782 70.0954 68.0859 70.1765 71.1988 70.1765C74.1692 70.1765 74.6157 70.0708 74.6157 69.3669C74.6157 68.9214 74.2963 68.1014 73.9063 67.5446C72.9605 66.1939 70.0002 66.136 68.6932 67.443ZM142.041 77.0102V85.6661H144.319H146.597V81.6366C146.597 78.2903 146.74 77.4771 147.442 76.8421C149.343 75.1218 150.242 76.9487 150.242 82.5341V85.6661H152.292H154.342V80.4065C154.342 75.4293 154.282 75.0863 153.223 74.0284C152.008 72.8125 149.144 72.4904 147.478 73.3815C146.652 73.8234 146.597 73.6808 146.597 71.1036V68.3542H144.319H142.041V77.0102ZM102.856 73.935C99.9932 75.8822 99.4287 81.0347 101.773 83.8206C104.393 86.934 110.409 86.3974 112.224 82.8876C113.114 81.1669 113.068 77.2339 112.139 75.6617C110.456 72.8125 105.784 71.9437 102.856 73.935ZM117.098 73.3797C115.911 73.8567 115.908 73.8708 116.588 75.3642C117.054 76.3865 117.344 76.4867 119.615 76.4106C122.9 76.3008 123.319 77.2334 120.173 77.6507C117.143 78.0525 115.831 78.6853 115.212 80.043C114.423 81.7746 114.61 83.2256 115.8 84.6092C116.685 85.6374 117.25 85.8716 118.752 85.832C119.774 85.8056 121.131 85.4425 121.767 85.0256C122.794 84.3523 122.953 84.3459 123.192 84.9668C123.369 85.4297 124.059 85.6661 125.234 85.6661H127.007V81.3236C127.007 76.3036 126.295 74.0476 124.494 73.3628C123.034 72.8079 118.496 72.8184 117.098 73.3797ZM131.907 73.6835C130.234 74.7555 129.284 76.8999 129.292 79.5846C129.304 83.7145 131.322 85.7964 135.312 85.7964C138.656 85.7964 139.763 85.1368 139.763 83.1445C139.763 81.3992 139.638 81.3395 137.518 82.0785C136.442 82.4534 135.752 82.4562 134.944 82.088C134.017 81.6657 133.841 81.2612 133.841 79.5582C133.841 78.3227 134.12 77.2512 134.556 76.8147C135.395 75.9769 135.45 75.971 137.352 76.5163C138.741 76.915 138.83 76.8621 139.33 75.3469C139.618 74.474 139.72 73.6261 139.556 73.4626C139.393 73.2986 137.886 73.1013 136.208 73.0234C133.895 72.9164 132.855 73.0758 131.907 73.6835ZM105.128 77.2676C104.172 79.7824 104.972 82.4771 106.674 82.4771C107.28 82.4771 107.9 82.1527 108.052 81.7564C108.528 80.5158 108.353 77.2175 107.782 76.6457C106.864 75.7277 105.601 76.0234 105.128 77.2676ZM119.566 80.5031C118.743 81.3263 119.599 82.9327 120.861 82.9327C121.296 82.9327 122.451 81.4193 122.451 80.8502C122.451 80.1833 120.161 79.9081 119.566 80.5031Z" fill="white"/>
</svg>
