<svg width="399" height="213" viewBox="0 0 399 213" fill="none" xmlns="http://www.w3.org/2000/svg">
<mask id="path-1-outside-1_219_1103" maskUnits="userSpaceOnUse" x="-6.03662" y="-6.19482" width="410" height="226" fill="black">
<rect fill="white" x="-6.03662" y="-6.19482" width="410" height="226"/>
<path d="M14.9254 212.805C7.28872 212.805 0.9248 206.441 0.9248 198.805V106.74C0.9248 48.1918 48.4421 0.6745 106.99 0.6745C137.537 0.6745 166.811 13.8266 186.751 36.7367C191.842 42.6764 191.418 51.1616 185.478 56.2527C179.963 61.3439 171.054 60.9196 165.962 54.9799C151.113 38.0095 129.476 28.2515 106.99 28.2515C63.7155 28.2515 28.5018 63.4652 28.5018 106.74V198.805C28.5018 206.441 22.5621 212.805 14.9254 212.805ZM389.078 141.105C396.714 144.499 398.411 151.712 395.017 158.924C376.35 192.016 341.136 212.805 302.528 212.805C243.556 212.805 197.311 164.864 197.311 105.891C197.311 49.0403 243.556 0.6745 302.528 0.6745C341.136 0.6745 376.35 21.4633 395.017 54.5557C398.411 61.7681 396.714 68.9806 389.078 72.3747C383.986 76.193 374.228 74.0717 370.834 67.2835C355.985 43.5249 330.105 28.2515 302.528 28.2515C260.102 28.2515 224.888 63.4652 224.888 105.891C224.888 150.014 260.102 185.652 302.528 185.652C330.105 185.652 355.985 170.379 370.834 146.62C374.228 139.408 383.986 137.711 389.078 141.105Z"/>
</mask>
<path d="M14.9254 212.805C7.28872 212.805 0.9248 206.441 0.9248 198.805V106.74C0.9248 48.1918 48.4421 0.6745 106.99 0.6745C137.537 0.6745 166.811 13.8266 186.751 36.7367C191.842 42.6764 191.418 51.1616 185.478 56.2527C179.963 61.3439 171.054 60.9196 165.962 54.9799C151.113 38.0095 129.476 28.2515 106.99 28.2515C63.7155 28.2515 28.5018 63.4652 28.5018 106.74V198.805C28.5018 206.441 22.5621 212.805 14.9254 212.805ZM389.078 141.105C396.714 144.499 398.411 151.712 395.017 158.924C376.35 192.016 341.136 212.805 302.528 212.805C243.556 212.805 197.311 164.864 197.311 105.891C197.311 49.0403 243.556 0.6745 302.528 0.6745C341.136 0.6745 376.35 21.4633 395.017 54.5557C398.411 61.7681 396.714 68.9806 389.078 72.3747C383.986 76.193 374.228 74.0717 370.834 67.2835C355.985 43.5249 330.105 28.2515 302.528 28.2515C260.102 28.2515 224.888 63.4652 224.888 105.891C224.888 150.014 260.102 185.652 302.528 185.652C330.105 185.652 355.985 170.379 370.834 146.62C374.228 139.408 383.986 137.711 389.078 141.105Z" fill="#C5E3FE"/>
<path d="M186.751 36.7367L191.784 32.4225L191.768 32.4035L191.752 32.3845L186.751 36.7367ZM185.478 56.2527L181.164 51.2196L181.072 51.2989L180.982 51.3817L185.478 56.2527ZM165.962 54.9799L170.996 50.6658L170.974 50.6401L170.951 50.6147L165.962 54.9799ZM14.9254 206.176C10.9499 206.176 7.55388 202.78 7.55388 198.805H-5.70428C-5.70428 210.102 3.62758 219.434 14.9254 219.434V206.176ZM7.55388 198.805V106.74H-5.70428V198.805H7.55388ZM7.55388 106.74C7.55388 51.8529 52.1032 7.30358 106.99 7.30358V-5.95458C44.7809 -5.95458 -5.70428 44.5306 -5.70428 106.74H7.55388ZM106.99 7.30358C135.652 7.30358 163.091 19.6494 181.751 41.0889L191.752 32.3845C170.531 8.00377 139.422 -5.95458 106.99 -5.95458V7.30358ZM181.718 41.0509C184.56 44.3661 184.171 48.6421 181.164 51.2196L189.793 61.2859C198.665 53.6811 199.125 40.9866 191.784 32.4225L181.718 41.0509ZM180.982 51.3817C178.239 53.9138 173.652 53.7653 170.996 50.6658L160.929 59.2941C168.455 68.074 181.687 68.7739 189.975 61.1238L180.982 51.3817ZM170.951 50.6147C154.837 32.1987 131.378 21.6224 106.99 21.6224V34.8806C127.574 34.8806 147.389 43.8203 160.974 59.3452L170.951 50.6147ZM106.99 21.6224C60.0543 21.6224 21.8727 59.804 21.8727 106.74H35.1309C35.1309 67.1263 67.3766 34.8806 106.99 34.8806V21.6224ZM21.8727 106.74V198.805H35.1309V106.74H21.8727ZM21.8727 198.805C21.8727 203.049 18.6379 206.176 14.9254 206.176V219.434C26.4863 219.434 35.1309 209.834 35.1309 198.805H21.8727ZM389.078 141.105L385.4 146.621L385.87 146.934L386.385 147.163L389.078 141.105ZM395.017 158.924L400.791 162.181L400.911 161.968L401.015 161.747L395.017 158.924ZM395.017 54.5557L401.015 51.733L400.911 51.5117L400.791 51.2987L395.017 54.5557ZM389.078 72.3747L386.385 66.3169L385.7 66.6215L385.1 67.0714L389.078 72.3747ZM370.834 67.2835L376.764 64.3189L376.623 64.0372L376.456 63.7701L370.834 67.2835ZM370.834 146.62L376.456 150.134L376.665 149.8L376.832 149.443L370.834 146.62ZM386.385 147.163C388.683 148.184 389.521 149.46 389.843 150.517C390.209 151.715 390.193 153.607 389.019 156.101L401.015 161.747C403.235 157.029 404.068 151.708 402.524 146.648C400.938 141.448 397.109 137.42 391.77 135.047L386.385 147.163ZM389.243 155.667C371.749 186.681 338.739 206.176 302.528 206.176V219.434C343.533 219.434 380.951 197.352 400.791 162.181L389.243 155.667ZM302.528 206.176C247.355 206.176 203.94 161.342 203.94 105.891H190.682C190.682 168.386 239.757 219.434 302.528 219.434V206.176ZM203.94 105.891C203.94 52.6142 247.304 7.30358 302.528 7.30358V-5.95458C239.808 -5.95458 190.682 45.4664 190.682 105.891H203.94ZM302.528 7.30358C338.739 7.30358 371.749 26.7991 389.243 57.8127L400.791 51.2987C380.951 16.1274 343.533 -5.95458 302.528 -5.95458V7.30358ZM389.019 57.3783C390.193 59.873 390.209 61.7644 389.843 62.9626C389.521 64.0199 388.683 65.2956 386.385 66.3169L391.77 78.4324C397.109 76.0596 400.938 72.032 402.524 66.8315C404.068 61.7719 403.235 56.4508 401.015 51.733L389.019 57.3783ZM385.1 67.0714C384.597 67.4485 383.116 67.9389 380.973 67.387C378.934 66.8617 377.435 65.661 376.764 64.3189L364.905 70.2481C367.628 75.6942 372.705 78.9483 377.666 80.2261C382.523 81.4772 388.467 81.1192 393.055 77.6779L385.1 67.0714ZM376.456 63.7701C360.487 38.2205 332.559 21.6224 302.528 21.6224V34.8806C327.651 34.8806 351.483 48.8293 365.213 70.7969L376.456 63.7701ZM302.528 21.6224C256.441 21.6224 218.259 59.804 218.259 105.891H231.517C231.517 67.1263 263.763 34.8806 302.528 34.8806V21.6224ZM218.259 105.891C218.259 153.535 256.302 192.282 302.528 192.282V179.023C263.902 179.023 231.517 146.494 231.517 105.891H218.259ZM302.528 192.282C332.559 192.282 360.487 175.683 376.456 150.134L365.213 143.107C351.483 165.075 327.651 179.023 302.528 179.023V192.282ZM376.832 149.443C377.527 147.968 378.981 146.818 380.973 146.305C383.107 145.755 384.777 146.205 385.4 146.621L392.755 135.589C388.286 132.61 382.532 132.212 377.666 133.466C372.657 134.756 367.536 138.06 364.836 143.798L376.832 149.443Z" fill="#C5E3FE" mask="url(#path-1-outside-1_219_1103)"/>
</svg>
