<svg width="850" height="849" viewBox="0 0 850 849" fill="none" xmlns="http://www.w3.org/2000/svg">
<g clip-path="url(#clip0_493_2985)">
<path d="M425.237 0L584.927 204.706L828.961 293.322L683.62 508.454L674.752 767.928L425.237 696.18L175.722 767.928L166.854 508.454L21.5138 293.322L265.548 204.706L425.237 0Z" fill="#C5E3FE"/>
<mask id="path-2-outside-1_493_2985" maskUnits="userSpaceOnUse" x="267.909" y="330" width="312" height="174" fill="black">
<rect fill="white" x="267.909" y="330" width="312" height="174"/>
<path d="M284.699 498C278.843 498 273.964 493.12 273.964 487.265V416.672C273.964 371.778 310.399 335.343 355.292 335.343C378.715 335.343 401.161 345.428 416.451 362.995C420.355 367.549 420.029 374.055 415.475 377.959C411.246 381.863 404.414 381.538 400.511 376.983C389.125 363.971 372.534 356.488 355.292 356.488C322.11 356.488 295.109 383.49 295.109 416.672V487.265C295.109 493.12 290.555 498 284.699 498ZM568.337 443.022C574.193 445.624 575.494 451.155 572.891 456.685C558.578 482.06 531.577 498 501.973 498C456.754 498 421.295 461.24 421.295 416.021C421.295 372.429 456.754 335.343 501.973 335.343C531.577 335.343 558.578 351.283 572.891 376.658C575.494 382.188 574.193 387.719 568.337 390.321C564.433 393.249 556.951 391.622 554.349 386.417C542.963 368.2 523.118 356.488 501.973 356.488C469.442 356.488 442.441 383.49 442.441 416.021C442.441 449.854 469.442 477.18 501.973 477.18C523.118 477.18 542.963 465.469 554.349 447.251C556.951 441.721 564.433 440.419 568.337 443.022Z"/>
</mask>
<path d="M284.699 498C278.843 498 273.964 493.12 273.964 487.265V416.672C273.964 371.778 310.399 335.343 355.292 335.343C378.715 335.343 401.161 345.428 416.451 362.995C420.355 367.549 420.029 374.055 415.475 377.959C411.246 381.863 404.414 381.538 400.511 376.983C389.125 363.971 372.534 356.488 355.292 356.488C322.11 356.488 295.109 383.49 295.109 416.672V487.265C295.109 493.12 290.555 498 284.699 498ZM568.337 443.022C574.193 445.624 575.494 451.155 572.891 456.685C558.578 482.06 531.577 498 501.973 498C456.754 498 421.295 461.24 421.295 416.021C421.295 372.429 456.754 335.343 501.973 335.343C531.577 335.343 558.578 351.283 572.891 376.658C575.494 382.188 574.193 387.719 568.337 390.321C564.433 393.249 556.951 391.622 554.349 386.417C542.963 368.2 523.118 356.488 501.973 356.488C469.442 356.488 442.441 383.49 442.441 416.021C442.441 449.854 469.442 477.18 501.973 477.18C523.118 477.18 542.963 465.469 554.349 447.251C556.951 441.721 564.433 440.419 568.337 443.022Z" fill="#212121"/>
<path d="M416.451 362.995L420.31 359.687L420.298 359.672L420.285 359.658L416.451 362.995ZM415.475 377.959L412.167 374.1L412.096 374.161L412.027 374.224L415.475 377.959ZM400.511 376.983L404.37 373.675L404.353 373.656L404.336 373.636L400.511 376.983ZM284.699 498V492.917C281.651 492.917 279.047 490.313 279.047 487.265H273.964H268.88C268.88 495.928 276.036 503.083 284.699 503.083V498ZM273.964 487.265H279.047V416.672H273.964H268.88V487.265H273.964ZM273.964 416.672H279.047C279.047 374.585 313.206 340.426 355.292 340.426V335.343V330.26C307.591 330.26 268.88 368.971 268.88 416.672H273.964ZM355.292 335.343V340.426C377.269 340.426 398.309 349.893 412.617 366.332L416.451 362.995L420.285 359.658C404.014 340.963 380.16 330.26 355.292 330.26V335.343ZM416.451 362.995L412.592 366.303C414.771 368.845 414.473 372.124 412.167 374.1L415.475 377.959L418.783 381.818C425.586 375.987 425.939 366.253 420.31 359.687L416.451 362.995ZM415.475 377.959L412.027 374.224C409.924 376.166 406.407 376.052 404.37 373.675L400.511 376.983L396.651 380.291C402.422 387.023 412.568 387.56 418.923 381.694L415.475 377.959ZM400.511 376.983L404.336 373.636C391.98 359.515 373.992 351.405 355.292 351.405V356.488V361.571C371.075 361.571 386.269 368.426 396.685 380.33L400.511 376.983ZM355.292 356.488V351.405C319.303 351.405 290.026 380.682 290.026 416.672H295.109H300.192C300.192 386.297 324.917 361.571 355.292 361.571V356.488ZM295.109 416.672H290.026V487.265H295.109H300.192V416.672H295.109ZM295.109 487.265H290.026C290.026 490.519 287.546 492.917 284.699 492.917V498V503.083C293.564 503.083 300.192 495.722 300.192 487.265H295.109ZM568.337 443.022L565.517 447.251L565.877 447.491L566.273 447.667L568.337 443.022ZM572.891 456.685L577.319 459.183L577.411 459.019L577.491 458.849L572.891 456.685ZM572.891 376.658L577.491 374.494L577.411 374.324L577.319 374.161L572.891 376.658ZM568.337 390.321L566.273 385.676L565.747 385.91L565.287 386.255L568.337 390.321ZM554.349 386.417L558.895 384.144L558.787 383.928L558.659 383.723L554.349 386.417ZM554.349 447.251L558.659 449.945L558.819 449.689L558.948 449.415L554.349 447.251ZM568.337 443.022L566.273 447.667C568.035 448.45 568.677 449.428 568.924 450.239C569.205 451.158 569.192 452.608 568.292 454.521L572.891 456.685L577.491 458.849C579.193 455.232 579.831 451.152 578.648 447.272C577.431 443.285 574.495 440.196 570.401 438.377L568.337 443.022ZM572.891 456.685L568.464 454.188C555.05 477.968 529.738 492.917 501.973 492.917V498V503.083C533.415 503.083 562.106 486.151 577.319 459.183L572.891 456.685ZM501.973 498V492.917C459.667 492.917 426.378 458.539 426.378 416.021H421.295H416.212C416.212 463.94 453.841 503.083 501.973 503.083V498ZM421.295 416.021H426.378C426.378 375.169 459.628 340.426 501.973 340.426V335.343V330.26C453.881 330.26 416.212 369.688 416.212 416.021H421.295ZM501.973 335.343V340.426C529.738 340.426 555.05 355.375 568.464 379.155L572.891 376.658L577.319 374.161C562.106 347.192 533.415 330.26 501.973 330.26V335.343ZM572.891 376.658L568.292 378.822C569.192 380.735 569.205 382.185 568.924 383.104C568.677 383.915 568.035 384.893 566.273 385.676L568.337 390.321L570.401 394.966C574.495 393.147 577.431 390.058 578.648 386.071C579.831 382.191 579.193 378.111 577.491 374.494L572.891 376.658ZM568.337 390.321L565.287 386.255C564.902 386.544 563.766 386.92 562.123 386.497C560.559 386.094 559.409 385.173 558.895 384.144L554.349 386.417L549.802 388.691C551.89 392.866 555.783 395.362 559.587 396.341C563.311 397.301 567.869 397.026 571.387 394.388L568.337 390.321ZM554.349 386.417L558.659 383.723C546.415 364.132 525 351.405 501.973 351.405V356.488V361.571C521.237 361.571 539.51 372.267 550.038 389.111L554.349 386.417ZM501.973 356.488V351.405C466.634 351.405 437.357 380.682 437.357 416.021H442.441H447.524C447.524 386.297 472.249 361.571 501.973 361.571V356.488ZM442.441 416.021H437.357C437.357 452.553 466.528 482.263 501.973 482.263V477.18V472.097C472.355 472.097 447.524 447.154 447.524 416.021H442.441ZM501.973 477.18V482.263C525 482.263 546.415 469.536 558.659 449.945L554.349 447.251L550.038 444.557C539.51 461.401 521.237 472.097 501.973 472.097V477.18ZM554.349 447.251L558.948 449.415C559.48 448.284 560.595 447.402 562.123 447.009C563.759 446.588 565.04 446.933 565.517 447.251L568.337 443.022L571.157 438.793C567.73 436.509 563.318 436.203 559.587 437.164C555.746 438.154 551.82 440.687 549.749 445.087L554.349 447.251Z" fill="#212121" mask="url(#path-2-outside-1_493_2985)"/>
</g>
<defs>
<clipPath id="clip0_493_2985">
<rect width="849" height="849" fill="white" transform="translate(0.737244)"/>
</clipPath>
</defs>
</svg>
