<svg width="395" height="221" viewBox="0 0 395 221" fill="none" xmlns="http://www.w3.org/2000/svg">
<mask id="path-1-outside-1_497_2988" maskUnits="userSpaceOnUse" x="0" y="-0.222168" width="395" height="221" fill="black">
<rect fill="white" y="-0.222168" width="395" height="221"/>
<path d="M20.4227 213.778C12.9804 213.778 6.77852 207.576 6.77852 200.134V110.413C6.77852 53.3552 53.0861 7.04768 110.144 7.04768C139.913 7.04768 168.441 19.8649 187.874 42.1918C192.836 47.9802 192.422 56.2495 186.634 61.211C181.259 66.1725 172.576 65.759 167.615 59.9706C153.143 43.4322 132.057 33.9226 110.144 33.9226C67.9706 33.9226 33.6534 68.2398 33.6534 110.413V200.134C33.6534 207.576 27.865 213.778 20.4227 213.778ZM380.915 143.903C388.357 147.211 390.011 154.24 386.703 161.268C368.511 193.518 334.194 213.778 296.569 213.778C239.098 213.778 194.031 167.057 194.031 109.586C194.031 54.1822 239.098 7.04768 296.569 7.04768C334.194 7.04768 368.511 27.3072 386.703 59.5571C390.011 66.586 388.357 73.6148 380.915 76.9225C375.953 80.6436 366.444 78.5763 363.136 71.9609C348.665 48.8072 323.444 33.9226 296.569 33.9226C255.223 33.9226 220.906 68.2398 220.906 109.586C220.906 152.586 255.223 187.316 296.569 187.316C323.444 187.316 348.665 172.432 363.136 149.278C366.444 142.249 375.953 140.595 380.915 143.903Z"/>
</mask>
<path d="M20.4227 213.778C12.9804 213.778 6.77852 207.576 6.77852 200.134V110.413C6.77852 53.3552 53.0861 7.04768 110.144 7.04768C139.913 7.04768 168.441 19.8649 187.874 42.1918C192.836 47.9802 192.422 56.2495 186.634 61.211C181.259 66.1725 172.576 65.759 167.615 59.9706C153.143 43.4322 132.057 33.9226 110.144 33.9226C67.9706 33.9226 33.6534 68.2398 33.6534 110.413V200.134C33.6534 207.576 27.865 213.778 20.4227 213.778ZM380.915 143.903C388.357 147.211 390.011 154.24 386.703 161.268C368.511 193.518 334.194 213.778 296.569 213.778C239.098 213.778 194.031 167.057 194.031 109.586C194.031 54.1822 239.098 7.04768 296.569 7.04768C334.194 7.04768 368.511 27.3072 386.703 59.5571C390.011 66.586 388.357 73.6148 380.915 76.9225C375.953 80.6436 366.444 78.5763 363.136 71.9609C348.665 48.8072 323.444 33.9226 296.569 33.9226C255.223 33.9226 220.906 68.2398 220.906 109.586C220.906 152.586 255.223 187.316 296.569 187.316C323.444 187.316 348.665 172.432 363.136 149.278C366.444 142.249 375.953 140.595 380.915 143.903Z" fill="#CF5C36"/>
<path d="M187.874 42.1918L192.779 37.9875L192.763 37.9689L192.747 37.9504L187.874 42.1918ZM186.634 61.211L182.429 56.3059L182.339 56.3833L182.252 56.4639L186.634 61.211ZM167.615 59.9706L172.52 55.7663L172.498 55.7413L172.476 55.7165L167.615 59.9706ZM20.4227 213.778V207.318C16.5484 207.318 13.2388 204.008 13.2388 200.134H6.77852H0.318198C0.318198 211.144 9.41248 220.238 20.4227 220.238V213.778ZM6.77852 200.134H13.2388V110.413H6.77852H0.318198V200.134H6.77852ZM6.77852 110.413H13.2388C13.2388 56.9232 56.654 13.508 110.144 13.508V7.04768V0.587367C49.5181 0.587367 0.318198 49.7873 0.318198 110.413H6.77852ZM110.144 7.04768V13.508C138.075 13.508 164.816 25.5395 183.001 46.4332L187.874 42.1918L192.747 37.9504C172.067 14.1904 141.75 0.587367 110.144 0.587367V7.04768ZM187.874 42.1918L182.969 46.3961C185.738 49.627 185.36 53.7941 182.429 56.3059L186.634 61.211L190.838 66.116C199.484 58.7048 199.933 46.3335 192.779 37.9875L187.874 42.1918ZM186.634 61.211L182.252 56.4639C179.579 58.9316 175.109 58.7868 172.52 55.7663L167.615 59.9706L162.71 64.1749C170.044 72.7313 182.939 73.4134 191.016 65.958L186.634 61.211ZM167.615 59.9706L172.476 55.7165C156.773 37.7693 133.911 27.4623 110.144 27.4623V33.9226V40.3829C130.203 40.3829 149.514 49.095 162.753 64.2247L167.615 59.9706ZM110.144 33.9226V27.4623C64.4027 27.4623 27.1931 64.6719 27.1931 110.413H33.6534H40.1138C40.1138 71.8077 71.5386 40.3829 110.144 40.3829V33.9226ZM33.6534 110.413H27.1931V200.134H33.6534H40.1138V110.413H33.6534ZM33.6534 200.134H27.1931C27.1931 204.27 24.0407 207.318 20.4227 207.318V213.778V220.238C31.6893 220.238 40.1138 210.882 40.1138 200.134H33.6534ZM380.915 143.903L377.331 149.278L377.789 149.583L378.291 149.807L380.915 143.903ZM386.703 161.268L392.33 164.442L392.447 164.235L392.549 164.019L386.703 161.268ZM386.703 59.5571L392.549 56.8064L392.447 56.5907L392.33 56.383L386.703 59.5571ZM380.915 76.9225L378.291 71.0189L377.623 71.3157L377.039 71.7542L380.915 76.9225ZM363.136 71.9609L368.914 69.0718L368.777 68.7973L368.614 68.537L363.136 71.9609ZM363.136 149.278L368.614 152.702L368.818 152.376L368.982 152.029L363.136 149.278ZM380.915 143.903L378.291 149.807C380.531 150.802 381.347 152.045 381.661 153.075C382.017 154.243 382.002 156.086 380.858 158.518L386.703 161.268L392.549 164.019C394.712 159.422 395.524 154.236 394.019 149.305C392.473 144.237 388.742 140.312 383.539 138L380.915 143.903ZM386.703 161.268L381.077 158.094C364.027 188.318 331.858 207.318 296.569 207.318V213.778V220.238C336.53 220.238 372.995 198.718 392.33 164.442L386.703 161.268ZM296.569 213.778V207.318C242.8 207.318 200.491 163.625 200.491 109.586H194.031H187.571C187.571 170.489 235.396 220.238 296.569 220.238V213.778ZM194.031 109.586H200.491C200.491 57.6651 242.75 13.508 296.569 13.508V7.04768V0.587367C235.446 0.587367 187.571 50.6992 187.571 109.586H194.031ZM296.569 7.04768V13.508C331.858 13.508 364.027 32.5072 381.077 62.7312L386.703 59.5571L392.33 56.383C372.995 22.1072 336.53 0.587367 296.569 0.587367V7.04768ZM386.703 59.5571L380.858 62.3079C382.002 64.7391 382.017 66.5823 381.661 67.7501C381.347 68.7805 380.531 70.0237 378.291 71.0189L380.915 76.9225L383.539 82.826C388.742 80.5136 392.473 76.5885 394.019 71.5204C395.524 66.5896 394.712 61.404 392.549 56.8064L386.703 59.5571ZM380.915 76.9225L377.039 71.7542C376.549 72.1217 375.105 72.5997 373.017 72.0618C371.029 71.5498 369.568 70.3798 368.914 69.0718L363.136 71.9609L357.358 74.8501C360.011 80.1575 364.959 83.3287 369.794 84.574C374.528 85.7933 380.32 85.4443 384.791 82.0907L380.915 76.9225ZM363.136 71.9609L368.614 68.537C353.052 43.6378 325.835 27.4623 296.569 27.4623V33.9226V40.3829C321.052 40.3829 344.278 53.9766 357.658 75.3849L363.136 71.9609ZM296.569 33.9226V27.4623C251.655 27.4623 214.445 64.6719 214.445 109.586H220.906H227.366C227.366 71.8077 258.791 40.3829 296.569 40.3829V33.9226ZM220.906 109.586H214.445C214.445 156.017 251.52 193.777 296.569 193.777V187.316V180.856C258.926 180.856 227.366 149.154 227.366 109.586H220.906ZM296.569 187.316V193.777C325.835 193.777 353.052 177.601 368.614 152.702L363.136 149.278L357.658 145.854C344.278 167.262 321.052 180.856 296.569 180.856V187.316ZM363.136 149.278L368.982 152.029C369.658 150.591 371.076 149.47 373.017 148.97C375.096 148.435 376.724 148.874 377.331 149.278L380.915 143.903L384.498 138.528C380.144 135.625 374.536 135.237 369.794 136.458C364.913 137.715 359.922 140.936 357.291 146.527L363.136 149.278Z" fill="#CF5C36" mask="url(#path-1-outside-1_497_2988)"/>
</svg>
