<svg width="1316" height="725" viewBox="0 0 1316 725" fill="none" xmlns="http://www.w3.org/2000/svg">
<path fill-rule="evenodd" clip-rule="evenodd" d="M341.894 0.828157C263.32 5.30516 189.64 34.4702 129.51 84.8972C115.416 96.7172 90.7668 121.789 79.9328 135.325C42.9818 181.493 17.8398 235.567 6.59479 293.056C-0.218208 327.888 0.00978501 320.615 0.00978501 503.28C0.00978501 687.973 -0.572212 673.043 7.24079 688.78C12.7118 699.799 25.0898 711.999 36.5098 717.627C73.5808 735.896 114.583 718.065 128.135 677.78C129.897 672.545 130.013 664.317 130.556 506.78C131.165 329.799 130.938 337.883 135.98 313.78C144.903 271.128 168.9 227.875 200.64 197.235C259.308 140.602 340.529 118.644 418.588 138.314C450.089 146.252 482.727 162.599 508.01 183.102C512.41 186.67 522.309 195.988 530.008 203.807C537.707 211.627 545.928 219.348 548.278 220.965C578.755 241.933 619.98 233.43 640.663 201.911C647.723 191.152 650.745 180.966 650.792 167.78C650.877 143.773 642.614 129.285 612.192 100.102C585.293 74.2981 550.528 50.4312 517.105 34.8242C474.03 14.7102 428.893 3.49716 380.01 0.76816C361.495 -0.26584 361.092 -0.265843 341.894 0.828157ZM970.352 0.813143C858.189 7.62914 757.507 64.9082 694.17 157.937C660.458 207.452 640.453 261.812 633.322 323.28C631.666 337.557 631.701 382.836 633.38 397.78C641.614 471.075 667.521 534.743 711.912 590.78C724.028 606.074 752.138 634.333 767.01 646.17C847.004 709.837 946.601 736.094 1048.01 720.252C1137.95 706.203 1218.2 659.457 1275.43 587.787C1284.57 576.336 1301.63 550.956 1306.72 541.235C1313.89 527.52 1316.6 511.75 1314.14 497.985C1310.58 478.091 1299.18 464.105 1277.76 453.386C1259.82 444.404 1238.58 444.519 1220.01 453.699C1208 459.638 1202.04 465.599 1190.12 483.627C1160.45 528.48 1120.78 560.929 1072.75 579.642C1042.78 591.316 1019.18 595.329 985.266 594.516C949.428 593.658 923.244 587.15 891.282 571.157C823.713 537.346 776.876 471.643 764.837 393.78C762.348 377.678 762.348 342.6 764.838 327.28C777.179 251.349 824.085 187.68 892.01 154.66C925.411 138.423 954.917 131.522 991.01 131.505C1011.69 131.496 1026.15 133.273 1046.01 138.262C1077.84 146.26 1109.87 162.276 1137.01 183.764C1156.03 198.82 1180.22 226.121 1192.86 246.78C1201.94 261.639 1213.29 270.571 1230.51 276.414C1238.3 279.057 1259.67 279.067 1267.51 276.431C1277.79 272.975 1289.55 265.692 1297.61 257.78C1314.78 240.937 1319.47 218.653 1311.05 193.902C1307.04 182.105 1290.91 156.653 1273.9 135.28C1262.69 121.197 1233.21 91.7012 1219.01 80.3592C1206.13 70.0762 1181.34 53.4731 1166.74 45.3571C1108.52 12.9841 1037 -3.23686 970.352 0.813143Z" fill="#C5E3FE"/>
</svg>
