<svg width="207" height="18" viewBox="0 0 207 18" fill="none" xmlns="http://www.w3.org/2000/svg">
<path d="M0.426438 17V0.896H6.71444C8.73044 0.896 10.2944 1.36 11.4064 2.288C12.5264 3.208 13.0864 4.444 13.0864 5.996C13.0864 7.516 12.5264 8.736 11.4064 9.656C10.2944 10.568 8.73044 11.024 6.71444 11.024H4.26644V17H0.426438ZM8.82644 17L4.90244 9.224H8.95844L13.8544 17H8.82644ZM4.26644 8.528H6.28244C7.23444 8.528 7.94644 8.332 8.41844 7.94C8.89844 7.54 9.13844 7.032 9.13844 6.416C9.13844 5.776 8.93444 5.252 8.52644 4.844C8.12644 4.428 7.52244 4.22 6.71444 4.22H4.26644V8.528ZM15.0492 17L20.4732 0.896H25.3572L30.4812 17H26.4372L25.5612 14.168H20.0052L19.1292 17H15.0492ZM20.9772 11.324H24.6852L22.8612 5.432L20.9772 11.324ZM32.9343 17V0.896H43.4343V4.22H36.7743V7.376H42.7383V10.652H36.7743V17H32.9343ZM43.2679 17L48.6919 0.896H53.5759L58.6999 17H54.6559L53.7799 14.168H48.2239L47.3479 17H43.2679ZM49.1959 11.324H52.9039L51.0799 5.432L49.1959 11.324ZM61.129 17V0.896H71.893V4.22H64.969V7.316H71.461V10.652H64.969V13.64H71.893V17H61.129ZM79.6883 0.896V13.64H85.7723V17H75.8483V0.896H79.6883ZM100.976 17.384C99.5681 17.384 98.3281 17.068 97.2561 16.436C96.1921 15.804 95.3601 14.864 94.7601 13.616C94.1601 12.368 93.8601 10.82 93.8601 8.972C93.8601 7.116 94.1561 5.564 94.7481 4.316C95.3481 3.068 96.1841 2.128 97.2561 1.496C98.3281 0.855999 99.5681 0.535999 100.976 0.535999C103.008 0.535999 104.556 1.016 105.62 1.976C106.684 2.936 107.316 4.18 107.516 5.708L103.436 6.416C103.252 5.728 102.96 5.16 102.56 4.712C102.168 4.256 101.64 4.028 100.976 4.028C100.384 4.028 99.8601 4.208 99.4041 4.568C98.9561 4.92 98.6081 5.46 98.3601 6.188C98.1121 6.916 97.9881 7.844 97.9881 8.972C97.9881 10.076 98.1161 10.992 98.3721 11.72C98.6281 12.44 98.9801 12.976 99.4281 13.328C99.8841 13.68 100.4 13.856 100.976 13.856C101.8 13.856 102.416 13.64 102.824 13.208C103.232 12.768 103.436 12.236 103.436 11.612H107.492C107.492 12.852 107.24 13.904 106.736 14.768C106.24 15.624 105.508 16.276 104.54 16.724C103.572 17.164 102.384 17.384 100.976 17.384ZM108.987 17L114.411 0.896H119.295L124.419 17H120.375L119.499 14.168H113.943L113.067 17H108.987ZM114.915 11.324H118.623L116.799 5.432L114.915 11.324ZM126.872 17V0.896H133.16C135.176 0.896 136.74 1.36 137.852 2.288C138.972 3.208 139.532 4.444 139.532 5.996C139.532 7.516 138.972 8.736 137.852 9.656C136.74 10.568 135.176 11.024 133.16 11.024H130.712V17H126.872ZM135.272 17L131.348 9.224H135.404L140.3 17H135.272ZM130.712 8.528H132.728C133.68 8.528 134.392 8.332 134.864 7.94C135.344 7.54 135.584 7.032 135.584 6.416C135.584 5.776 135.38 5.252 134.972 4.844C134.572 4.428 133.968 4.22 133.16 4.22H130.712V8.528ZM143.091 17V0.896H149.379C151.395 0.896 152.959 1.36 154.071 2.288C155.191 3.208 155.751 4.444 155.751 5.996C155.751 7.516 155.191 8.736 154.071 9.656C152.959 10.568 151.395 11.024 149.379 11.024H146.931V17H143.091ZM151.491 17L147.567 9.224H151.623L156.519 17H151.491ZM146.931 8.528H148.947C149.899 8.528 150.611 8.332 151.083 7.94C151.563 7.54 151.803 7.032 151.803 6.416C151.803 5.776 151.599 5.252 151.191 4.844C150.791 4.428 150.187 4.22 149.379 4.22H146.931V8.528ZM159.309 17V0.896H163.149V17H159.309ZM171.071 0.896V13.64H177.155V17H167.231V0.896H171.071ZM183.61 0.896V13.64H189.694V17H179.77V0.896H183.61ZM198.921 17.384C197.393 17.384 196.057 17.064 194.913 16.424C193.777 15.776 192.893 14.824 192.261 13.568C191.629 12.304 191.313 10.748 191.313 8.9C191.313 7.004 191.629 5.44 192.261 4.208C192.893 2.968 193.777 2.048 194.913 1.448C196.057 0.839999 197.393 0.535999 198.921 0.535999C200.465 0.535999 201.809 0.851999 202.953 1.484C204.105 2.116 204.997 3.052 205.629 4.292C206.261 5.532 206.577 7.068 206.577 8.9C206.577 10.78 206.261 12.352 205.629 13.616C204.997 14.872 204.105 15.816 202.953 16.448C201.809 17.072 200.465 17.384 198.921 17.384ZM198.921 13.94C200.041 13.94 200.937 13.5 201.609 12.62C202.281 11.732 202.617 10.484 202.617 8.876C202.617 7.364 202.281 6.172 201.609 5.3C200.937 4.42 200.041 3.98 198.921 3.98C197.833 3.98 196.953 4.42 196.281 5.3C195.609 6.172 195.273 7.372 195.273 8.9C195.273 10.492 195.609 11.732 196.281 12.62C196.953 13.5 197.833 13.94 198.921 13.94Z" fill="#0E0E0E"/>
</svg>
