<svg width="22" height="22" viewBox="0 0 22 22" fill="none" xmlns="http://www.w3.org/2000/svg">
<path d="M4.12492 13.7499C5.59677 13.7502 7.04908 13.4129 8.37016 12.7639C9.69124 12.115 10.8459 11.1718 11.7453 10.0067C12.6448 8.84168 13.2651 7.48588 13.5585 6.04357C13.8519 4.60125 13.8106 3.11087 13.4378 1.68701C15.0762 2.11678 16.5722 2.97131 17.7746 4.16429C18.9771 5.35727 19.8434 6.84646 20.2861 8.48142C20.7289 10.1164 20.7323 11.8392 20.296 13.4759C19.8598 15.1126 18.9993 16.6052 17.8016 17.803C16.6039 19.0007 15.1113 19.8611 13.4746 20.2974C11.8379 20.7336 10.115 20.7302 8.48008 20.2875C6.84511 19.8448 5.35593 18.9784 4.16295 17.776C2.96997 16.5735 2.11544 15.0776 1.68567 13.4391C2.48212 13.6466 3.30189 13.751 4.12492 13.7499Z" fill="black"/>
</svg>
