<svg width="313" height="50" viewBox="0 0 313 50" fill="none" xmlns="http://www.w3.org/2000/svg">
<g clip-path="url(#clip0_1897_669)">
<path d="M7.6333 47.8179C11.8469 47.8179 15.2666 44.3982 15.2666 40.1846V32.5513H7.6333C3.41972 32.5513 0 35.971 0 40.1846C0 44.3982 3.41972 47.8179 7.6333 47.8179Z" fill="#0ACF83"/>
<path d="M0 24.9186C0 20.705 3.41972 17.2853 7.6333 17.2853H15.2666V32.5519H7.6333C3.41972 32.5519 0 29.1322 0 24.9186Z" fill="#A259FF"/>
<path d="M0 9.65137C0 5.43779 3.41972 2.01807 7.6333 2.01807H15.2666V17.2847H7.6333C3.41972 17.2847 0 13.8649 0 9.65137Z" fill="#F24E1E"/>
<path d="M15.2666 2.01807H22.8999C27.1135 2.01807 30.5332 5.43779 30.5332 9.65137C30.5332 13.8649 27.1135 17.2847 22.8999 17.2847H15.2666V2.01807Z" fill="#FF7262"/>
<path d="M30.5332 24.9186C30.5332 29.1322 27.1135 32.5519 22.8999 32.5519C18.6863 32.5519 15.2666 29.1322 15.2666 24.9186C15.2666 20.705 18.6863 17.2853 22.8999 17.2853C27.1135 17.2853 30.5332 20.705 30.5332 24.9186Z" fill="#1ABCFE"/>
</g>
<path d="M62.345 39.7423L59.3711 6.38916H92.048L89.0701 39.737L75.6897 43.4468L62.345 39.7423Z" fill="#E44F26"/>
<path d="M75.709 40.6119L86.5219 37.6143L89.0656 9.11694H75.709V40.6119Z" fill="#F1662A"/>
<path d="M75.7092 21.4862H70.2961L69.9229 17.2973H75.7092V13.2064H65.4521L65.5501 14.3049L66.5546 25.577H75.7092V21.4862ZM75.7092 32.1098L75.6906 32.1151L71.1352 30.8856L70.844 27.6232H66.7373L67.3103 34.0447L75.6906 36.3714L75.7092 36.3661V32.1098Z" fill="#EBEBEB"/>
<path d="M75.6943 21.4862V25.577H80.7315L80.2577 30.8829L75.6943 32.1137V36.3701L84.0813 34.0447L84.1421 33.3539L85.103 22.5846L85.2036 21.4862H75.6943ZM75.6943 13.2064V17.2973H85.5755L85.6575 16.3788L85.8442 14.3049L85.9421 13.2064H75.6943Z" fill="white"/>
<path d="M128.696 39.7423L125.724 6.38916H158.398L155.421 39.737L142.041 43.4468L128.696 39.7423Z" fill="#1572B6"/>
<path d="M142.061 40.6119L152.873 37.6143L155.417 9.11694H142.061V40.6119Z" fill="#33A9DC"/>
<path d="M142.061 21.2004H147.474L147.847 17.0116H142.061V12.9207H152.318L152.22 14.0178L151.215 25.2913H142.061V21.2004Z" fill="white"/>
<path d="M142.086 31.824L142.068 31.8293L137.512 30.5985L137.221 27.3361H133.114L133.687 33.7589L142.066 36.0856L142.086 36.0803V31.824Z" fill="#EBEBEB"/>
<path d="M147.126 25.1178L146.633 30.5957L142.071 31.8266V36.0829L150.457 33.7588L150.519 33.068L151.23 25.1178H147.126Z" fill="white"/>
<path d="M142.075 12.9207V17.0116H132.194L132.112 16.0917L131.925 14.0178L131.827 12.9207H142.075ZM142.06 21.2004V25.2913H137.562L137.48 24.3715L137.294 22.2976L137.197 21.2004H142.06Z" fill="#EBEBEB"/>
<g clip-path="url(#clip1_1897_669)">
<path d="M187.706 4.07153H229.399V45.7648H187.706V4.07153Z" fill="#F0DB4F"/>
<path d="M225.986 35.8208C225.68 33.9187 224.44 32.3211 220.766 30.8313C219.49 30.2448 218.067 29.8249 217.643 28.8577C217.493 28.2948 217.473 27.9777 217.568 27.637C217.841 26.5313 219.161 26.1866 220.207 26.5036C220.881 26.7295 221.519 27.2487 221.904 28.077C223.703 26.912 223.699 26.9196 224.955 26.119C224.495 25.4059 224.25 25.0768 223.949 24.7718C222.867 23.5631 221.392 22.9406 219.034 22.9883L217.806 23.1471C216.629 23.4445 215.507 24.0624 214.849 24.8907C212.876 27.1301 213.439 31.0495 215.84 32.6625C218.206 34.4383 221.682 34.8423 222.126 36.5029C222.558 38.5359 220.632 39.194 218.718 38.9602C217.307 38.6668 216.522 37.9497 215.674 36.6458C214.112 37.5494 214.112 37.5494 212.507 38.4726C212.888 39.3049 213.288 39.6816 213.926 40.4026C216.946 43.4661 224.504 43.3155 225.859 38.6787C225.914 38.5195 226.279 37.4578 225.986 35.8208ZM210.371 23.2337H206.471L206.455 33.3159C206.455 35.4601 206.566 37.4258 206.217 38.0283C205.647 39.2133 204.168 39.0664 203.494 38.8366C202.809 38.4996 202.46 38.0203 202.056 37.3429C201.945 37.1484 201.862 36.9978 201.834 36.9862L198.663 38.9279C199.19 40.01 199.967 40.9492 200.962 41.5593C202.448 42.4512 204.445 42.7247 206.534 42.2451C207.894 41.8491 209.067 41.0288 209.681 39.7802C210.569 38.1432 210.378 36.1619 210.37 33.9704C210.39 30.395 210.371 26.8204 210.371 23.2337Z" fill="#323330"/>
</g>
<path d="M278.785 4.15295C276.059 4.15295 273.358 4.69006 270.839 5.73359C268.32 6.77713 266.031 8.30667 264.102 10.2349C260.208 14.1291 258.021 19.4107 258.021 24.9179C258.021 34.096 263.98 41.8829 272.224 44.6447C273.262 44.8108 273.594 44.1671 273.594 43.6064V40.0971C267.842 41.343 266.617 37.3146 266.617 37.3146C265.662 34.9059 264.312 34.2622 264.312 34.2622C262.423 32.9747 264.458 33.0163 264.458 33.0163C266.534 33.1616 267.635 35.1551 267.635 35.1551C269.441 38.3113 272.494 37.3769 273.677 36.8786C273.864 35.5288 274.404 34.6152 274.985 34.096C270.376 33.5769 265.537 31.7911 265.537 23.8797C265.537 21.5748 266.326 19.7267 267.676 18.2524C267.469 17.7332 266.742 15.5737 267.884 12.7704C267.884 12.7704 269.628 12.2098 273.594 14.8884C275.235 14.4316 277.02 14.2032 278.785 14.2032C280.551 14.2032 282.336 14.4316 283.977 14.8884C287.943 12.2098 289.687 12.7704 289.687 12.7704C290.829 15.5737 290.102 17.7332 289.895 18.2524C291.244 19.7267 292.034 21.5748 292.034 23.8797C292.034 31.8119 287.175 33.5562 282.544 34.0753C283.291 34.719 283.977 35.9857 283.977 37.9168V43.6064C283.977 44.1671 284.309 44.8315 285.368 44.6447C293.612 41.8621 299.55 34.096 299.55 24.9179C299.55 22.191 299.013 19.4908 297.97 16.9715C296.926 14.4522 295.397 12.1631 293.469 10.2349C291.54 8.30667 289.251 6.77713 286.732 5.73359C284.213 4.69006 281.512 4.15295 278.785 4.15295Z" fill="black"/>
<defs>
<clipPath id="clip0_1897_669">
<rect width="30.5332" height="45.7998" fill="white" transform="translate(0 2.01807)"/>
</clipPath>
<clipPath id="clip1_1897_669">
<rect width="42.6309" height="42.6309" fill="white" transform="translate(187.236 3.60254)"/>
</clipPath>
</defs>
</svg>
