<svg width="420" height="420" viewBox="0 0 420 420" fill="none" xmlns="http://www.w3.org/2000/svg">
<g clip-path="url(#clip0_433_21869)">
<path d="M244.136 80.2773L244.358 80.792L244.81 80.458L314.13 29.0762L304.292 114.801L304.228 115.358L304.785 115.294L390.509 105.455L339.128 174.776L338.794 175.228L339.309 175.45L418.467 209.793L339.309 244.136L338.794 244.358L339.128 244.81L390.509 314.13L304.785 304.292L304.228 304.228L304.292 304.785L314.13 390.509L244.81 339.128L244.358 338.794L244.136 339.309L209.793 418.467L175.45 339.309L175.228 338.794L174.776 339.128L105.455 390.509L115.294 304.785L115.358 304.228L114.801 304.292L29.0762 314.13L80.458 244.81L80.792 244.358L80.2773 244.136L1.11816 209.793L80.2773 175.45L80.792 175.228L80.458 174.776L29.0762 105.455L114.801 115.294L115.358 115.358L115.294 114.801L105.455 29.0762L174.776 80.458L175.228 80.792L175.45 80.2773L209.793 1.11816L244.136 80.2773Z" fill="#CF5C36" stroke="white" stroke-width="0.890841"/>
<mask id="path-2-outside-1_433_21869" maskUnits="userSpaceOnUse" x="132.063" y="162.862" width="154" height="86" fill="black">
<rect fill="white" x="132.063" y="162.862" width="154" height="86"/>
<path d="M140.337 245.862C137.443 245.862 135.032 243.45 135.032 240.556V205.668C135.032 183.482 153.038 165.475 175.225 165.475C186.801 165.475 197.894 170.459 205.451 179.141C207.38 181.391 207.219 184.607 204.968 186.536C202.878 188.465 199.502 188.305 197.573 186.054C191.946 179.623 183.746 175.925 175.225 175.925C158.826 175.925 145.482 189.269 145.482 205.668V240.556C145.482 243.45 143.231 245.862 140.337 245.862ZM280.515 218.691C283.408 219.977 284.052 222.71 282.765 225.444C275.691 237.984 262.347 245.862 247.717 245.862C225.369 245.862 207.845 227.694 207.845 205.347C207.845 183.803 225.369 165.475 247.717 165.475C262.347 165.475 275.691 173.353 282.765 185.893C284.052 188.626 283.408 191.359 280.515 192.646C278.585 194.093 274.887 193.289 273.601 190.716C267.974 181.713 258.167 175.925 247.717 175.925C231.639 175.925 218.295 189.269 218.295 205.347C218.295 222.067 231.639 235.572 247.717 235.572C258.167 235.572 267.974 229.784 273.601 220.781C274.887 218.048 278.585 217.405 280.515 218.691Z"/>
</mask>
<path d="M140.337 245.862C137.443 245.862 135.032 243.45 135.032 240.556V205.668C135.032 183.482 153.038 165.475 175.225 165.475C186.801 165.475 197.894 170.459 205.451 179.141C207.38 181.391 207.219 184.607 204.968 186.536C202.878 188.465 199.502 188.305 197.573 186.054C191.946 179.623 183.746 175.925 175.225 175.925C158.826 175.925 145.482 189.269 145.482 205.668V240.556C145.482 243.45 143.231 245.862 140.337 245.862ZM280.515 218.691C283.408 219.977 284.052 222.71 282.765 225.444C275.691 237.984 262.347 245.862 247.717 245.862C225.369 245.862 207.845 227.694 207.845 205.347C207.845 183.803 225.369 165.475 247.717 165.475C262.347 165.475 275.691 173.353 282.765 185.893C284.052 188.626 283.408 191.359 280.515 192.646C278.585 194.093 274.887 193.289 273.601 190.716C267.974 181.713 258.167 175.925 247.717 175.925C231.639 175.925 218.295 189.269 218.295 205.347C218.295 222.067 231.639 235.572 247.717 235.572C258.167 235.572 267.974 229.784 273.601 220.781C274.887 218.048 278.585 217.405 280.515 218.691Z" fill="white"/>
<path d="M205.451 179.141L207.358 177.506L207.352 177.499L207.346 177.491L205.451 179.141ZM204.968 186.536L203.334 184.629L203.298 184.659L203.264 184.69L204.968 186.536ZM197.573 186.054L199.48 184.419L199.472 184.409L199.463 184.4L197.573 186.054ZM140.337 245.862V243.35C138.831 243.35 137.544 242.063 137.544 240.556H135.032H132.52C132.52 244.838 136.056 248.374 140.337 248.374V245.862ZM135.032 240.556H137.544V205.668H135.032H132.52V240.556H135.032ZM135.032 205.668H137.544C137.544 184.869 154.426 167.987 175.225 167.987V165.475V162.963C151.651 162.963 132.52 182.094 132.52 205.668H135.032ZM175.225 165.475V167.987C186.086 167.987 196.484 172.665 203.556 180.79L205.451 179.141L207.346 177.491C199.304 168.252 187.515 162.963 175.225 162.963V165.475ZM205.451 179.141L203.543 180.775C204.62 182.032 204.473 183.652 203.334 184.629L204.968 186.536L206.603 188.444C209.965 185.562 210.14 180.751 207.358 177.506L205.451 179.141ZM204.968 186.536L203.264 184.69C202.225 185.65 200.487 185.594 199.48 184.419L197.573 186.054L195.665 187.689C198.517 191.016 203.532 191.281 206.672 188.382L204.968 186.536ZM197.573 186.054L199.463 184.4C193.357 177.421 184.467 173.413 175.225 173.413V175.925V178.437C183.025 178.437 190.534 181.825 195.682 187.708L197.573 186.054ZM175.225 175.925V173.413C157.439 173.413 142.97 187.882 142.97 205.668H145.482H147.994C147.994 190.657 160.214 178.437 175.225 178.437V175.925ZM145.482 205.668H142.97V240.556H145.482H147.994V205.668H145.482ZM145.482 240.556H142.97C142.97 242.165 141.744 243.35 140.337 243.35V245.862V248.374C144.718 248.374 147.994 244.736 147.994 240.556H145.482ZM280.515 218.691L279.121 220.781L279.299 220.9L279.494 220.987L280.515 218.691ZM282.765 225.444L284.953 226.678L284.999 226.597L285.038 226.513L282.765 225.444ZM282.765 185.893L285.038 184.823L284.999 184.74L284.953 184.659L282.765 185.893ZM280.515 192.646L279.494 190.35L279.235 190.465L279.007 190.636L280.515 192.646ZM273.601 190.716L275.848 189.593L275.795 189.486L275.732 189.385L273.601 190.716ZM273.601 220.781L275.732 222.112L275.811 221.986L275.874 221.851L273.601 220.781ZM280.515 218.691L279.494 220.987C280.365 221.374 280.682 221.857 280.805 222.258C280.943 222.712 280.937 223.429 280.492 224.374L282.765 225.444L285.038 226.513C285.88 224.725 286.195 222.709 285.61 220.792C285.009 218.821 283.558 217.295 281.535 216.395L280.515 218.691ZM282.765 225.444L280.577 224.209C273.948 235.962 261.439 243.35 247.717 243.35V245.862V248.374C263.256 248.374 277.435 240.006 284.953 226.678L282.765 225.444ZM247.717 245.862V243.35C226.809 243.35 210.357 226.36 210.357 205.347H207.845H205.333C205.333 229.029 223.929 248.374 247.717 248.374V245.862ZM207.845 205.347H210.357C210.357 185.157 226.789 167.987 247.717 167.987V165.475V162.963C223.949 162.963 205.333 182.449 205.333 205.347H207.845ZM247.717 165.475V167.987C261.439 167.987 273.948 175.375 280.577 187.127L282.765 185.893L284.953 184.659C277.435 171.331 263.256 162.963 247.717 162.963V165.475ZM282.765 185.893L280.492 186.963C280.937 187.908 280.943 188.625 280.805 189.079C280.683 189.48 280.365 189.963 279.494 190.35L280.515 192.646L281.535 194.941C283.558 194.042 285.009 192.516 285.61 190.545C286.195 188.628 285.88 186.611 285.038 184.823L282.765 185.893ZM280.515 192.646L279.007 190.636C278.817 190.779 278.255 190.965 277.443 190.756C276.67 190.556 276.102 190.101 275.848 189.593L273.601 190.716L271.354 191.84C272.386 193.904 274.31 195.137 276.19 195.621C278.031 196.095 280.283 195.959 282.022 194.655L280.515 192.646ZM273.601 190.716L275.732 189.385C269.68 179.703 259.097 173.413 247.717 173.413V175.925V178.437C257.237 178.437 266.268 183.723 271.471 192.048L273.601 190.716ZM247.717 175.925V173.413C230.252 173.413 215.783 187.882 215.783 205.347H218.295H220.807C220.807 190.657 233.027 178.437 247.717 178.437V175.925ZM218.295 205.347H215.783C215.783 223.402 230.199 238.084 247.717 238.084V235.572V233.06C233.079 233.06 220.807 220.733 220.807 205.347H218.295ZM247.717 235.572V238.084C259.097 238.084 269.68 231.795 275.732 222.112L273.601 220.781L271.471 219.45C266.268 227.774 257.237 233.06 247.717 233.06V235.572ZM273.601 220.781L275.874 221.851C276.137 221.292 276.689 220.856 277.443 220.661C278.252 220.453 278.885 220.624 279.121 220.781L280.515 218.691L281.908 216.601C280.215 215.472 278.034 215.321 276.19 215.796C274.292 216.285 272.351 217.537 271.328 219.711L273.601 220.781Z" fill="white" mask="url(#path-2-outside-1_433_21869)"/>
</g>
<defs>
<clipPath id="clip0_433_21869">
<rect width="419.586" height="419.586" fill="white"/>
</clipPath>
</defs>
</svg>
