<svg width="510" height="55" viewBox="0 0 510 55" fill="none" xmlns="http://www.w3.org/2000/svg">
<g clip-path="url(#clip0_1691_5587)">
<path d="M9.59253 54.0491C14.4779 54.0491 18.4429 50.0841 18.4429 45.1987V36.3484H9.59253C4.70714 36.3484 0.742188 40.3133 0.742188 45.1987C0.742188 50.0841 4.70714 54.0491 9.59253 54.0491Z" fill="#0ACF83"/>
<path d="M0.742188 27.4985C0.742188 22.6131 4.70714 18.6482 9.59253 18.6482H18.4429V36.3489H9.59253C4.70714 36.3489 0.742188 32.3839 0.742188 27.4985Z" fill="#A259FF"/>
<path d="M0.742188 9.79736C0.742188 4.91197 4.70714 0.947021 9.59253 0.947021H18.4429V18.6477H9.59253C4.70714 18.6477 0.742188 14.6828 0.742188 9.79736Z" fill="#F24E1E"/>
<path d="M18.4434 0.947021H27.2937C32.1791 0.947021 36.144 4.91197 36.144 9.79736C36.144 14.6828 32.1791 18.6477 27.2937 18.6477H18.4434V0.947021Z" fill="#FF7262"/>
<path d="M36.144 27.4985C36.144 32.3839 32.1791 36.3489 27.2937 36.3489C22.4083 36.3489 18.4434 32.3839 18.4434 27.4985C18.4434 22.6131 22.4083 18.6482 27.2937 18.6482C32.1791 18.6482 36.144 22.6131 36.144 27.4985Z" fill="#1ABCFE"/>
</g>
<g clip-path="url(#clip1_1691_5587)">
<path d="M75.1287 34.3431C75.1287 37.344 72.6814 39.795 69.6801 39.795C66.6788 39.795 64.2285 37.344 64.2285 34.3431C64.2285 31.3422 66.6796 28.8911 69.6805 28.8911H75.1292L75.1287 34.3431ZM77.8754 34.3431C77.8754 31.3422 80.3265 28.8911 83.3274 28.8911C86.3282 28.8911 88.7793 31.3418 88.7793 34.3431V47.9904C88.7793 50.9913 86.3287 53.4423 83.3274 53.4423C80.3265 53.4423 77.8754 50.9913 77.8754 47.9904V34.3431Z" fill="#DE1C59"/>
<path d="M83.3274 12.4549C80.3265 12.4549 77.8754 10.0075 77.8754 7.00624C77.8754 4.00494 80.3265 1.55469 83.3274 1.55469C86.3282 1.55469 88.7793 4.00576 88.7793 7.00665V12.4553L83.3274 12.4549ZM83.3274 15.2016C86.3282 15.2016 88.7793 17.6526 88.7793 20.6535C88.7793 23.6544 86.3287 26.1055 83.3274 26.1055H69.6801C66.6792 26.1055 64.2285 23.6548 64.2285 20.6535C64.2285 17.6526 66.6796 15.2016 69.6805 15.2016H83.3274Z" fill="#35C5F0"/>
<path d="M105.215 20.6535C105.215 17.6526 107.662 15.2016 110.664 15.2016C113.665 15.2016 116.116 17.6526 116.116 20.6535C116.116 23.6544 113.665 26.1055 110.664 26.1055H105.215V20.6535ZM102.468 20.6535C102.468 23.6544 100.017 26.1055 97.0164 26.1055C94.0155 26.1055 91.5645 23.6548 91.5645 20.6535V7.00624C91.5645 4.00535 94.0151 1.55469 97.0164 1.55469C100.017 1.55469 102.468 4.00576 102.468 7.00665V20.6535Z" fill="#2EB57D"/>
<path d="M97.0164 42.5417C100.017 42.5417 102.468 44.9891 102.468 47.9904C102.468 50.9917 100.017 53.4423 97.0164 53.4423C94.0155 53.4423 91.5645 50.9913 91.5645 47.9904V42.5417H97.0164ZM97.0164 39.795C94.0155 39.795 91.5645 37.344 91.5645 34.3431C91.5645 31.3422 94.0151 28.8911 97.0164 28.8911H110.664C113.665 28.8911 116.116 31.3418 116.116 34.3431C116.116 37.344 113.665 39.795 110.664 39.795H97.0164Z" fill="#EBB02E"/>
</g>
<g clip-path="url(#clip2_1691_5587)">
<path d="M153.89 10.5608C155.512 11.8782 156.121 11.7782 159.169 11.5739L187.898 9.84992C188.506 9.84992 188 9.24121 187.798 9.14121L183.024 5.69114C182.11 4.98243 180.891 4.16937 178.556 4.37155L150.74 6.40202C149.727 6.50202 149.523 7.01073 149.927 7.41508L153.89 10.5608ZM155.614 17.2566V47.4833C155.614 49.1072 156.425 49.7159 158.254 49.6138L189.826 47.7876C191.654 47.6876 191.859 46.5702 191.859 45.2506V15.2261C191.859 13.9087 191.352 13.1978 190.232 13.2978L157.238 15.2261C156.021 15.3283 155.614 15.9392 155.614 17.2566ZM186.782 18.8762C186.985 19.7892 186.782 20.7023 185.869 20.8067L184.347 21.111V43.4245C183.026 44.1354 181.808 44.5419 180.793 44.5419C179.167 44.5419 178.76 44.0332 177.543 42.5136L167.593 26.8916V42.0049L170.741 42.718C170.741 42.718 170.741 44.5441 168.202 44.5441L161.197 44.9484C160.995 44.5441 161.197 43.5288 161.908 43.3267L163.734 42.8201V22.835L161.201 22.6306C160.997 21.7175 161.506 20.4001 162.925 20.298L170.439 19.7914L180.795 35.6156V21.6154L178.154 21.3132C177.952 20.1958 178.763 19.3849 179.778 19.2849L186.782 18.8762ZM148.405 3.66284L177.341 1.53236C180.893 1.228 181.808 1.43018 184.041 3.05413L193.278 9.54556C194.8 10.6608 195.309 10.9652 195.309 12.1826V47.7876C195.309 50.0181 194.498 51.3399 191.656 51.5399L158.051 53.5704C155.921 53.6725 154.903 53.3682 153.786 51.9464L146.984 43.1201C145.766 41.4962 145.26 40.281 145.26 38.8592V7.21073C145.26 5.38678 146.073 3.86284 148.405 3.66284Z" fill="black"/>
</g>
<g clip-path="url(#clip3_1691_5587)">
<path d="M263.488 13.9507H236.393V41.0457H263.488V13.9507Z" fill="white"/>
<path d="M263.486 53.2386L275.679 41.0457L269.582 40.0056L263.486 41.0457L262.373 46.6221L263.486 53.2386Z" fill="#EA4335"/>
<path d="M224.201 41.0457V49.1742C224.201 51.4199 226.02 53.2386 228.265 53.2386H236.394L237.646 47.1422L236.394 41.0457L229.751 40.0056L224.201 41.0457Z" fill="#188038"/>
<path d="M275.679 13.9505V5.82174C275.679 3.57629 273.86 1.75757 271.614 1.75757H263.486C262.744 4.78127 262.373 7.00647 262.373 8.43319C262.373 9.85977 262.744 11.6989 263.486 13.9505C266.182 14.7227 268.215 15.1088 269.582 15.1088C270.95 15.1088 272.982 14.7228 275.679 13.9505Z" fill="#1967D2"/>
<path d="M275.679 13.9507H263.486V41.0457H275.679V13.9507Z" fill="#FBBC04"/>
<path d="M263.488 41.0459H236.393V53.2388H263.488V41.0459Z" fill="#34A853"/>
<path d="M263.489 1.75757H228.266C226.02 1.75757 224.201 3.57629 224.201 5.82174V41.0455H236.394V13.9505H263.489V1.75757Z" fill="#4285F4"/>
<path d="M241.95 34.9697C240.937 34.2856 240.236 33.2865 239.854 31.9653L242.204 30.9968C242.417 31.8097 242.79 32.4396 243.322 32.8867C243.85 33.3338 244.494 33.554 245.246 33.554C246.014 33.554 246.675 33.3202 247.227 32.8528C247.779 32.3854 248.057 31.7893 248.057 31.068C248.057 30.3296 247.765 29.7267 247.183 29.2593C246.6 28.792 245.869 28.5583 244.995 28.5583H243.637V26.2316H244.856C245.608 26.2316 246.241 26.0283 246.756 25.6217C247.271 25.2155 247.528 24.6599 247.528 23.952C247.528 23.3222 247.298 22.8208 246.837 22.445C246.377 22.0689 245.794 21.8793 245.086 21.8793C244.395 21.8793 243.847 22.0623 243.44 22.4313C243.034 22.8014 242.729 23.2688 242.553 23.7895L240.226 22.8208C240.534 21.947 241.1 21.1748 241.93 20.5076C242.759 19.8404 243.82 19.5051 245.107 19.5051C246.058 19.5051 246.915 19.6881 247.674 20.0571C248.433 20.4264 249.029 20.9377 249.459 21.5881C249.889 22.2417 250.102 22.9732 250.102 23.7861C250.102 24.6158 249.903 25.317 249.503 25.8928C249.103 26.4685 248.612 26.9087 248.03 27.217V27.3558C248.782 27.6659 249.435 28.1754 249.919 28.8292C250.411 29.4896 250.658 30.2787 250.658 31.2001C250.658 32.1212 250.424 32.9443 249.957 33.6656C249.489 34.3871 248.843 34.956 248.023 35.3693C247.2 35.7825 246.275 35.9927 245.249 35.9927C244.06 35.9959 242.963 35.6538 241.95 34.9697ZM256.388 23.3051L253.807 25.1712L252.517 23.2138L257.147 19.8741H258.922V35.6267H256.388V23.3051Z" fill="#4285F4"/>
</g>
<g clip-path="url(#clip4_1691_5587)">
<path d="M307.996 46.405L310.614 50.9268C311.158 51.8789 311.94 52.627 312.858 53.171C315.487 49.8332 317.318 47.2719 318.349 45.487C319.395 43.6756 320.682 40.8423 322.208 36.9871C318.095 36.4457 314.978 36.175 312.858 36.175C310.823 36.175 307.706 36.4457 303.508 36.9871C303.508 38.041 303.78 39.095 304.324 40.0471L307.996 46.405Z" fill="#0066DA"/>
<path d="M353.521 53.171C354.439 52.627 355.221 51.8789 355.765 50.927L356.853 49.0571L362.055 40.0471C362.589 39.1156 362.87 38.0608 362.871 36.9871C358.648 36.4457 355.537 36.175 353.538 36.175C351.389 36.175 348.278 36.4457 344.205 36.9871C345.713 40.8635 346.982 43.6968 348.013 45.487C349.053 47.2931 350.889 49.8544 353.521 53.171Z" fill="#EA4335"/>
<path d="M333.19 17.9469C336.232 14.2726 338.329 11.4393 339.48 9.4471C340.407 7.8429 341.427 5.28154 342.54 1.76303C341.622 1.21903 340.568 0.947021 339.48 0.947021H326.9C325.812 0.947021 324.758 1.25311 323.84 1.76303C325.256 5.79834 326.457 8.67019 327.444 10.3786C328.535 12.2666 330.45 14.7894 333.19 17.9469Z" fill="#00832D"/>
<path d="M344.173 36.9871H322.209L312.859 53.171C313.777 53.715 314.831 53.987 315.919 53.987H350.463C351.551 53.987 352.605 53.6809 353.523 53.1707L344.173 36.9871Z" fill="#2684FC"/>
<path d="M333.19 17.9469L323.84 1.76318C322.922 2.30719 322.14 3.05503 321.596 4.00716L304.324 33.9269C303.79 34.8584 303.509 35.9132 303.508 36.9869H322.208L333.19 17.9469Z" fill="#00AC47"/>
<path d="M353.421 18.9669L344.785 4.00692C344.241 3.05479 343.459 2.30695 342.541 1.76294L333.191 17.9468L344.173 36.9869H362.839C362.839 35.9327 362.567 34.879 362.023 33.9269L353.421 18.9669Z" fill="#FFBA00"/>
</g>
<g clip-path="url(#clip5_1691_5587)">
<path d="M415.619 40.5318H394.488C393.104 40.5318 391.754 39.789 391.112 38.5401C390.37 37.0887 390.64 35.3672 391.787 34.2532L406.505 19.5362H395.939C393.036 19.5362 390.707 17.1733 390.707 14.3039H410.184C411.568 14.3039 412.918 15.0466 413.559 16.2956C414.302 17.7469 414.032 19.4685 412.884 20.5822L398.167 35.2997H410.353C413.256 35.2997 415.619 37.6626 415.619 40.5318ZM499.263 13.9329C496.225 13.9329 493.525 15.2493 491.634 17.3421C489.744 15.2493 487.044 13.9329 484.006 13.9329C478.403 13.9329 473.812 18.726 473.812 24.3293V40.5318C476.715 40.5318 479.044 38.1688 479.044 35.2997V24.2957C479.044 21.5951 481.137 19.2999 483.837 19.1988C486.672 19.0975 489.002 21.3588 489.002 24.1605V35.2997C489.002 38.2027 491.364 40.5318 494.234 40.5318V24.2618C494.234 21.5615 496.326 19.266 499.027 19.1649C501.862 19.0636 504.191 21.3252 504.191 24.1269V35.2658C504.191 38.1691 506.554 40.4979 509.423 40.4979V24.2959C509.457 18.726 504.866 13.9329 499.263 13.9329ZM442.082 27.4348C442.082 34.8946 436.04 40.9366 428.58 40.9366C421.121 40.9366 415.079 34.8946 415.079 27.4348C415.079 19.9749 421.121 13.9329 428.58 13.9329C436.04 13.9329 442.082 19.9749 442.082 27.4348ZM436.85 27.4348C436.85 22.8779 433.137 19.1649 428.58 19.1649C424.024 19.1649 420.31 22.8779 420.31 27.4348C420.31 31.9918 424.024 35.7048 428.58 35.7048C433.137 35.7048 436.85 31.9918 436.85 27.4348ZM471.179 27.4348C471.179 34.8946 465.137 40.9366 457.677 40.9366C450.217 40.9366 444.175 34.8946 444.175 27.4348C444.175 19.9749 450.217 13.9329 457.677 13.9329C465.137 13.9329 471.179 19.9749 471.179 27.4348M465.947 27.4348C465.947 22.8779 462.234 19.1649 457.677 19.1649C453.121 19.1649 449.407 22.8779 449.407 27.4348C449.407 31.9918 453.12 35.7048 457.677 35.7048C462.234 35.7048 465.947 31.9918 465.947 27.4348Z" fill="#0B5CFF"/>
</g>
<defs>
<clipPath id="clip0_1691_5587">
<rect width="35.4014" height="53.1021" fill="white" transform="translate(0.742188 0.947021)"/>
</clipPath>
<clipPath id="clip1_1691_5587">
<rect width="52.403" height="52.403" fill="white" transform="translate(63.9688 1.29663)"/>
</clipPath>
<clipPath id="clip2_1691_5587">
<rect width="52.1749" height="52.1749" fill="white" transform="translate(144.199 1.41064)"/>
</clipPath>
<clipPath id="clip3_1691_5587">
<rect width="51.4809" height="51.4809" fill="white" transform="translate(224.201 1.75757)"/>
</clipPath>
<clipPath id="clip4_1691_5587">
<rect width="59.3632" height="53.1023" fill="white" transform="translate(303.508 0.947021)"/>
</clipPath>
<clipPath id="clip5_1691_5587">
<rect width="118.726" height="27.1309" fill="white" transform="translate(390.697 13.9329)"/>
</clipPath>
</defs>
</svg>
