<svg width="277" height="277" viewBox="0 0 277 277" fill="none" xmlns="http://www.w3.org/2000/svg">
<path d="M138.017 23.0112C122.912 23.0112 107.955 25.9863 94.0002 31.7667C80.0452 37.5471 67.3653 46.0195 56.6846 56.7002C35.1139 78.2709 22.9956 107.527 22.9956 138.033C22.9956 188.872 56.0067 232.005 101.67 247.303C107.421 248.223 109.262 244.657 109.262 241.552V222.113C77.4007 229.015 70.6144 206.7 70.6144 206.7C65.3235 193.358 57.8471 189.792 57.8471 189.792C47.3801 182.661 58.6522 182.891 58.6522 182.891C70.1544 183.696 76.2505 194.738 76.2505 194.738C86.2574 212.221 103.165 207.045 109.722 204.285C110.757 196.809 113.747 191.748 116.968 188.872C91.4333 185.997 64.6333 176.105 64.6333 132.282C64.6333 119.514 69.0042 109.277 76.4805 101.111C75.3303 98.2352 71.3046 86.273 77.6308 70.7451C77.6308 70.7451 87.2925 67.6395 109.262 82.4773C118.348 79.9468 128.24 78.6816 138.017 78.6816C147.794 78.6816 157.686 79.9468 166.772 82.4773C188.741 67.6395 198.403 70.7451 198.403 70.7451C204.729 86.273 200.704 98.2352 199.553 101.111C207.03 109.277 211.401 119.514 211.401 132.282C211.401 176.22 184.486 185.881 158.836 188.757C162.977 192.323 166.772 199.339 166.772 210.036V241.552C166.772 244.657 168.613 248.338 174.479 247.303C220.142 231.89 253.038 188.872 253.038 138.033C253.038 122.928 250.063 107.971 244.283 94.0158C238.502 80.0608 230.03 67.3809 219.349 56.7002C208.669 46.0195 195.989 37.5471 182.034 31.7667C168.079 25.9863 153.122 23.0112 138.017 23.0112Z" fill="black"/>
</svg>
