<svg width="280" height="280" viewBox="0 0 280 280" fill="none" xmlns="http://www.w3.org/2000/svg">
<path d="M90.7227 23.2495H188.38C225.582 23.2495 255.809 53.4766 255.809 90.6792V188.336C255.809 206.22 248.705 223.371 236.06 236.016C223.414 248.662 206.263 255.766 188.38 255.766H90.7227C53.5201 255.766 23.293 225.539 23.293 188.336V90.6792C23.293 72.7958 30.3972 55.6447 43.0427 42.9992C55.6882 30.3537 72.8392 23.2495 90.7227 23.2495ZM88.3975 46.5011C77.2974 46.5011 66.652 50.9106 58.803 58.7596C50.9541 66.6085 46.5446 77.254 46.5446 88.3541V190.661C46.5446 213.797 65.2622 232.514 88.3975 232.514H190.705C201.805 232.514 212.45 228.105 220.299 220.256C228.148 212.407 232.558 201.761 232.558 190.661V88.3541C232.558 65.2187 213.84 46.5011 190.705 46.5011H88.3975ZM200.587 63.9399C204.441 63.9399 208.137 65.4709 210.863 68.1963C213.588 70.9216 215.119 74.6179 215.119 78.4721C215.119 82.3263 213.588 86.0227 210.863 88.748C208.137 91.4733 204.441 93.0044 200.587 93.0044C196.732 93.0044 193.036 91.4733 190.311 88.748C187.585 86.0227 186.054 82.3263 186.054 78.4721C186.054 74.6179 187.585 70.9216 190.311 68.1963C193.036 65.4709 196.732 63.9399 200.587 63.9399ZM139.551 81.3786C154.968 81.3786 169.753 87.5029 180.655 98.4042C191.556 109.306 197.68 124.091 197.68 139.508C197.68 154.924 191.556 169.71 180.655 180.611C169.753 191.512 154.968 197.637 139.551 197.637C124.134 197.637 109.349 191.512 98.4477 180.611C87.5463 169.71 81.422 154.924 81.422 139.508C81.422 124.091 87.5463 109.306 98.4477 98.4042C109.349 87.5029 124.134 81.3786 139.551 81.3786ZM139.551 104.63C130.301 104.63 121.43 108.305 114.889 114.846C108.348 121.386 104.674 130.258 104.674 139.508C104.674 148.758 108.348 157.629 114.889 164.17C121.43 170.711 130.301 174.385 139.551 174.385C148.801 174.385 157.672 170.711 164.213 164.17C170.754 157.629 174.429 148.758 174.429 139.508C174.429 130.258 170.754 121.386 164.213 114.846C157.672 108.305 148.801 104.63 139.551 104.63Z" fill="black"/>
</svg>
