<svg width="280" height="280" viewBox="0 0 280 280" fill="none" xmlns="http://www.w3.org/2000/svg">
<path d="M231.001 30.5229H48.0576C38.3845 30.5229 30.5371 38.3704 30.5371 48.0434V230.987C30.5371 240.66 38.3845 248.507 48.0576 248.507H231.001C240.674 248.507 248.521 240.66 248.521 230.987V48.0434C248.521 38.3704 240.674 30.5229 231.001 30.5229ZM231.001 231.068C108.984 231.041 47.9758 231.014 47.9758 230.987C48.0031 108.97 48.0303 47.9617 48.0576 47.9617C170.074 47.9889 231.082 48.0162 231.082 48.0434C231.055 170.06 231.028 231.068 231.001 231.068ZM62.8532 112.24H95.1966V216.273H62.8532V112.24ZM79.0386 98.0163C89.3656 98.0163 97.7852 89.6239 97.7852 79.2696C97.7852 76.8078 97.3003 74.3701 96.3582 72.0956C95.4161 69.8212 94.0352 67.7545 92.2944 66.0138C90.5536 64.273 88.487 62.8921 86.2126 61.95C83.9381 61.0079 81.5004 60.523 79.0386 60.523C76.5767 60.523 74.139 61.0079 71.8645 61.95C69.5901 62.8921 67.5235 64.273 65.7827 66.0138C64.0419 67.7545 62.661 69.8212 61.7189 72.0956C60.7768 74.3701 60.2919 76.8078 60.2919 79.2696C60.2647 89.6239 68.6571 98.0163 79.0386 98.0163ZM147.785 164.801C147.785 151.232 150.374 138.098 167.186 138.098C183.753 138.098 183.998 153.602 183.998 165.673V216.273H216.314V159.215C216.314 131.204 210.265 109.651 177.54 109.651C161.818 109.651 151.273 118.289 146.941 126.463H146.505V112.24H115.469V216.273H147.785V164.801Z" fill="black"/>
</svg>
