<svg width="312" height="47" viewBox="0 0 312 47" fill="none" xmlns="http://www.w3.org/2000/svg">
<g clip-path="url(#clip0_1686_5440)">
<path d="M8.1333 46.5254C12.3469 46.5254 15.7666 43.1057 15.7666 38.8921V31.2588H8.1333C3.91972 31.2588 0.5 34.6785 0.5 38.8921C0.5 43.1057 3.91972 46.5254 8.1333 46.5254Z" fill="#0ACF83"/>
<path d="M0.5 23.626C0.5 19.4124 3.91972 15.9927 8.1333 15.9927H15.7666V31.2593H8.1333C3.91972 31.2593 0.5 27.8396 0.5 23.626Z" fill="#A259FF"/>
<path d="M0.5 8.35889C0.5 4.1453 3.91972 0.725586 8.1333 0.725586H15.7666V15.9922H8.1333C3.91972 15.9922 0.5 12.5725 0.5 8.35889Z" fill="#F24E1E"/>
<path d="M15.7656 0.725586H23.3989C27.6125 0.725586 31.0322 4.1453 31.0322 8.35889C31.0322 12.5725 27.6125 15.9922 23.3989 15.9922H15.7656V0.725586Z" fill="#FF7262"/>
<path d="M31.0322 23.626C31.0322 27.8396 27.6125 31.2593 23.3989 31.2593C19.1853 31.2593 15.7656 27.8396 15.7656 23.626C15.7656 19.4124 19.1853 15.9927 23.3989 15.9927C27.6125 15.9927 31.0322 19.4124 31.0322 23.626Z" fill="#1ABCFE"/>
</g>
<path d="M97.1298 15.6136C96.5849 15.4267 96.0354 15.2535 95.4818 15.0942C95.5748 14.7142 95.6604 14.3388 95.7364 13.97C96.984 7.91384 96.1684 3.03484 93.3826 1.42844C90.7116 -0.111558 86.3434 1.49424 81.9318 5.33364C81.497 5.71269 81.0719 6.10269 80.6568 6.50324C80.3789 6.2369 80.0961 5.97572 79.8086 5.71984C75.185 1.61464 70.5506 -0.115558 67.7678 1.49544C65.0992 3.04024 64.309 7.62684 65.4322 13.3664C65.544 13.9349 65.6701 14.5004 65.8106 15.0624C65.1546 15.2488 64.5216 15.4472 63.9158 15.6584C58.495 17.5484 55.0332 20.5102 55.0332 23.5824C55.0332 26.7554 58.7496 29.938 64.3956 31.8678C64.8533 32.0236 65.3149 32.168 65.7798 32.3008C65.6289 32.9062 65.4948 33.5156 65.3778 34.1284C64.307 39.7684 65.1432 44.2466 67.8046 45.7816C70.5534 47.3668 75.167 45.7376 79.6592 41.8106C80.0234 41.4914 80.3797 41.1631 80.7276 40.826C81.1771 41.2598 81.6386 41.6809 82.1116 42.0888C86.4632 45.8332 90.7608 47.3452 93.4196 45.806C96.1658 44.2162 97.0584 39.4054 95.8996 33.5524C95.8083 33.0939 95.706 32.6376 95.5926 32.184C95.9166 32.088 96.2346 31.9892 96.5446 31.8864C102.414 29.9418 106.233 26.7978 106.233 23.5824C106.233 20.499 102.66 17.5172 97.1298 15.6136ZM95.8568 29.8104C95.5765 29.903 95.2899 29.9926 94.9968 30.0794C94.3488 28.028 93.4744 25.8468 92.4042 23.593C93.4254 21.393 94.2662 19.2396 94.896 17.2016C95.4198 17.3532 95.928 17.513 96.418 17.6816C101.156 19.3128 104.046 21.7242 104.046 23.5824C104.046 25.5616 100.925 28.131 95.8568 29.8104ZM93.754 33.9772C94.2664 36.5652 94.3394 38.9052 94 40.7346C93.6952 42.3784 93.082 43.4742 92.3236 43.9132C90.7102 44.8472 87.2596 43.6332 83.5382 40.4308C83.0983 40.0515 82.669 39.66 82.2508 39.2568C83.6936 37.679 85.1354 35.8448 86.5426 33.8076C89.0178 33.588 91.3562 33.2288 93.4768 32.7386C93.5815 33.1602 93.6739 33.5731 93.754 33.9772ZM72.4884 43.7518C70.912 44.3084 69.6564 44.3244 68.8974 43.8868C67.2824 42.9554 66.611 39.3596 67.5268 34.5364C67.6357 33.9665 67.7603 33.3997 67.9006 32.8366C69.9978 33.3006 72.3192 33.6342 74.8002 33.8354C76.217 35.8288 77.7004 37.661 79.1954 39.2654C78.8777 39.5728 78.5524 39.8724 78.22 40.1638C76.2334 41.9002 74.2428 43.1322 72.4884 43.7518ZM65.1032 29.7982C62.6066 28.9448 60.5448 27.8358 59.1316 26.6256C57.8616 25.5382 57.2206 24.4584 57.2206 23.5824C57.2206 21.718 60 19.34 64.6358 17.7238C65.1984 17.5278 65.7872 17.3428 66.3982 17.1692C67.039 19.2532 67.8794 21.4322 68.8936 23.6356C67.8662 25.8716 67.0138 28.0854 66.3668 30.194C65.9424 30.0725 65.5211 29.9405 65.1032 29.7982ZM67.5788 12.9462C66.6166 8.02884 67.2556 4.31944 68.8638 3.38844C70.5766 2.39684 74.3642 3.81064 78.3564 7.35544C78.6167 7.58711 78.8728 7.82348 79.1246 8.06444C77.637 9.66184 76.1672 11.4804 74.763 13.462C72.355 13.6852 70.05 14.0436 67.9308 14.5238C67.8002 14.0011 67.6828 13.4749 67.5788 12.9462ZM89.6642 18.4C89.1636 17.5354 88.6445 16.6817 88.1072 15.8394C89.7408 16.046 91.306 16.3202 92.7758 16.6554C92.3346 18.0698 91.7846 19.5484 91.1372 21.0644C90.664 20.1666 90.1729 19.2783 89.6642 18.4ZM80.6578 9.62784C81.6666 10.7208 82.677 11.941 83.6708 13.265C81.6548 13.1698 79.6354 13.1694 77.6194 13.2638C78.6142 11.952 79.6332 10.7334 80.6578 9.62784ZM71.5936 18.4148C71.0913 19.286 70.6093 20.1688 70.1482 21.0624C69.5114 19.5518 68.9664 18.0664 68.5214 16.632C69.9822 16.3052 71.54 16.038 73.1632 15.8352C72.6199 16.6827 72.0966 17.5429 71.5936 18.4148ZM73.2098 31.485C71.5328 31.2978 69.9516 31.0444 68.4912 30.7264C68.9432 29.2664 69.5002 27.7494 70.1508 26.2064C70.6138 27.1008 71.0977 27.9841 71.6022 28.8556C72.121 29.7516 72.6582 30.6292 73.2098 31.485ZM80.7182 37.691C79.6814 36.5726 78.6474 35.3352 77.6376 34.0044C78.618 34.0428 79.6174 34.0624 80.6332 34.0624C81.6768 34.0624 82.7084 34.039 83.7238 33.9938C82.7268 35.3486 81.7202 36.5878 80.7182 37.691ZM91.1578 26.1276C91.8422 27.6876 92.419 29.1966 92.877 30.6316C91.3926 30.9704 89.7898 31.2432 88.101 31.4458C88.6422 30.588 89.1662 29.7194 89.6728 28.8406C90.1879 27.9475 90.683 27.0429 91.1578 26.1276ZM87.7782 27.7478C87.0026 29.0951 86.1834 30.4168 85.322 31.7108C83.7615 31.8214 82.1976 31.8763 80.6332 31.8754C79.0398 31.8754 77.49 31.8258 75.9976 31.729C75.1136 30.438 74.2788 29.114 73.495 27.7598C72.7148 26.4129 71.9862 25.0368 71.3106 23.6344C71.9845 22.2318 72.7111 20.855 73.4886 19.507L73.4884 19.5072C74.2655 18.1589 75.0937 16.8405 75.971 15.555C77.4936 15.4398 79.055 15.3798 80.633 15.3798C82.2182 15.3798 83.7818 15.4404 85.304 15.5564C86.1725 16.84 86.9953 18.1538 87.771 19.4954C88.551 20.8405 89.2871 22.2106 89.9782 23.6034C89.2942 25.0105 88.5604 26.3929 87.7782 27.7478ZM92.2902 3.32304C94.0046 4.31184 94.6714 8.29924 93.5942 13.5282C93.5251 13.8621 93.4485 14.2014 93.3642 14.5462C91.2398 14.0558 88.9332 13.6912 86.5182 13.4646C85.1114 11.4612 83.6536 9.63984 82.1902 8.06304C82.5737 7.69336 82.9664 7.33325 83.3678 6.98304C87.1478 3.69364 90.6806 2.39484 92.2902 3.32304ZM80.6332 19.0104C83.1582 19.0104 85.2052 21.0574 85.2052 23.5824C85.2052 26.1074 83.1582 28.1544 80.6332 28.1544C78.1082 28.1544 76.0612 26.1074 76.0612 23.5824C76.0612 21.0574 78.1082 19.0104 80.6332 19.0104Z" fill="#00D8FF"/>
<g clip-path="url(#clip1_1686_5440)">
<mask id="mask0_1686_5440" style="mask-type:luminance" maskUnits="userSpaceOnUse" x="130" y="0" width="47" height="47">
<path d="M162.981 46.3728C163.348 46.5161 163.741 46.5823 164.135 46.5672C164.53 46.552 164.916 46.4559 165.272 46.2848L174.78 41.7098C175.269 41.474 175.683 41.1048 175.972 40.6446C176.261 40.1844 176.414 39.652 176.414 39.1085V8.08635C176.414 7.54289 176.261 7.01045 175.972 6.55029C175.683 6.09013 175.269 5.72094 174.78 5.48518L165.272 0.909986C164.735 0.651543 164.13 0.566467 163.543 0.666527C162.955 0.766588 162.413 1.04684 161.991 1.46851L143.789 18.0747L135.861 12.0563C135.503 11.7848 135.061 11.6471 134.613 11.667C134.164 11.687 133.737 11.8633 133.405 12.1655L130.862 14.4787C130.023 15.2413 130.023 16.5605 130.86 17.3244L137.736 23.5974L130.86 29.8702C130.023 30.6343 130.023 31.9533 130.862 32.7161L133.405 35.0291C133.737 35.3313 134.164 35.5077 134.613 35.5277C135.061 35.5477 135.503 35.41 135.861 35.1385L143.789 29.1199L161.991 45.7261C162.273 46.008 162.61 46.2283 162.981 46.3728ZM164.876 13.1136L151.065 23.5974L164.876 34.0811V13.1136Z" fill="white"/>
</mask>
<g mask="url(#mask0_1686_5440)">
<path d="M174.808 5.49227L165.293 0.910747C164.755 0.652015 164.151 0.566714 163.563 0.666646C162.975 0.766578 162.432 1.0468 162.01 1.46854L130.86 29.8703C130.022 30.6344 130.023 31.9533 130.862 32.7161L133.407 35.0292C133.739 35.3314 134.167 35.5078 134.616 35.5278C135.064 35.5478 135.506 35.4101 135.864 35.1385L173.376 6.68085C174.635 5.72626 176.442 6.6238 176.442 8.20338V8.0929C176.442 7.54955 176.289 7.01725 176 6.5572C175.711 6.09714 175.298 5.72802 174.808 5.49227Z" fill="#0065A9"/>
</g>
<mask id="mask1_1686_5440" style="mask-type:luminance" maskUnits="userSpaceOnUse" x="130" y="0" width="47" height="47">
<path d="M162.981 46.3728C163.348 46.5161 163.741 46.5823 164.135 46.5672C164.53 46.552 164.916 46.4559 165.272 46.2848L174.78 41.7098C175.269 41.474 175.683 41.1048 175.972 40.6446C176.261 40.1844 176.414 39.652 176.414 39.1085V8.08635C176.414 7.54289 176.261 7.01045 175.972 6.55029C175.683 6.09013 175.269 5.72094 174.78 5.48518L165.272 0.909986C164.735 0.651543 164.13 0.566467 163.543 0.666527C162.955 0.766588 162.413 1.04684 161.991 1.46851L143.789 18.0747L135.861 12.0563C135.503 11.7848 135.061 11.6471 134.613 11.667C134.164 11.687 133.737 11.8633 133.405 12.1655L130.862 14.4787C130.023 15.2413 130.023 16.5605 130.86 17.3244L137.736 23.5974L130.86 29.8702C130.023 30.6343 130.023 31.9533 130.862 32.7161L133.405 35.0291C133.737 35.3313 134.164 35.5077 134.613 35.5277C135.061 35.5477 135.503 35.41 135.861 35.1385L143.789 29.1199L161.991 45.7261C162.273 46.008 162.61 46.2283 162.981 46.3728ZM164.876 13.1136L151.065 23.5974L164.876 34.0811V13.1136Z" fill="white"/>
</mask>
<g mask="url(#mask1_1686_5440)">
<path d="M174.808 41.7026L165.293 46.2841C164.755 46.5427 164.151 46.628 163.563 46.528C162.975 46.4281 162.432 46.148 162.01 45.7263L130.86 17.3246C130.022 16.5607 130.023 15.2416 130.862 14.4789L133.407 12.1657C133.739 11.8635 134.167 11.6871 134.616 11.6672C135.065 11.6472 135.506 11.785 135.864 12.0565L173.376 40.514C174.635 41.4686 176.442 40.5711 176.442 38.9913V39.102C176.442 39.6453 176.289 40.1776 176 40.6377C175.711 41.0977 175.298 41.4669 174.808 41.7026Z" fill="#007ACC"/>
</g>
<mask id="mask2_1686_5440" style="mask-type:luminance" maskUnits="userSpaceOnUse" x="130" y="0" width="47" height="47">
<path d="M162.981 46.3728C163.348 46.5161 163.741 46.5823 164.135 46.5672C164.53 46.552 164.916 46.4559 165.272 46.2848L174.78 41.7098C175.269 41.474 175.683 41.1048 175.972 40.6446C176.261 40.1844 176.414 39.652 176.414 39.1085V8.08635C176.414 7.54289 176.261 7.01045 175.972 6.55029C175.683 6.09013 175.269 5.72094 174.78 5.48518L165.272 0.909986C164.735 0.651543 164.13 0.566467 163.543 0.666527C162.955 0.766588 162.413 1.04684 161.991 1.46851L143.789 18.0747L135.861 12.0563C135.503 11.7848 135.061 11.6471 134.613 11.667C134.164 11.687 133.737 11.8633 133.405 12.1655L130.862 14.4787C130.023 15.2413 130.023 16.5605 130.86 17.3244L137.736 23.5974L130.86 29.8702C130.023 30.6343 130.023 31.9533 130.862 32.7161L133.405 35.0291C133.737 35.3313 134.164 35.5077 134.613 35.5277C135.061 35.5477 135.503 35.41 135.861 35.1385L143.789 29.1199L161.991 45.7261C162.273 46.008 162.61 46.2283 162.981 46.3728ZM164.876 13.1136L151.065 23.5974L164.876 34.0811V13.1136Z" fill="white"/>
</mask>
<g mask="url(#mask2_1686_5440)">
<path d="M165.263 46.2875C164.725 46.5462 164.121 46.6313 163.533 46.5313C162.945 46.4313 162.402 46.151 161.98 45.7292C163.046 46.7941 164.867 46.0398 164.867 44.5334V2.66704C164.867 1.16063 163.046 0.406339 161.98 1.4714C162.402 1.04958 162.945 0.769253 163.533 0.669195C164.121 0.569136 164.725 0.654291 165.263 0.912882L174.777 5.48807C175.267 5.7237 175.68 6.09284 175.969 6.55301C176.259 7.01319 176.412 7.54569 176.412 8.08924V39.1115C176.412 40.2208 175.776 41.2321 174.777 41.7127L165.263 46.2875Z" fill="#1F9CF0"/>
</g>
<mask id="mask3_1686_5440" style="mask-type:luminance" maskUnits="userSpaceOnUse" x="130" y="0" width="47" height="47">
<path d="M162.981 46.3728C163.348 46.5161 163.741 46.5823 164.135 46.5672C164.53 46.552 164.916 46.4559 165.272 46.2848L174.78 41.7098C175.269 41.474 175.683 41.1048 175.972 40.6446C176.261 40.1844 176.414 39.652 176.414 39.1085V8.08635C176.414 7.54289 176.261 7.01045 175.972 6.55029C175.683 6.09013 175.269 5.72094 174.78 5.48518L165.272 0.909986C164.735 0.651543 164.13 0.566467 163.543 0.666527C162.955 0.766588 162.413 1.04684 161.991 1.46851L143.789 18.0747L135.861 12.0563C135.503 11.7848 135.061 11.6471 134.613 11.667C134.164 11.687 133.737 11.8633 133.405 12.1655L130.862 14.4787C130.023 15.2413 130.023 16.5605 130.86 17.3244L137.736 23.5974L130.86 29.8702C130.023 30.6343 130.023 31.9533 130.862 32.7161L133.405 35.0291C133.737 35.3313 134.164 35.5077 134.613 35.5277C135.061 35.5477 135.503 35.41 135.861 35.1385L143.789 29.1199L161.991 45.7261C162.273 46.008 162.61 46.2283 162.981 46.3728ZM164.876 13.1136L151.065 23.5974L164.876 34.0811V13.1136Z" fill="white"/>
</mask>
<g mask="url(#mask3_1686_5440)">
<path fill-rule="evenodd" clip-rule="evenodd" d="M164.135 46.567C163.741 46.5822 163.348 46.516 162.981 46.3727C162.61 46.2279 162.273 46.0077 161.991 45.726L143.789 29.1198L135.861 35.1384C135.503 35.4099 135.061 35.5475 134.613 35.5275C134.164 35.5076 133.737 35.3312 133.405 35.029L130.862 32.716C130.023 31.9532 130.023 30.6342 130.86 29.8701L137.736 23.5973L130.86 17.3243C130.023 16.5604 130.023 15.2412 130.862 14.4786L133.405 12.1654C133.737 11.8632 134.164 11.6869 134.613 11.6669C135.061 11.647 135.503 11.7847 135.861 12.0562L143.789 18.0746L161.991 1.4682C162.413 1.04657 162.955 0.766347 163.542 0.666288C164.13 0.566228 164.734 0.651282 165.272 0.909683L174.78 5.48505C175.269 5.72081 175.683 6.09001 175.972 6.55017C176.261 7.01033 176.414 7.54276 176.414 8.08623V39.1083C176.414 39.6518 176.261 40.1843 175.972 40.6444C175.682 41.1046 175.269 41.4738 174.78 41.7095L165.272 46.2847C164.916 46.4558 164.53 46.5519 164.135 46.567ZM151.065 23.5973L164.876 13.1133V34.0809L151.065 23.5973Z" fill="url(#paint0_linear_1686_5440)" fill-opacity="0.25"/>
</g>
</g>
<path d="M222.596 2.15845C219.707 2.15845 216.846 2.72749 214.177 3.8331C211.508 4.9387 209.082 6.55921 207.039 8.6021C202.914 12.7279 200.596 18.3237 200.596 24.1584C200.596 33.8824 206.91 42.1324 215.644 45.0584C216.744 45.2344 217.096 44.5524 217.096 43.9584V40.2404C211.002 41.5604 209.704 37.2924 209.704 37.2924C208.692 34.7404 207.262 34.0584 207.262 34.0584C205.26 32.6944 207.416 32.7384 207.416 32.7384C209.616 32.8924 210.782 35.0044 210.782 35.0044C212.696 38.3484 215.93 37.3584 217.184 36.8304C217.382 35.4004 217.954 34.4324 218.57 33.8824C213.686 33.3324 208.56 31.4404 208.56 23.0584C208.56 20.6164 209.396 18.6584 210.826 17.0964C210.606 16.5464 209.836 14.2584 211.046 11.2884C211.046 11.2884 212.894 10.6944 217.096 13.5324C218.834 13.0484 220.726 12.8064 222.596 12.8064C224.466 12.8064 226.358 13.0484 228.096 13.5324C232.298 10.6944 234.146 11.2884 234.146 11.2884C235.356 14.2584 234.586 16.5464 234.366 17.0964C235.796 18.6584 236.632 20.6164 236.632 23.0584C236.632 31.4624 231.484 33.3104 226.578 33.8604C227.37 34.5424 228.096 35.8844 228.096 37.9305V43.9584C228.096 44.5524 228.448 45.2564 229.57 45.0584C238.304 42.1104 244.596 33.8824 244.596 24.1584C244.596 21.2694 244.027 18.4086 242.921 15.7394C241.815 13.0702 240.195 10.645 238.152 8.6021C236.109 6.55921 233.684 4.9387 231.015 3.8331C228.346 2.72749 225.485 2.15845 222.596 2.15845Z" fill="black"/>
<g clip-path="url(#clip2_1686_5440)">
<path d="M273.844 2.62549C272.451 2.62549 271.116 3.17861 270.131 4.16318C269.147 5.14774 268.594 6.4831 268.594 7.87549V39.3755C268.594 40.7679 269.147 42.1032 270.131 43.0878C271.116 44.0724 272.451 44.6255 273.844 44.6255H305.344C306.736 44.6255 308.071 44.0724 309.056 43.0878C310.041 42.1032 310.594 40.7679 310.594 39.3755V7.87549C310.594 6.4831 310.041 5.14774 309.056 4.16318C308.071 3.17861 306.736 2.62549 305.344 2.62549H273.844ZM290.187 16.7611C288.654 16.7611 287.727 17.1916 287.727 18.3177C287.727 19.5462 289.321 20.087 291.297 20.759C294.521 21.8484 298.763 23.2869 298.781 28.6156C298.781 33.779 294.644 36.7505 288.622 36.7505C285.906 36.7391 283.22 36.1802 280.724 35.1072V28.2402C283.155 29.5685 286.223 30.5502 288.625 30.5502C290.245 30.5502 291.402 30.1171 291.402 28.7889C291.402 27.4291 289.675 26.807 287.588 26.0562C284.412 24.9117 280.406 23.468 280.406 18.6642C280.406 13.5586 284.312 10.5005 290.187 10.5005C292.642 10.4785 295.079 10.9286 297.364 11.8261V18.6065C295.164 17.4252 292.387 16.7611 290.187 16.7611Z" fill="#635BFF"/>
</g>
<defs>
<linearGradient id="paint0_linear_1686_5440" x1="2439.32" y1="0.625488" x2="2439.32" y2="4594.99" gradientUnits="userSpaceOnUse">
<stop stop-color="white"/>
<stop offset="1" stop-color="white" stop-opacity="0"/>
</linearGradient>
<clipPath id="clip0_1686_5440">
<rect width="30.5332" height="45.7998" fill="white" transform="translate(0.5 0.725586)"/>
</clipPath>
<clipPath id="clip1_1686_5440">
<rect width="46.3622" height="46" fill="white" transform="translate(130.232 0.625488)"/>
</clipPath>
<clipPath id="clip2_1686_5440">
<rect width="42" height="42" fill="white" transform="translate(268.596 2.62549)"/>
</clipPath>
</defs>
</svg>
