<svg width="574" height="576" viewBox="0 0 574 576" fill="none" xmlns="http://www.w3.org/2000/svg">
<path fill-rule="evenodd" clip-rule="evenodd" d="M266.743 0.283716C261.43 0.725449 259.78 1.10699 259.78 1.8952C259.78 2.41436 260.369 2.69679 261.451 2.69679C262.42 2.69679 263.119 2.98924 263.116 3.39309C263.113 3.77634 263.53 9.40353 264.043 15.8981C265.017 28.2131 264.898 29.4347 262.729 29.4347C262.282 29.4347 262.015 29.7332 262.136 30.0981C262.362 30.776 267.121 30.8234 270.781 30.1839C273.06 29.7862 273.232 28.3206 271 28.3206C269.161 28.3206 269.279 28.9529 268.059 12.6305C267.489 5.00183 267.496 3.18922 268.097 2.46451C268.5 1.97933 269.167 1.58272 269.579 1.58272C270.017 1.58272 270.195 1.23512 270.008 0.747157C269.832 0.287599 269.526 -0.046051 269.329 0.00519667C269.132 0.0570013 267.968 0.182335 266.743 0.283716ZM238.612 1.53593C238.612 1.81668 240.242 11.4601 242.233 22.9652C244.225 34.4703 245.854 44.1422 245.854 44.4575C245.854 45.1488 246.965 45.1933 247.989 44.5438C248.592 44.1617 248.068 40.0218 245.204 22.5519L241.676 1.03067L240.144 1.02846C239.302 1.02679 238.612 1.25519 238.612 1.53593ZM278.441 9.93831C278.251 10.2447 277.234 10.4953 276.18 10.4953C274.635 10.4953 274.263 10.7109 274.263 11.6094C274.263 12.4266 274.635 12.7235 275.656 12.7235H277.048V19.9606C277.048 26.5938 276.955 27.255 275.934 27.8928C273.143 29.6358 275.749 30.5164 281.087 29.6341C283.254 29.2759 284.069 27.7636 282.096 27.7636C281.097 27.7636 281.001 27.2645 280.842 21.2184C280.683 15.2608 280.771 14.5589 281.813 13.4025C282.442 12.7034 283.827 11.991 284.89 11.8183C288.677 11.2039 290.385 14.2481 290.396 21.6361C290.403 26 289.99 27.7636 288.959 27.7636C288.536 27.7636 288.189 28.1396 288.189 28.5991C288.189 29.2681 289.029 29.4347 292.407 29.4347C296.126 29.4347 296.604 29.3194 296.437 28.4599C296.333 27.9229 295.752 27.485 295.143 27.485C294.115 27.485 294.018 26.9993 293.755 20.5221C293.589 16.4323 293.18 13.0444 292.764 12.3113C291.117 9.41247 286.639 8.58804 282.897 10.4953C281.695 11.1081 280.639 11.6094 280.551 11.6094C280.463 11.6094 280.39 11.1081 280.39 10.4953C280.39 9.34227 279.046 8.95792 278.441 9.93831ZM301.006 10.3511C298.188 10.6914 297.307 12.7235 299.978 12.7235C301.062 12.7235 301.099 12.9452 300.761 17.3191C300.08 26.1331 299.843 27.3224 298.711 27.6182C298.132 27.7697 297.659 28.2248 297.659 28.6298C297.659 29.4453 301.469 30.2017 304.055 29.8998C306.053 29.6659 306.527 28.4704 304.794 28.0354L303.495 27.7095L304.058 21.0039C304.588 14.6993 304.705 14.252 306.014 13.5306C308.165 12.3453 311.231 12.5224 312.473 13.9033C313.392 14.926 313.518 15.8574 313.411 20.873C313.285 26.7904 312.732 28.8776 311.287 28.8776C310.838 28.8776 310.471 29.2186 310.471 29.6358C310.471 30.1338 311.472 30.5137 313.395 30.7448C318.183 31.3203 318.826 31.2311 318.826 29.9917C318.826 29.2798 318.455 28.8776 317.797 28.8776C316.84 28.8776 316.786 28.4069 317.017 22.0539C317.291 14.5305 316.895 12.7519 314.61 11.2546C312.73 10.023 308.19 10.0369 306.293 11.2791C304.965 12.1492 304.9 12.1392 304.9 11.0652C304.9 9.90322 304.827 9.88986 301.006 10.3511ZM327.461 13.5658C324.023 15.4313 321.955 18.456 321.295 22.5831C320.237 29.1974 325.897 34.7878 332.557 33.7072C340.708 32.3842 343.496 19.2682 336.66 14.4007C334.383 12.7792 329.695 12.3536 327.461 13.5658ZM194.924 14.1556C193.785 15.2953 193.819 16.2156 195.059 17.7458C195.798 18.6588 196.394 18.8888 197.286 18.6058C198.964 18.0733 199.466 15.7638 198.207 14.3724C197.012 13.0522 196.089 12.9914 194.924 14.1556ZM330.245 14.8464C324.872 15.8903 323.179 28.5167 328.062 31.1298C329.858 32.0907 332.647 31.9308 333.902 30.795C336.919 28.0644 337.63 19.1645 335.05 16.4189C333.72 15.0023 332.127 14.4809 330.245 14.8464ZM342.528 15.9153C342.085 17.0701 342.131 17.1798 343.057 17.1798C343.595 17.1798 343.893 17.719 343.893 18.6916C343.893 21.0679 346.761 35.7621 347.376 36.5369C347.68 36.9202 348.102 37.2332 348.314 37.2332C348.526 37.2332 351.182 33.7372 354.217 29.4642C357.815 24.3979 360.176 21.5843 361.005 21.3766C363 20.8758 362.521 19.5768 360.186 19.1534C359.038 18.9451 357.533 18.6393 356.844 18.4738C355.845 18.2343 355.591 18.412 355.591 19.3478C355.591 20.0475 355.947 20.5221 356.473 20.5221C356.958 20.5221 357.271 20.7382 357.169 21.0017C356.79 21.981 350.288 31.6456 350.003 31.6539C349.498 31.669 347.622 20.0976 347.978 19.1696C348.163 18.6877 348.698 18.2939 349.168 18.2939C349.637 18.2939 350.02 17.9658 350.02 17.5653C350.02 17.1291 348.578 16.4913 346.427 15.9766C343.324 15.2341 342.793 15.2257 342.528 15.9153ZM216.052 18.9462C209.823 21.2596 207.068 28.7512 210.311 34.5561C213.357 40.0084 219.313 41.2879 224.712 37.6505C227.166 35.9961 229.061 32.8577 228 32.2021C227.479 31.8801 226.947 32.2305 226.272 33.3407C224.178 36.7843 219.919 37.9 217.029 35.7621C212.743 32.592 211.471 25.297 214.649 22.118C216.059 20.7092 216.671 20.4831 218.686 20.629C220.838 20.7844 221.087 20.9565 221.347 22.4717C221.572 23.7802 221.921 24.1428 222.96 24.1428C223.689 24.1428 224.542 23.7384 224.854 23.2437C226.68 20.3494 220.456 17.3107 216.052 18.9462ZM365.485 22.4761C363.064 23.8409 362.706 27.2065 364.982 27.2065C366.236 27.2065 367.289 26.1387 367.289 24.867C367.289 23.3228 371.301 23.2955 372.998 24.828C374.126 25.8457 374.191 26.6762 373.376 29.6102C372.827 31.5921 372.676 31.7113 371.144 31.3748C361.857 29.335 355.53 34.4987 360.827 39.7956C362.355 41.3236 363.155 41.6896 364.969 41.6896C366.205 41.6896 367.89 41.4333 368.713 41.1203C370.055 40.61 370.18 40.6646 369.924 41.6456C369.69 42.5396 370.104 42.8989 372.183 43.6074C375.437 44.7159 375.644 44.7015 375.644 43.3607C375.644 42.6181 375.273 42.2466 374.53 42.2466C373.917 42.2466 373.416 42.0901 373.416 41.8984C373.416 41.7074 374.332 38.6944 375.451 35.2034C377.291 29.4637 377.423 28.6482 376.832 26.6779C375.661 22.7675 369.208 20.3783 365.485 22.4761ZM199.063 24.6999C198.024 25.4658 196.848 26.0924 196.448 26.0924C196.048 26.0924 195.72 26.6138 195.72 27.2505C195.72 28.2209 195.969 28.3568 197.252 28.0889C198.772 27.7714 198.801 27.8204 200.942 34.4971C202.798 40.2808 203.004 41.4066 202.409 42.5167C202.029 43.227 201.81 44.0458 201.923 44.3372C202.242 45.166 209.646 42.2249 209.646 41.269C209.646 40.7069 209.234 40.5242 208.349 40.6936C207.124 40.9275 206.885 40.4401 204.131 32.1246C202.525 27.275 201.152 23.3073 201.08 23.3073C201.009 23.3073 200.101 23.9339 199.063 24.6999ZM387.955 24.9717C386.913 25.8624 385.286 26.6673 384.338 26.7598C382.184 26.9703 381.774 28.4493 383.667 29.1812L385.043 29.7132L382.572 35.8161C379.097 44.3962 379.389 47.6638 383.737 48.8648C385.907 49.463 389.059 48.8252 390.094 47.5786C390.978 46.513 390.066 46.0813 388.112 46.6416C385.602 47.3619 384 46.5079 384 44.4508C384 42.5089 388.28 31.1058 389.009 31.1058C389.267 31.1058 390.647 31.6071 392.077 32.2199C395.242 33.5768 395.141 33.5746 395.141 32.2756C395.141 31.5108 394.368 30.9404 392.355 30.2162C390.823 29.6653 389.57 29.0442 389.57 28.8359C389.57 28.627 389.954 27.5374 390.424 26.4144C391.218 24.5138 391.142 23.2766 390.234 23.3301C390.022 23.3424 388.996 24.0815 387.955 24.9717ZM182.745 26.7353C182.574 28.0075 181.894 29.7795 181.234 30.6724C179.736 32.6984 180.095 34.2431 181.846 33.3061C182.496 32.9585 183.22 32.885 183.456 33.1429C183.691 33.4014 184.689 35.7432 185.676 38.3473C188.77 46.5157 190.261 48.374 193.722 48.374C195.94 48.374 199.62 44.5678 199.62 42.2744C199.62 41.0863 198.198 41.748 197.278 43.364C196.076 45.4769 193.485 45.6908 192.262 43.7785C191.062 41.9018 187.287 32.1742 187.505 31.5203C187.609 31.2078 188.811 30.5159 190.176 29.9828C191.54 29.4503 192.737 28.6075 192.837 28.1106C193.076 26.9135 191.917 26.9665 188.82 28.2939C187.425 28.8916 186.183 29.2052 186.062 28.9902C185.94 28.7752 185.537 27.6594 185.167 26.5102C184.269 23.7256 183.134 23.8309 182.745 26.7353ZM151.576 32.626C150.114 32.9747 149.713 35.3883 150.899 36.6985C152.067 37.9891 153.543 38.1072 154.474 36.9854C155.977 35.1744 153.912 32.0684 151.576 32.626ZM364.561 33.4465C360.278 35.7677 363.738 40.3298 368.92 39.1918C370.244 38.9005 370.714 38.3523 371.425 36.2679C371.905 34.8569 372.201 33.6041 372.08 33.4838C371.427 32.8309 365.749 32.8026 364.561 33.4465ZM174.755 34.1695C174.578 34.6291 173.824 35.0051 173.078 35.0051C169.617 35.0051 165.64 38.5785 165.64 41.6896C165.64 43.3122 167.071 45.9186 168.266 46.4723C168.813 46.7263 171.742 47.07 174.774 47.236C179.215 47.48 180.405 47.729 180.901 48.5183C181.843 50.0195 180.24 52.4086 177.735 53.2342C175.365 54.0151 173.596 53.5506 171.864 51.6912C169.886 49.5683 169.457 50.9654 171.074 54.2619C172.066 56.2851 172.861 57.2566 173.424 57.1312C173.892 57.0271 174.211 56.6433 174.135 56.279C174.05 55.8723 174.704 55.6155 175.827 55.6155C178.708 55.6155 182.401 53.4319 183.639 50.9966C184.609 49.0898 184.638 48.6832 183.936 46.8188C182.827 43.8704 180.263 42.6555 176.116 43.1128C170.308 43.7539 167.413 42.1146 169.028 39.0982C170.327 36.6701 173.921 36.4188 176.194 38.5974C177.726 40.0647 179.009 40.4501 179.009 39.443C179.009 38.3974 176.217 33.334 175.64 33.334C175.329 33.334 174.931 33.71 174.755 34.1695ZM400.891 35.3811C399.117 35.7431 394.872 39.6781 393.786 41.9653C391.63 46.5096 392.905 51.7458 396.809 54.3761C399.303 56.0567 400.762 56.3748 403.853 55.9113C405.914 55.6022 406.944 55.0062 409.04 52.9095C412.947 49.0024 413.81 44.4151 411.491 39.8769C409.957 36.8767 404.631 34.6174 400.891 35.3811ZM400.729 38.696C398.08 40.9247 396.608 44.2169 396.568 48.0036C396.537 50.8952 396.705 51.4015 398.096 52.5992C400.029 54.2631 402.819 54.3588 404.765 52.8281C407.005 51.0662 409.069 46.3837 409.049 43.1122C409.03 40.1326 408.437 38.9356 406.457 37.8811C404.518 36.8483 402.6 37.1213 400.729 38.696ZM155.66 43.9834C153.929 45.5314 153.375 46.3581 153.79 46.7731C154.205 47.1886 154.714 47.1842 155.508 46.7592C156.543 46.2055 156.884 46.6255 159.644 51.8605C163.434 59.0519 163.534 59.3349 162.728 60.6256C161.525 62.5512 162.844 62.5629 166.359 60.6573C168.262 59.6262 169.887 58.7327 169.971 58.6715C170.054 58.6102 169.967 58.1529 169.776 57.6549C169.501 56.9402 169.195 56.8744 168.322 57.3418C167.714 57.6677 167.153 57.8509 167.075 57.7495C166.997 57.6482 165.119 54.1812 162.901 50.0451C160.682 45.9091 158.7 42.358 158.494 42.1541C158.289 41.9502 157.013 42.773 155.66 43.9834ZM416.609 43.2247C416.408 43.7472 416.447 44.2464 416.694 44.3338C418.631 45.019 418.54 45.4941 415.426 50.9297C411.638 57.5407 410.851 58.5116 409.596 58.1133C409.06 57.9434 408.511 58.1501 408.344 58.5851C407.918 59.6942 415.209 63.7277 415.838 62.7312C416.107 62.3056 415.957 61.7742 415.462 61.4032C415.008 61.0628 414.637 60.62 414.637 60.4183C414.637 60.2172 415.881 57.8453 417.402 55.1476C419.177 51.9987 420.682 50.0078 421.606 49.5867C423.573 48.6904 427.061 48.7177 426.735 49.6274C426.349 50.7047 427.378 52.2733 428.471 52.2733C430.824 52.2733 431.507 49.7505 429.616 48.0426C428.716 47.2304 427.664 46.9959 425.129 47.0438C422.539 47.0928 421.885 46.9413 422.127 46.3475C422.297 45.9303 422.588 45.2128 422.774 44.7533C423.024 44.1355 422.726 43.9177 421.632 43.9177C420.818 43.9177 419.437 43.5478 418.563 43.0961C417.123 42.3513 416.94 42.3636 416.609 43.2247ZM147.582 47.9992C146.869 48.7122 145.955 50.2111 145.55 51.3302L144.814 53.3645L143.904 51.9764L142.993 50.5882L140.635 52.9C138.936 54.565 138.446 55.3816 138.882 55.8177C139.318 56.2539 139.78 56.24 140.535 55.7687C141.482 55.1777 141.938 55.6963 145.256 61.1408C148.95 67.2014 149.378 68.3132 148.395 69.2953C148.102 69.5889 148.039 70.1158 148.256 70.4662C148.821 71.3775 155.669 67.3106 155.44 66.1993C155.268 65.3604 154.932 65.3047 153.385 65.8595C152.789 66.0728 151.712 64.7086 149.625 61.0974C146.597 55.8556 146.199 54.087 147.512 51.7163C148.125 50.61 148.719 50.3237 150.404 50.3237C152 50.3237 152.573 50.0758 152.722 49.3221C153.238 46.7152 149.761 45.8206 147.582 47.9992ZM438.956 65.5052C427.952 81.5368 426.544 83.8301 427.327 84.4423C427.818 84.8256 428.402 85.1386 428.627 85.1386C428.851 85.1386 434.483 77.3055 441.141 67.7311C447.799 58.1573 453.434 50.073 453.662 49.7666C453.891 49.4603 453.493 48.7718 452.777 48.237L451.476 47.2639L438.956 65.5052ZM130.892 59.2931C129.277 61.182 128.891 61.9808 129.364 62.4543C129.838 62.9278 130.231 62.8548 130.92 62.1657C131.778 61.3074 132.107 61.6154 135.651 66.6054C137.745 69.5543 139.459 72.1986 139.459 72.4805C139.459 72.7629 139.066 73.8235 138.585 74.8373C137.485 77.1551 134.942 78.3511 133.151 77.3924C132.196 76.8816 125.651 68.6603 123.222 64.9214C123.021 64.6123 121.839 65.4372 120.566 66.7758C118.973 68.4497 118.45 69.3649 118.853 69.7682C119.256 70.1715 119.749 70.1526 120.464 69.7058C121.375 69.1371 121.855 69.5655 124.596 73.3934C126.301 75.7759 128.628 78.5422 129.765 79.5409C131.527 81.0878 132.129 81.309 133.823 81.0344C136.487 80.6021 138.385 79.1332 139.77 76.4315C140.692 74.6334 141.089 74.3042 141.796 74.7504C143.106 75.5765 147.574 71.9864 146.639 70.8595C146.077 70.1827 145.845 70.1966 145.002 70.9592C144.082 71.792 143.679 71.3708 138.622 64.2892C135.653 60.1314 133.185 56.738 133.138 56.748C133.092 56.758 132.081 57.9033 130.892 59.2931ZM464.614 66.0416C462.977 67.0905 460.864 70.8271 460.881 72.642C460.887 73.2347 461.789 75.85 462.885 78.4541C465.762 85.2846 466.161 87.0259 465.317 89.0641C462.935 94.8138 454.41 91.9445 453.759 85.1737C453.563 83.1388 453.744 81.9835 454.418 80.9541C455.368 79.5047 455.198 78.4525 454.015 78.4564C453.65 78.4575 452.133 79.9654 450.645 81.8075C448.388 84.5983 448.054 85.2963 448.634 85.9959C449.017 86.4571 449.763 86.6978 450.292 86.5295C450.983 86.3101 451.452 86.7 451.954 87.9121C453.323 91.2193 459.179 95.1653 462.716 95.1653C466.698 95.1653 470.639 90.7436 470.163 86.8097C470.033 85.7374 468.892 82.4286 467.627 79.4574C466.363 76.4861 465.328 73.4347 465.328 72.6765C465.328 71.9184 465.976 70.5269 466.77 69.5844C468.798 67.1741 471.325 67.2259 474.062 69.7348C475.815 71.3408 476.097 71.939 476.094 74.0519C476.092 75.401 475.681 77.2938 475.18 78.2586C474.419 79.7253 474.393 80.1158 475.024 80.6394C475.618 81.1329 476.395 80.5531 478.688 77.9066C481.577 74.5716 482.092 72.5713 479.951 72.994C479.302 73.1227 478.482 72.4153 477.502 70.8801C475.24 67.339 472.457 65.4852 469.047 65.249C466.965 65.1047 465.732 65.3253 464.614 66.0416ZM106.957 70.5197C106.744 70.8639 106.732 72.1601 106.931 73.4007C107.151 74.776 107.015 76.3229 106.584 77.3646C105.627 79.6752 106.604 80.7937 108.265 79.2897C108.935 78.6836 109.588 78.4703 109.848 78.7739C110.091 79.0574 111.96 81.3251 114.001 83.8134C116.042 86.3017 118.334 88.7454 119.096 89.2445C122.768 91.6504 127.075 89.1749 127.619 84.3454C127.856 82.2431 127.747 81.7964 126.998 81.7964C126.401 81.7964 126.09 82.2732 126.09 83.189C126.09 84.9715 124.145 86.9295 122.597 86.7044C121.434 86.5357 112.745 77.0782 112.729 75.9625C112.725 75.6645 113.787 74.4953 115.089 73.3645C116.952 71.7463 117.313 71.1608 116.785 70.6161C116.253 70.0685 115.58 70.3609 113.553 72.0215L110.994 74.1187L109.169 72.0064C108.016 70.6723 107.201 70.1247 106.957 70.5197ZM100.718 83.0497C100.51 83.7388 99.8194 84.8701 99.1844 85.5636C98.307 86.5223 98.1856 86.9796 98.6786 87.4726C99.171 87.965 99.5665 87.9032 100.327 87.2147C101.269 86.3624 101.584 86.5863 105.632 90.9736C108.904 94.5191 109.936 96.0204 109.936 97.2281C109.936 100.313 106.938 102.86 104.644 101.723C104.032 101.419 101.113 98.7855 98.1589 95.87C93.2324 91.0093 91.5541 90.0356 91.5541 92.0376C91.5541 92.4253 90.9307 93.3288 90.1681 94.0445C89.0953 95.0528 88.9248 95.5174 89.4128 96.1056C89.942 96.7434 90.1904 96.7306 90.9675 96.0276C91.8064 95.2684 92.3005 95.6065 96.3184 99.6901C101.44 104.896 103.203 105.986 105.728 105.513C108.401 105.012 111.607 101.211 111.607 98.5443C111.607 97.3116 112.415 97.0036 113.031 98.0012C113.265 98.3783 114.222 97.8129 115.557 96.5089C117.227 94.8784 117.568 94.2423 117.084 93.6597C116.565 93.0347 116.302 93.053 115.509 93.7705C114.633 94.5637 114.176 94.2429 109.784 89.7464C107.158 87.0587 104.471 84.171 103.812 83.3282C102.358 81.47 101.229 81.368 100.718 83.0497ZM477.096 85.8895C476.62 86.4627 476.738 86.8811 477.595 87.6564C478.705 88.6613 478.662 88.7282 473.415 94.0691C468.641 98.9276 468.113 99.6712 468.113 101.53C468.113 104.175 468.856 105.529 470.887 106.579C472.892 107.616 477.221 107.73 476.891 106.738C476.766 106.363 475.869 105.894 474.898 105.695C472.646 105.235 471.455 104.241 471.455 102.824C471.455 101.82 480.568 91.8231 481.482 91.8231C481.678 91.8231 482.903 92.7338 484.203 93.8474C485.971 95.3614 486.728 95.7118 487.202 95.2377C487.676 94.7637 487.244 94 485.487 92.2102L483.139 89.8166L484.817 88.209C486.496 86.6009 487.014 85.1386 485.906 85.1386C485.582 85.1386 484.169 85.4277 482.765 85.7814C480.837 86.2666 479.961 86.2666 479.184 85.7814C477.894 84.976 477.852 84.9782 477.096 85.8895ZM73.4074 96.4187C70.4194 99.8656 67.4682 103.252 66.8488 103.946C65.9397 104.964 65.8589 105.34 66.4316 105.896C66.9975 106.445 67.3256 106.35 68.0564 105.422C68.9572 104.278 69.1132 104.383 77.8954 112.014C88.0976 120.879 88.6992 121.551 87.7684 123.043C87.276 123.831 87.276 124.176 87.7701 124.481C88.1634 124.725 89.4919 123.69 91.1368 121.861C95.0289 117.533 95.7408 116.397 95.0161 115.673C94.5838 115.24 94.0273 115.519 93.0486 116.657L91.6833 118.244L89.2513 116.202C87.9138 115.079 85.8349 113.311 84.6323 112.274L82.4454 110.388L83.9855 108.369C85.782 106.014 87.1445 105.437 88.8079 106.327C89.6033 106.753 90.1882 106.781 90.5592 106.41C90.9296 106.039 90.3252 105.139 88.7488 103.713C84.9537 100.279 84.3967 99.9726 83.4224 100.781C82.6877 101.391 82.7746 101.636 84.102 102.694L85.6244 103.908L83.4798 106.473C82.3005 107.884 81.0656 108.879 80.7352 108.684C78.5834 107.412 72.6147 101.509 72.6147 100.653C72.6147 99.1276 77.7172 94.0512 79.2502 94.0512C79.9487 94.0512 81.2455 94.4796 82.1323 95.0038C83.35 95.7229 83.902 95.7987 84.3872 95.3135C84.8724 94.8283 84.5777 94.2886 83.1823 93.1076C80.4957 90.8349 79.6234 90.1898 79.2089 90.1698C79.0062 90.1598 76.3953 92.9723 73.4074 96.4187ZM488.271 97.7739C487.71 97.9984 487.774 98.3243 488.55 99.1838C489.535 100.276 489.501 100.353 487.052 102.547C479.899 108.953 478.103 110.225 477.027 109.649C475.447 108.803 475.094 109.948 476.382 111.741C478.509 114.7 480.879 116.601 481.573 115.907C482.056 115.424 482.026 115.039 481.449 114.344C480.771 113.526 481.187 112.958 485.121 109.329C488.898 105.846 489.849 105.239 491.508 105.253C494.718 105.281 495.623 105.885 495.656 108.023C495.682 109.665 495.892 109.951 497.181 110.1C499.087 110.32 500.219 108.568 499.291 106.833C498.438 105.24 495.444 103.525 493.511 103.523C491.938 103.521 491.921 103.49 492.882 102.427C493.948 101.25 493.696 99.6216 492.448 99.6216C492.026 99.6216 491.227 99.1203 490.673 98.5076C489.619 97.3439 489.465 97.296 488.271 97.7739ZM498.719 113.461C497.898 114.126 497.577 114.818 497.809 115.423C498.344 116.819 499.776 117.142 500.903 116.122C502.371 114.794 503.489 115.01 505.106 116.933C506.956 119.131 506.921 119.769 504.819 122.162C502.995 124.241 501.702 124.658 501.194 123.332C500.732 122.13 495.371 118.628 493.396 118.238C489.663 117.501 486.704 120.751 487.702 124.492C488.244 126.529 491.599 129.702 493.21 129.702C494.077 129.702 494.248 129.972 494.003 130.955C493.57 132.698 496.467 136.183 497.894 135.636C498.866 135.263 498.866 135.21 497.892 134.134C497.299 133.479 497.095 132.836 497.398 132.578C497.682 132.337 499.88 130.661 502.283 128.855C504.685 127.048 507.129 124.962 507.714 124.218C510 121.312 508.453 116.456 504.364 113.7C502.087 112.166 500.406 112.094 498.719 113.461ZM51.6165 119.61C51.0762 120.476 51.128 120.823 51.8962 121.477C53.247 122.627 86.7145 146.134 87.0014 146.134C87.1328 146.134 87.5757 145.629 87.9862 145.011C88.6898 143.951 87.755 143.198 71.2121 131.489C61.5764 124.669 53.3751 118.968 52.9863 118.819C52.5981 118.67 51.982 119.026 51.6165 119.61ZM491.873 121.808C490.57 123.248 490.729 125.074 492.296 126.641C494.452 128.797 496.215 128.954 498.521 127.195L500.51 125.678L498.934 124.019C497.243 122.241 494.834 120.789 493.572 120.789C493.145 120.789 492.38 121.248 491.873 121.808ZM512.712 126.337C512.176 126.669 512.153 127.054 512.618 127.923C512.957 128.555 513.233 129.2 513.233 129.359C513.233 129.516 510.643 131.409 507.478 133.563C500.121 138.571 498.84 141.106 501.854 144.688C503.176 146.259 507.354 148.022 508.066 147.309C508.659 146.716 507.663 145.299 506.652 145.299C506.077 145.299 505.163 144.808 504.619 144.207C502.769 142.163 503.855 140.623 510.103 136.43L515.869 132.562L517.765 135.283C519.148 137.266 519.871 137.873 520.437 137.524C521.062 137.137 520.853 136.484 519.36 134.158C517.365 131.049 517.295 131.324 520.593 129.3C522.753 127.974 521.704 126.978 518.525 127.336C516.826 127.528 515.625 127.344 514.73 126.758C513.988 126.272 513.113 126.089 512.712 126.337ZM50.6874 144.801C49.8446 146.3 49.0308 147.527 48.8793 147.527C48.7283 147.527 47.6315 146.967 46.4422 146.283C45.2535 145.599 44.0865 145.233 43.8492 145.47C43.6119 145.707 44.0079 146.981 44.7288 148.3C45.561 149.824 45.9364 151.237 45.7576 152.173C45.5838 153.081 45.7871 153.906 46.2857 154.32C46.9419 154.864 47.2867 154.74 48.0961 153.666L49.0959 152.34L52.9178 154.598C59.1076 158.255 61.3113 159.225 63.428 159.225C67.1574 159.225 69.1154 155.329 67.8175 150.49C67.266 148.434 65.8411 149.548 66.2478 151.717C66.5157 153.146 66.328 153.814 65.3972 154.745C63.9182 156.224 63.1968 156.038 57.1708 152.63C50.1566 148.663 50.5058 149.116 52.2137 146.202C53.8653 143.384 53.9856 142.752 52.9479 142.354C52.5045 142.184 51.6199 143.141 50.6874 144.801ZM516.511 143.839C509.904 146.2 507.123 152.114 509.91 157.873C511.17 160.475 514.265 162.913 517.007 163.461C518.399 163.74 518.803 163.63 518.803 162.975C518.803 162.511 518.196 161.978 517.454 161.792C515.376 161.271 512.819 158.839 512.12 156.721C511.601 155.15 511.658 154.455 512.44 152.809C513.338 150.916 516.367 148.072 517.463 148.094C517.74 148.1 519.436 150.608 521.23 153.668C523.025 156.729 524.678 159.347 524.905 159.487C525.631 159.936 528.745 156.436 529.408 154.425C530.609 150.787 528.282 146.212 524.234 144.252C521.463 142.911 519.416 142.801 516.511 143.839ZM520.2 146.963C520.013 147.266 520.904 149.3 522.179 151.484L524.498 155.454L525.787 154.137C527.803 152.076 527.805 150.058 525.793 147.887C524.386 146.368 520.921 145.796 520.2 146.963ZM43.007 157.685C42.9602 158.072 42.8944 158.686 42.8604 159.048C42.8265 159.41 42.2694 160.288 41.6222 160.998C39.8697 162.92 39.1923 164.5 39.1923 166.666C39.1923 169.086 41.352 171.811 43.6743 172.321C45.4897 172.72 47.9128 171.484 52.4655 167.839C55.3075 165.564 56.8082 165.397 57.6571 167.261C58.4765 169.058 57.9317 170.971 56.0712 172.832C54.7945 174.108 54.1561 174.327 52.168 174.169C48.5478 173.881 48.6375 175.136 52.3552 176.78C55.4813 178.163 56.787 178.147 56.2444 176.733C56.0835 176.314 56.2166 175.809 56.5391 175.609C56.8622 175.409 57.8543 174.099 58.7433 172.697C60.986 169.16 60.9815 165.888 58.7316 163.638C56.4232 161.33 53.9366 161.424 50.7944 163.94C49.4681 165.002 47.3078 166.535 45.9938 167.349C43.6943 168.771 43.5629 168.789 42.5123 167.839C40.9353 166.412 41.1598 164.414 43.1161 162.457C44.6073 160.966 45.073 160.803 46.982 161.108C50.3838 161.652 50.1426 160.54 46.455 158.678C44.1784 157.529 43.0643 157.208 43.007 157.685ZM527.707 162.469C526.573 163.062 525.296 164.399 524.634 165.683C523.539 167.809 523.456 167.855 522.089 167.088C520.213 166.035 517.826 166.672 517.02 168.439C516.527 169.522 516.136 169.736 515.229 169.416C513.101 168.669 510.837 169.058 509.789 170.352C506.645 174.235 511.328 185.253 516.905 187.094C519.128 187.827 522.268 186.701 523.282 184.807C524.202 183.087 523.636 179.024 521.901 174.902C520.367 171.259 520.126 169.533 521.067 168.951C521.817 168.488 523.676 170.143 524.146 171.693C524.342 172.341 525.113 173.687 525.86 174.683C529.183 179.118 535.533 179.441 537.979 175.299C539.166 173.291 541.443 173.213 541.24 175.187C541.082 176.727 542.383 177.8 543.843 177.337C546.489 176.498 543.924 172.037 540.795 172.037C539.732 172.037 539.482 171.647 539.158 169.487C538.679 166.294 535.741 162.837 532.814 162.024C530.118 161.275 529.961 161.289 527.707 162.469ZM531.254 165.445C529.267 165.974 526.045 169.328 526.045 170.867C526.045 172.739 528.198 174.822 530.133 174.822C532.347 174.822 535.942 172.451 536.683 170.502C537.924 167.238 534.943 164.462 531.254 165.445ZM24.5701 170.967C23.3908 171.654 23.2905 173.876 24.3974 174.794C24.838 175.16 25.9036 175.378 26.7648 175.28C28.8788 175.038 29.2704 172.564 27.4026 171.255C25.9287 170.223 25.8602 170.216 24.5701 170.967ZM512.599 172.604C510.186 174.013 511.115 179.29 514.379 182.721C515.492 183.892 516.925 184.849 517.563 184.849C519.013 184.849 520.474 183.437 520.474 182.036C520.474 180.749 517.91 173.81 517.053 172.777C516.343 171.921 513.928 171.827 512.599 172.604ZM34.4815 175.518C34.3611 175.902 34.1027 177.406 33.9077 178.861C33.6225 180.995 33.715 181.506 34.3857 181.506C34.8435 181.506 35.3772 181.005 35.5716 180.392C35.9348 179.248 36.4907 178.99 37.1575 179.657C37.3658 179.865 40.2273 181.192 43.5166 182.605C48.8375 184.892 49.5171 185.342 49.6736 186.683C49.97 189.218 51.2016 188.376 52.8415 184.517C54.1271 181.491 54.2664 180.758 53.628 180.363C53.105 180.04 52.6694 180.214 52.2895 180.899C51.7664 181.841 51.1208 181.657 43.3701 178.369C38.7746 176.419 34.9438 174.823 34.858 174.823C34.7717 174.823 34.6023 175.136 34.4815 175.518ZM551.223 177.719C549.232 179.709 551.629 182.768 554.245 181.576C555.816 180.86 556.124 177.94 554.687 177.388C553.309 176.86 551.953 176.989 551.223 177.719ZM540.919 179.63C540.726 179.824 540.829 180.471 541.149 181.07C541.844 182.368 542.129 182.13 538.021 183.691C536.183 184.389 533.124 185.556 531.223 186.283C528.178 187.448 527.669 187.507 526.945 186.784C526.082 185.92 524.931 185.681 524.931 186.367C524.931 186.589 525.589 188.449 526.394 190.5C527.433 193.148 528.086 194.142 528.646 193.927C529.079 193.76 529.361 193.108 529.271 192.478C529.13 191.484 530.201 190.893 537.325 188.03C541.859 186.208 545.541 184.411 545.541 184.021C545.541 183.632 545.139 182.98 544.648 182.573C544.156 182.164 543.536 181.256 543.269 180.554C542.804 179.333 541.664 178.884 540.919 179.63ZM21.1783 183.038C21.0384 183.268 20.8357 184.685 20.7276 186.187C20.5911 188.088 20.7543 188.994 21.2646 189.17C21.6729 189.311 22.1336 188.902 22.3046 188.249C22.4734 187.604 22.821 187.077 23.0772 187.077C23.6649 187.077 43.1847 194.588 44.687 195.392C45.2986 195.719 45.879 196.552 45.9771 197.242C46.0751 197.932 46.391 198.496 46.679 198.496C47.2176 198.496 49.7761 192.416 49.7761 191.135C49.7761 190.162 48.6475 190.23 47.8877 191.249C47.3574 191.96 45.5014 191.406 34.8335 187.349C21.972 182.458 21.6022 182.342 21.1783 183.038ZM538.853 192.587C535.914 193.532 533.824 194.963 532.467 196.96C529.102 201.912 531.911 210.042 537.603 211.826C539.495 212.419 539.194 210.912 537.183 209.724C535.177 208.539 533.843 206.159 533.843 203.762C533.843 199.857 538.476 196.38 543.775 196.308C546.46 196.272 546.904 196.446 548.402 198.122C549.712 199.587 550.024 200.4 549.889 201.999C549.752 203.634 549.452 204.085 548.326 204.346C547.418 204.557 546.869 205.12 546.747 205.964C546.305 209.034 549.996 208.896 551.479 205.787C553.279 202.012 550.813 195.832 546.655 193.696C544.289 192.481 540.747 191.977 538.853 192.587ZM26.8712 198.498C22.6667 200.783 22.3464 210.028 26.4278 211.323C28.0755 211.846 29.6625 210.27 28.8247 208.943C28.495 208.419 27.6215 207.85 26.8846 207.678C25.8585 207.438 25.5031 206.937 25.3672 205.537C24.9962 201.717 27.5998 200.127 31.8183 201.597C33.4114 202.153 33.4899 202.307 33.0153 203.961C30.8317 211.574 35.4986 218.489 40.5755 215.162C42.2433 214.07 43.896 209.944 43.3807 208.16C43.173 207.441 42.8811 206.413 42.7312 205.877C42.5402 205.191 42.7786 204.902 43.5389 204.902C45.0067 204.902 46.4985 200.064 45.2674 199.293C44.7104 198.945 44.3322 199.161 43.9567 200.042C43.667 200.724 43.3974 201.342 43.3579 201.416C43.3183 201.491 40.6863 200.676 37.509 199.606C31.2445 197.496 29.1211 197.275 26.8712 198.498ZM35.0803 203.538C34.8909 204.032 34.736 205.755 34.736 207.368C34.736 210.542 35.7961 212.144 37.8967 212.144C39.8692 212.144 40.9481 210.329 40.7571 207.333C40.6133 205.08 40.3543 204.526 39.1923 203.992C36.4077 202.711 35.439 202.604 35.0803 203.538ZM21.2278 217.759C18.93 219.097 17.8037 224.508 19.1083 227.939C19.5506 229.103 19.4213 229.464 18.2961 230.201C16.4273 231.426 15.4268 235.016 16.1738 237.815C16.6818 239.718 16.6367 239.996 15.8184 239.996C14.4537 239.996 14.6191 246.313 15.9911 246.581C16.6629 246.713 16.9108 246.358 16.9108 245.264C16.9108 243.975 17.0868 243.815 18.1641 244.122C18.8537 244.318 21.7988 244.979 24.7093 245.59C31.7665 247.074 31.6818 247.039 32.4694 248.767C33.3128 250.619 33.7022 250.026 34.7004 245.368C35.2223 242.932 35.239 241.947 34.7661 241.474C34.1639 240.872 33.4621 241.432 32.929 242.938C32.6917 243.608 19.0342 240.725 18.5067 239.893C18.251 239.49 18.0382 238.238 18.0332 237.112C18.0271 235.535 18.3775 234.785 19.5567 233.856C21.2891 232.492 23.1134 232.567 30.0012 234.287C32.9786 235.031 34.0303 235.557 34.4503 236.514C35.3794 238.631 36.2985 237.918 36.9631 234.564C37.3123 232.803 37.7229 230.923 37.8755 230.387C38.076 229.683 37.8332 229.412 37.0015 229.412C36.2088 229.412 35.8501 229.771 35.8501 230.563C35.8501 231.406 35.5883 231.633 34.8753 231.408C34.3394 231.239 31.0239 230.509 27.5073 229.787C21.7414 228.602 21.0791 228.342 20.7532 227.132C20.2887 225.409 20.7309 223.269 21.8066 222.031C22.8644 220.814 25.5276 220.777 30.9398 221.906C36.6355 223.094 36.7146 223.13 37.4828 224.815C38.3406 226.698 38.7985 226.009 39.741 221.414C40.2652 218.858 40.263 218.014 39.7316 217.515C39.3032 217.113 38.9729 217.083 38.8353 217.435C38.0577 219.422 37.8042 219.456 32.4856 218.296C26.8194 217.059 22.7614 216.866 21.2278 217.759ZM547.769 225.388C536.587 228.005 527.363 230.202 527.271 230.27C527.18 230.339 527.257 231.001 527.443 231.742L527.781 233.09L549.056 228.305L570.329 223.521L570.505 222.01C570.654 220.737 570.479 220.509 569.391 220.564C568.682 220.599 558.952 222.77 547.769 225.388ZM571.108 242.096C570.492 242.219 570.294 242.691 570.471 243.616C570.674 244.676 570.453 245.017 569.415 245.242C566.468 245.88 546.076 247.751 545.303 247.454C544.845 247.278 544.318 246.656 544.132 246.072C543.947 245.487 543.424 245.009 542.972 245.009C542.354 245.009 542.222 245.461 542.443 246.819C542.604 247.815 543.004 251.136 543.33 254.2C544.347 263.757 547.857 269.08 554.405 270.996C560.366 272.741 567.441 270.501 570.635 265.859C573.041 262.362 573.617 259.221 573.166 252.05C572.652 243.851 572.243 241.871 571.108 242.096ZM3.42874 249.844C1.89466 250.248 1.59608 252.223 2.8756 253.503C4.27655 254.904 6.63618 254.466 7.196 252.702C7.47898 251.81 7.24892 251.214 6.33593 250.475C5.65021 249.919 4.92941 249.494 4.73333 249.53C4.53781 249.565 3.95069 249.707 3.42874 249.844ZM556.403 250.875C550.276 251.579 545.166 252.177 545.047 252.203C544.485 252.326 545.68 258.695 546.606 260.508C547.875 262.994 548.971 264 552.173 265.61C558.663 268.875 567.861 265.99 570.668 259.81C571.978 256.924 572.08 251.574 570.847 250.34C569.8 249.294 570.329 249.274 556.403 250.875ZM13.7523 254.479C13.817 257.273 13.9908 257.821 14.813 257.821C15.4976 257.821 15.7967 257.386 15.7967 256.391C15.7967 255.292 16.0228 255.026 16.7715 255.243C17.3074 255.399 20.253 255.827 23.3167 256.194C29.755 256.965 31.3938 257.462 31.3938 258.642C31.3938 259.11 31.7358 259.492 32.1536 259.492C32.6354 259.492 33.0432 258.546 33.2677 256.907C33.8442 252.701 33.7139 251.136 32.7864 251.136C32.3207 251.136 31.9508 251.632 31.9508 252.257C31.9508 253.232 31.6796 253.34 29.8619 253.087C26.4969 252.62 14.486 251.136 14.0632 251.136C13.8498 251.136 13.71 252.64 13.7523 254.479ZM30.2797 262.361C30.2797 263.528 30.1354 263.551 24.8486 263.237C15.0469 262.656 11.5771 264.276 11.6635 269.393C11.688 270.841 12.133 272.84 12.6522 273.836C13.5775 275.609 13.5724 275.646 12.4038 275.646C11.4379 275.646 11.2746 275.885 11.5465 276.899C11.7309 277.589 11.8857 278.968 11.8896 279.963C11.8957 281.4 12.1275 281.774 13.0115 281.774C13.754 281.774 14.1256 281.402 14.1256 280.659C14.1256 279.682 14.4837 279.55 17.05 279.585C18.6582 279.607 21.9169 279.802 24.291 280.018C27.8755 280.344 28.7562 280.622 29.482 281.658C30.8306 283.584 31.3938 282.624 31.3938 278.398C31.3938 275.333 31.2206 274.532 30.5582 274.532C30.0987 274.532 29.7227 275.013 29.7227 275.6C29.7227 276.609 29.3573 276.653 23.1775 276.383C17.1185 276.118 16.5392 275.995 15.3789 274.726C13.739 272.933 13.6677 269.419 15.2397 267.848C16.1521 266.935 17.0963 266.733 20.4535 266.733C26.7949 266.733 29.8252 267.283 30.141 268.49C30.2886 269.056 30.7565 269.519 31.1805 269.519C31.7191 269.519 31.9508 268.785 31.9508 267.082C31.9508 265.741 32.1074 263.861 32.299 262.904C32.6015 261.391 32.4923 261.163 31.4634 261.163C30.6234 261.163 30.2797 261.511 30.2797 262.361ZM552.73 275.065C545.907 276.351 542.603 282.918 545.586 289.265C546.801 291.849 549.119 293.885 549.726 292.903C549.915 292.597 549.553 291.689 548.921 290.887C547.07 288.533 546.48 285.5 547.431 283.224C548.329 281.073 550.249 279.867 553.674 279.298L555.959 278.919L556.32 282.377C556.519 284.28 556.682 287.429 556.682 289.375C556.682 292.87 556.701 292.914 558.223 292.914C561.94 292.914 565.595 289.163 565.595 285.347C565.595 278.666 559.495 273.791 552.73 275.065ZM558.353 284.28C558.353 288.598 558.448 289.015 559.436 289.015C560.893 289.015 563.402 286.777 563.495 285.394C563.649 283.111 562.767 281.223 561.158 280.391C560.258 279.926 559.259 279.545 558.938 279.545C558.575 279.545 558.353 281.346 558.353 284.28ZM29.6224 285.655C29.4559 286.68 28.8693 286.767 20.6362 286.99C15.7917 287.121 11.713 287.343 11.5727 287.483C11.4323 287.624 11.5938 289.028 11.932 290.605C12.5831 293.641 14.1256 294.678 14.1256 292.079V290.686H21.698C28.8013 290.686 29.2882 290.755 29.5611 291.8C29.7216 292.413 30.1995 292.914 30.6234 292.914C31.2105 292.914 31.3938 291.922 31.3938 288.737C31.3938 285.485 31.2172 284.559 30.5972 284.559C30.1588 284.559 29.7199 285.052 29.6224 285.655ZM0.551628 287.965C-0.405923 289.332 -0.112914 290.479 1.4 291.289C2.91348 292.099 4.59352 291.406 4.99514 289.806C5.6881 287.046 2.20604 285.603 0.551628 287.965ZM29.1645 296.117L29.1634 297.649L17.2288 299.51C10.6653 300.533 4.78792 301.21 4.16793 301.014C3.5485 300.817 2.88675 300.168 2.69736 299.57C1.72699 296.514 0.741034 301.029 1.64344 304.392C1.95482 305.552 6.09697 307.049 22.3809 311.888L26.4579 313.1L24.8876 314.044C24.0236 314.564 18.993 317.447 13.7078 320.452L4.09886 325.914L4.10666 328.214C4.11669 331.324 4.62861 333.021 5.55664 333.021C6.03291 333.021 6.32702 332.413 6.32702 331.43C6.32702 329.847 6.34874 329.837 10.6441 329.49C13.0182 329.297 18.7551 328.973 23.3919 328.769C31.6328 328.408 31.8378 328.426 32.4633 329.596C33.4638 331.465 34.5773 331.101 34.3405 328.983C33.6832 323.113 33.5195 322.437 32.7524 322.437C32.2427 322.437 31.9508 323.015 31.9508 324.025V325.612L25.6841 325.983C22.2377 326.187 17.4121 326.487 14.9611 326.65L10.5048 326.946L12.733 325.745C13.9585 325.083 18.9367 322.264 23.7952 319.478C31.7743 314.904 33.7295 313.446 32.9429 312.66C32.8003 312.518 27.392 310.845 20.9237 308.945C14.4559 307.044 9.29882 305.354 9.46259 305.19C10.0391 304.613 26.8773 301.97 28.2744 302.237C29.0509 302.386 29.8369 302.981 30.0207 303.559C30.2045 304.139 30.7253 304.612 31.1782 304.612C31.7932 304.612 31.9302 304.154 31.7208 302.802C31.567 301.806 31.2868 299.55 31.0986 297.788C30.859 295.544 30.5187 294.585 29.9611 294.585C29.4648 294.585 29.1651 295.162 29.1645 296.117ZM563.192 295.908C563.031 296.328 562.064 296.834 561.044 297.03C560.023 297.226 555.93 298.598 551.947 300.08C546.001 302.29 544.674 302.987 544.527 303.97C544.43 304.63 544.598 305.169 544.9 305.169C545.203 305.169 549.089 306.923 553.535 309.066C559.032 311.716 561.732 313.32 561.973 314.079C562.168 314.693 562.664 315.196 563.076 315.196C563.599 315.196 563.882 314.187 564.013 311.853C564.176 308.968 564.068 308.51 563.227 308.51C562.641 308.511 562.252 308.934 562.252 309.571C562.252 310.519 561.65 310.367 556.543 308.13C553.402 306.755 550.633 305.439 550.388 305.205C550.143 304.971 552.023 304.012 554.566 303.072C561.804 300.397 561.738 300.407 562.859 301.893C563.403 302.613 564.018 303.033 564.225 302.825C564.434 302.617 564.736 300.803 564.897 298.794C565.141 295.76 565.046 295.142 564.338 295.142C563.869 295.142 563.354 295.487 563.192 295.908ZM546.377 316.424C543.258 318.22 541.464 321.796 541.863 325.424C542.748 333.466 553.241 337.612 559.283 332.306C564.351 327.857 563.936 320.981 558.374 317.206C555.013 314.926 549.592 314.573 546.377 316.424ZM546.839 319.872C544.782 320.808 543.87 322.255 543.87 324.583C543.87 327.157 544.382 327.959 546.863 329.268C550.082 330.967 556.483 331.018 558.7 329.363C561.783 327.061 561.429 322.839 557.972 320.703C555.469 319.156 549.408 318.704 546.839 319.872ZM542.477 337.328C540.789 337.723 538.956 339.654 538.561 341.454C538.201 343.096 540.11 348.061 541.102 348.061C541.948 348.061 542.342 346.867 541.705 346.23C541.364 345.889 541.085 344.777 541.085 343.76C541.085 340.785 542.603 340.453 549.52 341.915C557.863 343.68 557.188 343.32 556.632 345.712C555.921 348.776 556.016 350.289 556.92 350.289C557.432 350.289 557.965 349.179 558.412 347.182L559.107 344.075L560.998 344.429C562.038 344.625 563.247 344.922 563.685 345.09C565.172 345.66 564.506 343.742 562.531 341.767C561.303 340.538 560.581 339.281 560.581 338.369C560.581 337.292 560.295 336.92 559.467 336.92C558.854 336.92 558.349 337.234 558.345 337.617C558.32 339.616 557.536 339.764 552.739 338.675C547.07 337.387 543.965 336.979 542.477 337.328ZM35.0145 345.272C27.6616 347.041 18.1992 349.298 13.9863 350.287C6.23622 352.106 5.47699 352.554 6.75316 354.55C7.04561 355.008 13.153 353.735 28.1485 350.094C39.6909 347.291 49.3021 344.828 49.5065 344.621C49.9493 344.173 49.3093 341.908 48.764 341.994C48.5545 342.027 42.3675 343.502 35.0145 345.272ZM541.037 350.822C536.874 352.084 534.185 355.913 534.281 360.443C534.34 363.218 535.853 367.166 536.744 366.869C537.359 366.664 537.343 366.311 536.591 363.519C535.761 360.437 536.777 357.215 539.024 355.804C540.386 354.948 541.497 354.735 543.73 354.9C545.338 355.019 546.811 355.273 547.003 355.465C547.195 355.657 546.562 358.742 545.597 362.321C544.632 365.9 543.974 368.961 544.135 369.122C544.787 369.775 549.279 369.348 550.967 368.472C553.197 367.314 555.011 363.907 555.011 360.878C555.011 353.926 547.834 348.762 541.037 350.822ZM549.195 357.05C549.052 357.467 548.514 359.313 547.998 361.152C547.483 362.99 546.943 364.807 546.798 365.19C546.476 366.045 549.581 366.149 551.104 365.334C552.715 364.471 553.578 361.235 552.681 359.414C551.704 357.43 549.561 355.977 549.195 357.05ZM25.1277 366.303C23.7512 366.617 23.2538 369.125 24.2236 370.861C24.6631 371.648 25.976 372.912 27.1414 373.669L29.2592 375.046L27.8198 375.526C26.1799 376.073 25.9682 377.106 27.2739 378.189C27.7652 378.598 28.3936 379.526 28.6699 380.253C29.3071 381.928 30.605 381.535 30.4151 379.724C30.2808 378.444 30.6852 378.229 36.9976 376.227C42.9128 374.351 43.8871 374.181 45.078 374.819C45.8228 375.217 46.5837 375.392 46.7687 375.207C47.3747 374.601 44.7165 367.558 43.8815 367.558C43.4158 367.558 43.0916 368.114 43.0916 368.914C43.0916 370.137 42.5552 370.446 37.6215 372.063C31.8066 373.969 30.3148 373.969 27.9825 372.057C26.8367 371.118 26.7525 370.819 27.3553 369.83C27.7385 369.201 28.0516 368.316 28.0516 367.863C28.0516 366.856 26.4506 366.002 25.1277 366.303ZM531.171 372.325C528.613 374.514 527.485 377.406 528.063 380.294C528.329 381.626 528.215 382.041 527.583 382.041C526.483 382.041 524.584 386.93 525.375 387.721C526.079 388.425 527.159 387.833 527.159 386.743C527.159 386.301 527.246 385.94 527.353 385.94C527.46 385.94 533.227 388.071 540.169 390.675C547.11 393.279 553.038 395.41 553.343 395.41C553.648 395.41 553.897 394.674 553.897 393.775C553.897 392.876 554.133 391.518 554.422 390.758C554.828 389.692 554.754 389.303 554.098 389.051C552.892 388.589 552.783 388.628 552.783 389.528C552.783 390.929 551.855 390.987 548.704 389.781L545.635 388.606L547.026 386.02C548.985 382.376 548.692 377.926 546.298 374.968C543.867 371.964 540.481 370.343 536.641 370.343C533.832 370.343 533.234 370.559 531.171 372.325ZM533.451 374.873C530.444 375.719 528.997 379.23 530.498 382.035C530.969 382.914 541.747 387.611 543.294 387.611C544.251 387.611 546.098 383.819 546.098 381.854C546.098 380.307 545.654 379.406 544.152 377.904C541.644 375.395 536.635 373.976 533.451 374.873ZM43.8481 379.383C43.6303 379.736 43.7963 380.14 44.218 380.281C44.6396 380.421 45.9531 381.44 47.1363 382.544C50.19 385.392 50.5688 388.345 48.2208 391.003C47.2978 392.048 45.7688 393.354 44.8229 393.906L43.1028 394.909L41.6667 391.678C40.8768 389.9 39.7059 387.193 39.0637 385.661C38.4214 384.13 37.7312 382.683 37.5301 382.447C36.8756 381.68 33.3707 384.506 32.3207 386.648C30.8039 389.742 31.4673 392.659 34.3756 395.684C38.4743 399.946 44.2709 400.227 48.9261 396.391C54.9126 391.456 53.1473 382.125 45.6908 379.29C44.6692 378.902 44.1288 378.93 43.8481 379.383ZM35.3181 388.057C33.2198 390.156 33.1797 391.555 35.1538 393.764C36.2384 394.976 37.2165 395.492 38.5039 395.528C39.5037 395.557 40.4485 395.453 40.6033 395.299C40.8401 395.061 37.7752 387.187 37.2048 386.568C37.1001 386.455 36.2512 387.125 35.3181 388.057ZM507.616 396.61C507.285 397.228 507.098 397.81 507.2 397.906C507.301 398 516.132 402.531 526.823 407.974C545.189 417.323 546.304 417.811 547.023 416.828C547.442 416.255 547.713 415.57 547.624 415.306C547.536 415.042 538.633 410.475 527.841 405.157C509.205 395.974 508.187 395.544 507.616 396.61ZM53.9778 396.485C53.8013 396.77 53.9121 397.161 54.2235 397.354C55.713 398.274 54.233 399.519 47.6872 402.848C43.7812 404.835 38.2471 407.701 35.3894 409.216L30.1934 411.97L31.5799 413.467C32.3424 414.289 33.3022 415.45 33.7122 416.045C34.7728 417.585 36.2239 416.646 35.3393 414.992C34.77 413.928 34.9789 413.683 37.6488 412.278C39.2636 411.429 40.7727 410.65 41.0027 410.545C41.2328 410.442 41.4205 410.92 41.4205 411.608C41.4205 413.509 43.9723 417.457 46.0111 418.71C50.5431 421.496 55.7342 420.699 59.8463 416.587C62.7184 413.714 63.4553 411.443 62.5757 408.175C62.0232 406.123 59.1795 402.651 58.0515 402.651C57.7479 402.651 57.6543 402.164 57.8431 401.569C58.574 399.265 55.0908 394.684 53.9778 396.485ZM49.0241 406.395C42.8293 409.568 42.5073 409.954 43.6147 412.867C45.0134 416.546 49.3021 417.654 53.9589 415.538C56.9263 414.19 59.8028 410.875 59.8028 408.802C59.8028 407.019 57.6186 404.052 55.9938 403.628C55.3988 403.472 52.4276 404.651 49.0241 406.395ZM65.4094 416.812C64.966 417.346 64.9465 417.706 65.3459 417.953C65.6673 418.151 65.9302 418.518 65.9302 418.767C65.9302 419.016 60.6662 422.405 54.2324 426.299C47.7986 430.192 42.5346 433.583 42.5346 433.834C42.5346 434.776 46.6277 438.347 47.3769 438.059C47.964 437.834 48.0114 437.496 47.5719 436.676C47.2522 436.078 46.9909 435.463 46.9909 435.308C46.9909 435.023 63.1501 425.228 66.1837 423.675C67.4237 423.04 68.1456 422.976 69.1104 423.416C69.815 423.737 70.5247 423.866 70.6874 423.704C70.9943 423.396 67.2209 416.752 66.4784 416.293C66.2461 416.15 65.7654 416.383 65.4094 416.812ZM507.668 420.748C505.331 424.21 504.989 425.011 505.726 425.293C506.281 425.506 506.928 425.196 507.435 424.471C508.24 423.323 508.321 423.353 513.291 426.672C516.072 428.53 518.217 430.334 518.076 430.699C517.526 432.134 510.402 442.755 510.019 442.712C509.795 442.686 507.607 441.231 505.156 439.479C501.368 436.77 500.7 436.053 500.7 434.699C500.7 431.996 499.691 432.59 496.991 436.882C494.855 440.279 494.551 441.067 495.275 441.344C496.072 441.65 496.767 441.087 497.235 439.756C497.331 439.484 502.236 442.478 508.137 446.41C518.373 453.232 518.857 453.635 518.695 455.214C518.601 456.124 518.775 456.948 519.082 457.045C519.758 457.258 524.98 449.415 524.586 448.778C524.057 447.923 522.776 448.332 522.415 449.473C522.215 450.103 521.864 450.541 521.636 450.448C520.431 449.954 512.154 444.086 512.138 443.714C512.107 442.996 519.902 431.617 520.425 431.617C520.692 431.617 522.754 432.94 525.009 434.557C528.463 437.033 529.112 437.751 529.13 439.113C529.166 441.83 530.198 441.298 532.969 437.13C535.025 434.037 535.453 433.036 534.872 432.672C534.375 432.362 533.82 432.599 533.23 433.375C532.347 434.533 532.233 434.477 522.641 428.163C511.456 420.8 510.803 420.245 511.245 418.481C511.931 415.747 510.378 416.731 507.668 420.748ZM71.0812 425.575C70.6601 425.996 70.6161 426.549 70.9531 427.179C71.3859 427.987 70.352 428.882 64.4474 432.803C60.586 435.368 57.1608 437.636 56.836 437.844C56.4812 438.071 57.2031 439.153 58.6375 440.545C60.2356 442.096 61.216 442.682 61.5887 442.309C61.9608 441.937 61.958 441.415 61.5803 440.739C61.0901 439.864 61.7235 439.252 66.2762 436.208C72.3952 432.116 73.8825 431.437 74.7721 432.326C75.1843 432.738 75.5882 432.766 75.9486 432.405C76.309 432.045 75.8054 430.811 74.4814 428.812C71.8538 424.845 71.8321 424.824 71.0812 425.575ZM76.5051 434.134C75.9347 434.822 75.9636 435.16 76.661 435.945C77.4548 436.838 76.9869 437.302 70.3526 442.201C66.411 445.111 63.1768 447.789 63.1656 448.152C63.1545 448.514 63.6397 448.967 64.2446 449.159C64.8496 449.351 65.8589 450.163 66.4889 450.963C67.3769 452.093 67.7824 452.269 68.2999 451.752C68.8146 451.237 68.8157 450.845 68.3043 450.026C67.7111 449.076 68.1512 448.588 72.5601 445.305C78.1968 441.109 79.654 440.799 82.1273 443.272C85.1158 446.261 84.3326 447.699 76.4772 453.648C73.4336 455.953 70.9481 458.017 70.9536 458.236C70.9776 459.173 75.3676 462.231 76.2193 461.905C77.0398 461.59 77.0354 461.467 76.1703 460.511C75.6483 459.934 75.3241 459.387 75.4495 459.294C84.6596 452.507 87.0977 449.943 87.0977 447.046C87.0977 444.992 84.8373 442.052 82.2548 440.745C80.6216 439.918 80.103 439.392 80.5158 438.979C80.9285 438.566 80.5575 437.63 79.2713 435.839C78.2637 434.436 77.3869 433.288 77.3234 433.288C77.2599 433.288 76.8917 433.669 76.5051 434.134ZM48.4698 443.22C46.821 445.041 47.6833 447.214 50.0546 447.214C51.645 447.214 52.5613 446.177 52.5613 444.377C52.5613 442.12 50.0964 441.422 48.4698 443.22ZM489.315 446.561C487.154 447.719 485.381 450.613 485.381 452.98C485.381 454.307 485.189 454.535 484.276 454.297C483.5 454.094 482.673 454.576 481.491 455.922C480.567 456.975 479.811 458.064 479.811 458.342C479.811 459.401 481.126 459.596 481.825 458.639C482.615 457.559 482.088 457.196 493.447 466.634C496.749 469.378 497.636 469.67 497.636 468.017C497.636 467.546 498.168 466.414 498.818 465.5C499.678 464.293 499.834 463.672 499.389 463.227C498.943 462.782 498.5 462.865 497.763 463.532C496.809 464.396 496.471 464.218 491.901 460.455C487.381 456.733 487.052 456.32 487.052 454.375C487.052 452.996 487.49 451.78 488.346 450.785C490.387 448.413 492.442 449.166 499.187 454.76C504.749 459.373 505.991 459.935 505.991 457.84C505.991 457.287 506.53 456.149 507.189 455.312C508.164 454.072 508.244 453.701 507.62 453.315C507.14 453.019 506.513 453.148 505.948 453.66C505.138 454.392 504.548 454.078 500.291 450.645C496.279 447.409 493.084 445.543 491.556 445.543C491.367 445.543 490.359 446.001 489.315 446.561ZM85.9129 456.508C82.6514 458.532 81.6036 463.609 83.7282 467.093L84.8105 468.869L82.5924 468.086C79.7314 467.077 77.4147 467.567 75.3665 469.615C74.1053 470.876 73.7288 471.76 73.7288 473.46C73.7288 476.607 75.2974 479.286 80.1765 484.472C83.6263 488.14 84.6 488.89 85.2305 488.367C85.8979 487.813 85.8884 487.582 85.162 486.78C84.6947 486.263 84.3125 485.702 84.3125 485.534C84.3125 485.054 101.165 469.744 102.431 469.074C103.205 468.664 103.877 468.654 104.573 469.043C105.139 469.36 105.799 469.399 106.067 469.132C106.75 468.449 96.8559 457.968 94.2913 456.659C91.7067 455.341 87.9043 455.272 85.9129 456.508ZM88.0241 460.883C86.9072 461.968 85.8405 463.465 85.6533 464.211C85.2255 465.917 87.0604 469.832 89.2886 471.967L90.9257 473.535L95.6639 469.199L100.402 464.862L98.8112 462.932C95.0378 458.355 91.3491 457.654 88.0241 460.883ZM476.035 462.053C473.66 464.118 473.22 464.76 473.748 465.395C474.308 466.071 474.529 466.065 475.315 465.354C476.141 464.606 476.707 465.042 481.223 469.906C483.969 472.865 486.144 475.675 486.055 476.151C485.479 479.236 482.784 481.12 480.331 480.152C479.585 479.858 477.125 477.74 474.863 475.444C471.34 471.869 470.802 471.069 471.105 469.861C471.732 467.362 470.316 467.583 467.47 470.431C465.495 472.405 464.827 473.45 465.094 474.146C465.429 475.02 465.557 475.031 466.41 474.26C467.276 473.475 467.781 473.831 472.496 478.545C478.117 484.167 478.373 484.91 475.636 487.648C473.276 490.007 471.821 489.482 466.61 484.397C462.496 480.38 461.94 479.61 462.204 478.291C462.699 475.813 461.786 476.062 458.622 479.265C456.341 481.575 455.781 482.454 456.276 482.948C456.77 483.442 457.137 483.421 457.816 482.858C458.592 482.214 459.3 482.702 463.271 486.607C465.781 489.077 468.382 491.375 469.051 491.716C470.983 492.698 473.944 492.45 475.573 491.167C477.133 489.94 479.253 486.293 479.253 484.837C479.253 484.285 479.769 483.979 480.7 483.979C483.035 483.979 485.314 482.243 486.743 479.375C487.483 477.89 488.242 476.967 488.45 477.302C488.901 478.033 490.394 476.972 490.394 475.92C490.394 475.545 490.896 474.785 491.508 474.231C492.121 473.676 492.622 472.9 492.622 472.506C492.622 471.22 491.438 471.02 490.632 472.17C489.88 473.245 489.611 473.053 484.549 467.829C479.315 462.426 478.714 461.54 479.819 460.856C480.4 460.497 480.052 459.459 479.36 459.482C479.148 459.49 477.652 460.647 476.035 462.053ZM81.221 470.837C79.5699 471.556 76.514 474.667 76.514 475.63C76.514 477.797 79.3822 481.751 80.9542 481.751C81.451 481.751 83.6006 480.149 85.7308 478.191L89.6044 474.632L88.2118 473.106C87.4459 472.267 86.0126 471.237 85.0267 470.817C82.9222 469.92 83.3305 469.917 81.221 470.837ZM111.119 486.482C103.115 495.546 96.5674 503.172 96.5674 503.428C96.5674 504.105 98.1132 505.286 98.7037 505.06C98.98 504.954 105.286 497.849 112.717 489.271C120.147 480.692 126.575 473.276 126.999 472.789C127.664 472.028 127.625 471.773 126.72 470.954C125.71 470.04 125.118 470.629 111.119 486.482ZM450.788 485.243C449.189 486.311 447.535 488.65 446.758 490.942C446.639 491.292 446.277 491.259 445.783 490.854C444.717 489.982 440.594 493.33 441.317 494.481C441.693 495.08 442.043 495.099 443.021 494.576C444.018 494.042 444.374 494.078 444.902 494.764C453.858 506.414 456.156 507.581 461.363 503.123C464.032 500.838 465.106 498.137 464.165 496.073C463.408 494.411 461.732 493.804 460.846 494.872C460.169 495.687 460.622 497.905 461.466 497.905C462.493 497.905 461.957 500.212 460.618 501.551C458.475 503.693 456.576 503.331 453.983 500.287C452.956 499.082 452.967 499.041 454.923 496.757C458.897 492.113 459.777 487.847 457.276 485.346C455.55 483.62 453.271 483.584 450.788 485.243ZM451.273 488.294C450.436 488.813 449.399 490.121 448.968 491.203C448.216 493.088 448.251 493.252 449.842 495.26C450.754 496.411 451.745 497.201 452.044 497.016C453.372 496.195 455.858 492.026 455.858 490.619C455.858 489.021 454.603 487.31 453.451 487.336C453.089 487.344 452.11 487.775 451.273 488.294ZM145.19 489.663C144.206 489.919 139.193 492.969 134.049 496.444C123.658 503.463 121.495 504.706 120.089 504.471C118.316 504.175 119.097 505.908 121.498 507.595C123.402 508.933 124.005 509.123 124.562 508.559C125.116 507.998 125.052 507.707 124.249 507.114C123.335 506.439 123.764 506.01 128.943 502.422C132.078 500.251 134.7 498.534 134.77 498.607C134.925 498.771 132.933 509.342 132.474 510.787C132.273 511.421 131.624 511.831 130.821 511.831C130.093 511.831 129.354 512.065 129.178 512.351C128.746 513.047 135.034 517.508 135.952 517.156C136.349 517.004 136.674 517.229 136.674 517.657C136.674 518.085 137.363 518.98 138.206 519.647C139.485 520.66 140.221 520.811 142.66 520.564C145.452 520.281 145.556 520.317 144.985 521.385C144.398 522.482 144.734 524.568 145.392 523.909C145.577 523.724 146.619 523.945 147.706 524.399C149.132 524.995 149.85 525.056 150.281 524.618C150.708 524.184 150.6 523.805 149.904 523.29C149.368 522.894 148.929 522.429 148.929 522.256C148.929 521.475 156.368 510.15 156.931 510.075C157.279 510.028 157.919 509.965 158.353 509.933C160.12 509.807 159.332 508.651 156.104 506.633C153.548 505.035 152.536 504.661 152.065 505.14C151.596 505.615 151.701 505.974 152.475 506.546C153.462 507.274 153.35 507.581 150.272 512.582C147.516 517.059 146.732 517.94 145.048 518.444C142.841 519.105 140.406 518.711 140.754 517.748C141.41 515.933 138.811 514.373 137.431 515.753C137.027 516.157 136.661 516.107 136.234 515.592C135.776 515.041 136.063 512.417 137.345 505.403C138.295 500.206 139.313 495.643 139.609 495.262C139.905 494.881 141.505 493.793 143.165 492.843C146.209 491.101 148.08 490.995 147.465 492.599C147.002 493.804 148.199 495.061 149.488 494.724C150.976 494.334 151.416 492.534 150.402 490.986C149.403 489.462 147.668 489.022 145.19 489.663ZM436.191 496.863C433.536 498.705 433.075 499.251 433.619 499.906C434.132 500.523 434.459 500.556 435.066 500.052C436.026 499.256 435.938 499.161 440.197 505.558C443.594 510.66 443.616 510.72 442.836 512.587C441.95 514.709 440.02 516.287 438.311 516.287C436.443 516.287 434.989 514.902 431.567 509.865C428.663 505.589 428.402 504.975 429.048 503.941C430.408 501.763 428.82 501.843 425.345 504.126C422.6 505.93 421.998 506.569 422.488 507.16C422.931 507.693 423.403 507.751 424.129 507.362C425.005 506.894 425.603 507.491 428.365 511.6C433.488 519.221 435.724 520.576 439.865 518.572C441.481 517.79 442.704 516.653 443.551 515.147C444.555 513.36 444.975 513.023 445.576 513.521C446.168 514.013 446.778 513.706 448.359 512.125C450.594 509.89 450.728 507.915 448.565 509.073C447.139 509.836 447.33 510.03 443.065 503.494C440.087 498.928 439.671 497.974 439.968 496.391C440.157 495.385 440.112 494.575 439.868 494.591C439.625 494.607 437.97 495.629 436.191 496.863ZM416.308 509.222C413.141 511.127 412.609 512.182 414.904 512.01C416.049 511.924 416.793 512.909 420.467 519.372C422.801 523.476 424.887 526.941 425.104 527.073C425.862 527.533 430.17 523.212 429.704 522.459C429.37 521.918 428.983 521.891 428.125 522.351C427.082 522.909 426.702 522.472 423.561 517.098C420.099 511.175 419.724 510.114 420.471 508.349C421.101 506.859 419.773 507.138 416.308 509.222ZM160.286 510.818C160.05 511.2 160.37 511.801 161.05 512.252C162.21 513.022 162.192 513.084 159.196 518.745C155.81 525.141 155.351 527.907 157.27 530.346C159.661 533.386 166.108 534.695 168.061 532.536C169.239 531.235 169.247 529.32 168.076 528.871C167.047 528.476 165.64 529.429 165.64 530.522C165.64 532.649 159.96 531.384 159.233 529.095C159.007 528.381 159.24 526.845 159.796 525.387C160.533 523.46 160.953 522.984 161.662 523.281C163.959 524.24 167.623 525.2 168.988 525.2C172.759 525.2 175.667 522.805 175.667 519.7C175.667 516.809 170.228 513.547 166.871 514.424C165.89 514.681 165.64 514.508 165.64 513.578C165.64 512.779 164.945 512.056 163.434 511.285C160.85 509.966 160.815 509.961 160.286 510.818ZM402.605 516.51C401.563 517.552 400.711 518.93 400.711 519.574C400.711 520.217 400.711 520.932 400.711 521.161C400.711 522.091 401.905 521.494 402.54 520.247C402.912 519.513 403.754 518.562 404.409 518.131C405.476 517.43 405.747 517.481 407.005 518.628C407.779 519.332 409.7 522.337 411.276 525.306L414.141 530.704L412.857 531.533C412.151 531.988 410.884 532.67 410.041 533.047C408.581 533.702 408.107 534.638 408.856 535.387C409.046 535.577 410.417 535.118 411.901 534.366C413.385 533.614 414.728 532.998 414.885 532.998C415.043 532.998 415.691 534.017 416.326 535.263C417.566 537.693 418.787 537.921 418.859 535.734C418.978 532.097 419.175 531.295 420.178 530.36C421.751 528.894 420.827 527.524 418.868 528.416C417.469 529.053 417.404 528.975 414.327 522.958C412.609 519.601 410.564 516.351 409.782 515.735C407.541 513.972 404.852 514.263 402.605 516.51ZM163.242 518.754L161.793 521.348L163.192 521.88C166.193 523.021 168.921 523.14 170.366 522.193C173.325 520.254 171.457 516.923 167.138 516.436C164.713 516.163 164.679 516.183 163.242 518.754ZM177.534 519.922C177.344 520.418 177.599 521.09 178.122 521.473C178.965 522.089 178.847 522.626 176.8 527.526C174.21 533.725 173.895 537.024 175.676 539.289C177.06 541.048 180.045 542.089 182.924 541.814C184.906 541.625 185.068 541.71 184.795 542.798C184.524 543.88 184.77 544.016 187.462 544.278C190.611 544.584 192.162 543.727 190.136 542.801C189.531 542.524 189.036 542.098 189.036 541.854C189.036 541.157 193.4 531.272 194.343 529.833C194.809 529.123 195.685 528.542 196.29 528.542C198.542 528.542 197.26 527.103 193.727 525.664C190.686 524.426 190.027 524.315 189.766 524.995C189.594 525.443 189.873 526.117 190.386 526.492C191.235 527.113 191.08 527.712 188.632 533.272C186.191 538.812 185.778 539.418 184.119 539.894C181.667 540.597 178.63 539.195 178.11 537.119C177.359 534.13 181.723 523.936 183.883 523.629C185.617 523.383 185.454 522.082 183.605 521.409C182.762 521.103 181.127 520.446 179.971 519.949C178.067 519.132 177.838 519.129 177.534 519.922ZM391.968 521.276C390.989 521.873 389.766 523.004 389.251 523.79C388.539 524.877 388.14 525.074 387.583 524.612C386.472 523.69 381.658 525.928 382.126 527.148C382.341 527.706 382.816 527.915 383.375 527.697C383.872 527.504 384.469 527.301 384.703 527.247C384.936 527.193 386.238 529.747 387.597 532.921C390.402 539.476 391.159 540.499 393.861 541.391C396.419 542.236 400.017 540.899 402.356 538.234C404.318 536 404.518 534.149 402.95 532.729C402.046 531.912 401.692 531.858 401 532.432C399.981 533.278 399.904 534.754 400.83 535.68C401.764 536.613 399.36 538.979 396.996 539.452C395.385 539.773 395.105 539.605 393.793 537.526C393.003 536.274 392.355 535.014 392.355 534.726C392.355 534.438 393.17 533.697 394.166 533.079C397.577 530.96 400.217 527.745 400.543 525.313C400.799 523.405 400.625 522.835 399.411 521.621C397.637 519.847 394.547 519.703 391.968 521.276ZM393.635 523.361C392.961 523.492 391.642 524.472 390.705 525.54C389.341 527.093 389.114 527.689 389.564 528.53C389.873 529.108 390.381 530.251 390.692 531.07C391.252 532.542 391.275 532.548 392.781 531.592C395.728 529.723 397.369 527.813 397.369 526.249C397.369 524.817 396.08 522.879 395.24 523.047C395.032 523.089 394.31 523.231 393.635 523.361ZM376.1 527.826C373.394 528.828 372.462 529.424 372.687 530.011C372.857 530.454 373.52 530.744 374.16 530.654C375.172 530.513 375.577 531.221 377.253 536.062C379.304 541.986 379.323 543.469 377.382 545.866C376.416 547.059 376.193 547.109 374.906 546.42C373.098 545.452 371.745 545.971 371.745 547.631C371.745 551.71 376.778 550.78 379.572 546.186L380.59 544.512L380.963 545.997C381.371 547.621 382.387 547.918 383.393 546.706C383.747 546.279 384.763 545.629 385.652 545.261C387.627 544.443 387.34 542.878 385.261 543.134C383.972 543.292 383.737 542.897 381.717 537.176C379.495 530.882 379.129 528.864 380.1 528.263C380.745 527.865 380.862 526.281 380.24 526.381C380.01 526.418 378.147 527.069 376.1 527.826ZM200.908 530.254C195.368 532.997 193.063 539.925 195.901 545.305C198.356 549.958 204.263 551.678 208.629 549.01C211.287 547.387 212.633 545.613 213.785 542.219C215.475 537.243 213.666 532.656 209.106 530.352C206.024 528.795 203.907 528.77 200.908 530.254ZM202.47 532.236C199.461 534.343 197.385 542.675 199.079 545.841C200.083 547.718 202.763 548.747 204.849 548.059C210.38 546.234 212.674 534.593 207.983 532.167C205.882 531.08 204.087 531.103 202.47 532.236ZM429.435 532.401C428.21 533.754 428.723 535.626 430.544 536.456C431.541 536.91 432.085 536.885 432.724 536.354C433.949 535.337 433.811 532.606 432.499 531.904C430.996 531.099 430.546 531.172 429.435 532.401ZM297.323 534.211C297.489 535.535 297.925 545.455 298.293 556.255L298.96 575.89H300.537C302.428 575.89 302.371 578.384 301.096 551.659L300.165 532.163L298.593 531.983C297.044 531.805 297.025 531.838 297.323 534.211ZM360.15 533.081C357.999 533.749 356.723 534.432 356.864 534.839C356.992 535.205 357.635 535.485 358.293 535.461C358.951 535.436 359.49 535.453 359.49 535.498C359.49 535.973 364.568 552.745 364.775 552.951C364.928 553.105 365.51 552.817 366.068 552.312C366.626 551.808 367.866 551.122 368.823 550.788C370.879 550.071 370.762 548.302 368.692 548.822C367.444 549.135 367.012 548.021 363.605 535.703C363.466 535.199 363.736 534.402 364.206 533.932C365.238 532.9 365.321 531.865 364.364 531.937C363.981 531.965 362.085 532.48 360.15 533.081ZM218.335 533.965C217.654 534.645 218.035 535.663 219.073 535.934C220.096 536.201 220.045 536.591 217.961 544.493C216.76 549.047 215.777 553.063 215.776 553.418C215.773 554.413 221.813 554.648 222.188 553.668C222.351 553.242 222.416 552.852 222.332 552.803C222.248 552.754 221.661 552.476 221.027 552.187C219.883 551.663 219.889 551.608 221.862 544.696C223.598 538.619 224.01 537.71 225.104 537.555C227.472 537.219 226.45 535.84 223.155 534.925C221.393 534.436 219.663 533.945 219.31 533.834C218.957 533.723 218.518 533.782 218.335 533.965ZM348.995 535.77C347.971 536.018 346.336 536.993 345.362 537.938C343.829 539.423 343.516 539.536 343.036 538.775C342.583 538.056 342.023 537.985 339.984 538.389C337.235 538.932 336.354 540.589 338.899 540.43C340.254 540.345 340.364 540.581 341.601 546.275C343.119 553.262 343.9 554.967 346.103 556.106C350.688 558.477 357.583 555.136 357.163 550.745C357.012 549.168 356.764 548.874 355.591 548.874C354.364 548.874 354.198 549.112 354.198 550.876C354.198 553.273 353.302 554.498 351.263 554.888C349.209 555.28 347.849 554.437 346.909 552.189C345.708 549.315 345.908 548.828 348.734 547.749C350.172 547.2 352.428 545.755 353.747 544.539C356.586 541.922 356.96 539.54 354.894 537.228C353.433 535.592 351.598 535.139 348.995 535.77ZM229.743 538.897C228.326 540.089 228.032 540.741 228.047 542.657C228.067 545.305 228.545 546.055 231.649 548.308C235.406 551.034 236.941 552.651 236.941 553.88C236.941 555.544 235.889 556.394 233.828 556.394C231.277 556.394 229.689 554.874 229.313 552.071C228.937 549.265 227.751 548.94 227.302 551.52C227.129 552.515 226.806 554.184 226.585 555.229C226.208 557.011 226.262 557.106 227.467 556.791C228.237 556.589 229.6 556.889 230.874 557.539C236.005 560.156 240.841 557.67 240.841 552.413C240.841 550.513 238.941 548.379 234.653 545.463C230.369 542.549 230.745 539.357 235.351 539.535C237.288 539.609 238.086 539.972 239.309 541.336C240.256 542.392 240.841 543.677 240.841 544.705C240.841 547.162 242.307 546.834 242.747 544.278C242.945 543.13 243.245 541.494 243.414 540.645C243.694 539.232 243.586 539.11 242.141 539.212C241.272 539.273 239.76 538.902 238.78 538.389C235.979 536.922 231.812 537.156 229.743 538.897ZM346.128 540.041C344.53 541.386 344.411 541.71 344.75 543.801C344.955 545.059 345.297 546.277 345.511 546.507C346.157 547.203 351.738 544.091 352.383 542.674C352.819 541.717 352.81 540.971 352.35 539.961C351.459 538.007 348.501 538.044 346.128 540.041ZM331.917 539.943C329.772 540.259 328.08 540.707 328.157 540.936C328.233 541.166 328.296 541.605 328.296 541.911C328.296 542.217 328.777 542.468 329.366 542.468C330.538 542.468 330.645 542.813 331.661 549.904C332.421 555.201 332.171 556.396 330.043 557.653C325.154 560.541 322.623 557.545 321.815 547.912C321.505 544.221 321.584 543.558 322.368 543.257C322.871 543.064 323.282 542.528 323.282 542.066C323.282 541.371 322.729 541.29 320.079 541.601C318.318 541.808 316.438 542.104 315.902 542.26C314.457 542.68 314.7 544.139 316.215 544.139C317.428 544.139 317.558 544.499 318.422 550.253C319.515 557.524 320.422 559.529 323.131 560.661C325.598 561.691 328.036 561.299 330.795 559.427C332.819 558.053 332.852 558.05 333.148 559.182C333.422 560.228 333.557 560.259 334.673 559.528C335.347 559.087 336.506 558.639 337.249 558.535C338.124 558.411 338.661 557.926 338.77 557.162C338.909 556.183 338.707 556.024 337.596 556.237C336.051 556.532 336.05 556.528 334.935 547.909C334.289 542.916 334.311 542.401 335.221 541.396C336.801 539.649 336.074 539.33 331.917 539.943ZM246.108 540.172C245.442 540.837 245.974 541.911 246.968 541.911C248.329 541.911 248.339 541.454 246.762 551.781C246.051 556.443 245.679 560.328 245.936 560.415C246.194 560.501 247.659 560.485 249.193 560.378C251.495 560.219 251.981 560.001 251.981 559.125C251.981 558.418 251.59 558.065 250.805 558.065C249.784 558.065 249.671 557.827 249.949 556.255C250.125 555.259 250.574 552.197 250.948 549.45C251.488 545.476 251.891 544.21 252.918 543.258C253.629 542.6 254.21 541.823 254.21 541.532C254.21 540.992 246.57 539.71 246.108 540.172ZM263.404 552.077C256.458 567.443 255.47 569.248 253.614 569.948C251.896 570.597 251.51 571.317 252.678 571.694C253.061 571.817 255.066 572.009 257.134 572.12C260.456 572.299 260.894 572.206 260.894 571.321C260.894 570.625 260.47 570.32 259.501 570.32C258.736 570.32 258.109 570.198 258.109 570.05C258.109 569.902 259.888 565.828 262.062 560.998C264.237 556.168 266.259 551.589 266.558 550.824C267.061 549.531 267.141 549.504 267.675 550.459C268.805 552.478 273.706 567.8 273.706 569.313C273.706 570.494 273.38 570.938 272.313 571.205C269.9 571.811 270.715 572.925 273.845 573.301C278.956 573.915 281.505 573.757 281.505 572.827C281.505 572.307 280.979 571.991 280.112 571.991C279.06 571.991 278.719 571.699 278.719 570.798C278.719 570.141 276.652 563.5 274.124 556.04C270.691 545.908 269.303 542.474 268.637 542.471C268.022 542.469 266.403 545.442 263.404 552.077ZM367.4 558.733C365.576 560.558 367.93 564.225 370.16 563.032C372.122 561.982 371.176 558.065 368.96 558.065C368.469 558.065 367.768 558.366 367.4 558.733ZM213.597 561.067C213.218 561.524 212.989 562.602 213.088 563.463C213.227 564.674 213.593 565.066 214.708 565.196C216.514 565.406 217.579 564.171 217.346 562.137C217.207 560.926 216.841 560.534 215.726 560.404C214.934 560.312 213.976 560.61 213.597 561.067ZM244.548 567.439C243.335 568.779 243.383 569.927 244.7 571.119C246.898 573.109 249.579 570.332 248.11 567.587C247.341 566.149 245.774 566.085 244.548 567.439Z" fill="#C5E3FE"/>
</svg>
