<svg width="513" height="51" viewBox="0 0 513 51" fill="none" xmlns="http://www.w3.org/2000/svg">
<g clip-path="url(#clip0_1691_5698)">
<path d="M8.3208 48.7261C12.5344 48.7261 15.9541 45.3064 15.9541 41.0928V33.4595H8.3208C4.10722 33.4595 0.6875 36.8792 0.6875 41.0928C0.6875 45.3064 4.10722 48.7261 8.3208 48.7261Z" fill="#0ACF83"/>
<path d="M0.6875 25.8267C0.6875 21.6131 4.10722 18.1934 8.3208 18.1934H15.9541V33.46H8.3208C4.10722 33.46 0.6875 30.0403 0.6875 25.8267Z" fill="#A259FF"/>
<path d="M0.6875 10.5596C0.6875 6.34599 4.10722 2.92627 8.3208 2.92627H15.9541V18.1929H8.3208C4.10722 18.1929 0.6875 14.7732 0.6875 10.5596Z" fill="#F24E1E"/>
<path d="M15.9531 2.92627H23.5864C27.8 2.92627 31.2197 6.34599 31.2197 10.5596C31.2197 14.7732 27.8 18.1929 23.5864 18.1929H15.9531V2.92627Z" fill="#FF7262"/>
<path d="M31.2197 25.8267C31.2197 30.0403 27.8 33.46 23.5864 33.46C19.3728 33.46 15.9531 30.0403 15.9531 25.8267C15.9531 21.6131 19.3728 18.1934 23.5864 18.1934C27.8 18.1934 31.2197 21.6131 31.2197 25.8267Z" fill="#1ABCFE"/>
</g>
<path d="M79.4717 4.60724L59.7168 11.6519L62.7299 37.7725L79.4717 47.0452L96.2134 37.7725L99.2265 11.6519L79.4717 4.60724Z" fill="#DD0031"/>
<path d="M79.4707 4.60724V9.31785V9.29663V47.0452L96.2125 37.7725L99.2256 11.6519L79.4707 4.60724Z" fill="#C3002F"/>
<path d="M79.4705 9.29657L67.1211 36.9873H71.7256L74.2082 30.7914H84.6904L87.173 36.9873H91.7775L79.4705 9.29657ZM83.0778 26.972H75.8633L79.4705 18.2934L83.0778 26.972Z" fill="white"/>
<g clip-path="url(#clip1_1691_5698)">
<path d="M127.721 40.888L128.018 40.4716L142.086 13.7782L142.116 13.4956L135.914 1.8471C135.395 0.871358 133.932 1.1181 133.762 2.21041L127.721 40.888Z" fill="#FFC24A"/>
<path d="M127.896 40.5705L128.121 40.1319L142.042 13.7182L135.856 2.02228C135.342 1.05677 134.036 1.30295 133.868 2.38377L127.896 40.5705Z" fill="#FFA712"/>
<g filter="url(#filter0_i_1691_5698)">
<path d="M127.896 40.5705L128.121 40.1319L142.042 13.7182L135.856 2.02228C135.342 1.05677 134.036 1.30295 133.868 2.38377L127.896 40.5705Z" fill="black"/>
</g>
<path d="M146.638 22.3067L151.255 17.5779L146.636 8.76066C146.198 7.92601 144.974 7.92349 144.54 8.76066L142.072 13.4666V13.8673L146.638 22.3067Z" fill="#F4BD62"/>
<path d="M146.554 22.1095L151.043 17.5122L146.554 8.96434C146.127 8.15295 145.092 8.0679 144.67 8.88167L142.189 13.6608L142.115 13.9051L146.554 22.1095Z" fill="#FFA50E"/>
<g filter="url(#filter1_i_1691_5698)">
<path d="M146.554 22.1095L151.043 17.5122L146.554 8.96434C146.127 8.15295 145.092 8.0679 144.67 8.88167L142.189 13.6608L142.115 13.9051L146.554 22.1095Z" fill="black"/>
</g>
<path d="M127.721 40.8879L127.855 40.7523L128.345 40.5533L146.347 22.619L146.575 21.9981L142.084 13.4409L127.721 40.8879Z" fill="#F6820C"/>
<path d="M147.213 49.9327L163.505 40.8468L158.853 12.1946C158.707 11.2981 157.607 10.9438 156.966 11.5865L127.721 40.888L143.919 49.932C144.422 50.213 144.989 50.3606 145.566 50.3608C146.143 50.3609 146.71 50.2135 147.213 49.9327Z" fill="#FDE068"/>
<path d="M163.36 40.7705L158.743 12.3358C158.598 11.4461 157.684 11.078 157.047 11.716L127.902 40.8321L143.923 49.7864C144.422 50.0654 144.985 50.212 145.557 50.2121C146.129 50.2123 146.692 50.066 147.192 49.7873L163.36 40.7705Z" fill="#FCCA3F"/>
<path d="M147.213 49.665C146.709 49.9458 146.142 50.0931 145.566 50.093C144.989 50.0929 144.422 49.9453 143.919 49.6643L127.851 40.7503L127.721 40.888L143.919 49.932C144.422 50.2131 144.989 50.3607 145.566 50.3608C146.142 50.3609 146.71 50.2136 147.213 49.9327L163.505 40.8469L163.465 40.6014L147.213 49.665Z" fill="#EEAB37"/>
</g>
<g clip-path="url(#clip2_1691_5698)">
<path d="M197.216 31.7296C197.216 34.3179 195.105 36.4319 192.516 36.4319C189.928 36.4319 187.814 34.3179 187.814 31.7296C187.814 29.1414 189.928 27.0274 192.517 27.0274H197.216L197.216 31.7296ZM199.585 31.7296C199.585 29.1414 201.699 27.0274 204.287 27.0274C206.875 27.0274 208.989 29.1411 208.989 31.7296V43.5003C208.989 46.0885 206.876 48.2025 204.287 48.2025C201.699 48.2025 199.585 46.0885 199.585 43.5003V31.7296Z" fill="#DE1C59"/>
<path d="M204.287 12.8513C201.699 12.8513 199.585 10.7405 199.585 8.1519C199.585 5.56332 201.699 3.45001 204.287 3.45001C206.875 3.45001 208.989 5.56403 208.989 8.15225V12.8517L204.287 12.8513ZM204.287 15.2203C206.875 15.2203 208.989 17.3343 208.989 19.9225C208.989 22.5107 206.876 24.6247 204.287 24.6247H192.516C189.928 24.6247 187.814 22.5111 187.814 19.9225C187.814 17.3343 189.928 15.2203 192.517 15.2203H204.287Z" fill="#35C5F0"/>
<path d="M223.164 19.9225C223.164 17.3343 225.275 15.2203 227.863 15.2203C230.452 15.2203 232.566 17.3343 232.566 19.9225C232.566 22.5107 230.452 24.6247 227.863 24.6247H223.164V19.9225ZM220.795 19.9225C220.795 22.5107 218.681 24.6247 216.093 24.6247C213.505 24.6247 211.391 22.5111 211.391 19.9225V8.1519C211.391 5.56367 213.504 3.45001 216.093 3.45001C218.681 3.45001 220.795 5.56403 220.795 8.15225V19.9225Z" fill="#2EB57D"/>
<path d="M216.093 38.8008C218.681 38.8008 220.795 40.9117 220.795 43.5003C220.795 46.0888 218.681 48.2025 216.093 48.2025C213.505 48.2025 211.391 46.0885 211.391 43.5003V38.8008H216.093ZM216.093 36.4319C213.505 36.4319 211.391 34.3179 211.391 31.7296C211.391 29.1414 213.504 27.0274 216.093 27.0274H227.863C230.452 27.0274 232.566 29.1411 232.566 31.7296C232.566 34.3179 230.452 36.4319 227.863 36.4319H216.093Z" fill="#EBB02E"/>
</g>
<g clip-path="url(#clip3_1691_5698)">
<path d="M260.21 40.2462L262.207 43.6949C262.622 44.4211 263.218 44.9916 263.918 45.4065C265.924 42.8609 267.32 40.9074 268.106 39.546C268.904 38.1645 269.885 36.0036 271.049 33.0633C267.912 32.6504 265.536 32.444 263.918 32.444C262.366 32.444 259.989 32.6504 256.787 33.0633C256.787 33.8671 256.995 34.671 257.409 35.3971L260.21 40.2462Z" fill="#0066DA"/>
<path d="M294.931 45.4065C295.632 44.9916 296.228 44.4211 296.643 43.6951L297.472 42.2689L301.44 35.3971C301.847 34.6867 302.062 33.8822 302.062 33.0633C298.842 32.6504 296.469 32.444 294.944 32.444C293.306 32.444 290.933 32.6504 287.826 33.0633C288.976 36.0198 289.944 38.1807 290.731 39.546C291.523 40.9235 292.924 42.877 294.931 45.4065Z" fill="#EA4335"/>
<path d="M279.426 18.5416C281.746 15.7392 283.345 13.5783 284.223 12.0589C284.93 10.8354 285.708 8.88186 286.557 6.19835C285.857 5.78344 285.053 5.57599 284.223 5.57599H274.629C273.799 5.57599 272.995 5.80944 272.295 6.19835C273.375 9.27602 274.291 11.4663 275.044 12.7693C275.876 14.2093 277.337 16.1334 279.426 18.5416Z" fill="#00832D"/>
<path d="M287.8 33.0631H271.049L263.918 45.4063C264.618 45.8212 265.422 46.0287 266.252 46.0287H292.598C293.427 46.0287 294.231 45.7952 294.931 45.4062L287.8 33.0631Z" fill="#2684FC"/>
<path d="M279.425 18.5416L272.294 6.19861C271.594 6.61352 270.997 7.18388 270.583 7.91006L257.409 30.7294C257.002 31.4398 256.788 32.2443 256.787 33.0632H271.049L279.425 18.5416Z" fill="#00AC47"/>
<path d="M294.855 19.3196L288.268 7.90987C287.853 7.1837 287.257 6.61333 286.557 6.19843L279.426 18.5416L287.801 33.0632H302.038C302.038 32.2592 301.83 31.4556 301.415 30.7294L294.855 19.3196Z" fill="#FFBA00"/>
</g>
<g clip-path="url(#clip4_1691_5698)">
<path d="M353.863 33.0314C353.863 36.8715 352.723 39.9306 350.445 42.2088C347.885 44.9222 344.519 46.2789 340.347 46.2789C336.353 46.2789 332.974 44.8966 330.209 42.132C327.445 39.3672 326.062 35.9627 326.062 31.9182C326.062 27.8734 327.445 24.4689 330.209 21.7044C332.974 18.9397 336.353 17.5573 340.347 17.5573C342.369 17.5573 344.276 17.9157 346.068 18.6323C347.86 19.349 349.332 20.3602 350.484 21.6658L347.95 24.1999C347.105 23.1761 346.011 22.3762 344.667 21.8002C343.322 21.2242 341.882 20.9362 340.347 20.9362C337.352 20.9362 334.817 21.973 332.744 24.0465C330.696 26.1456 329.672 28.7695 329.672 31.9182C329.672 35.0669 330.696 37.6907 332.744 39.7897C334.817 41.8632 337.352 42.8999 340.347 42.8999C343.086 42.8999 345.364 42.132 347.182 40.5961C348.999 39.0601 350.049 36.9482 350.33 34.2603H340.347V30.958H353.671C353.799 31.6749 353.863 32.3662 353.863 33.0316" fill="url(#paint0_radial_1691_5698)"/>
<path d="M364.953 26.3132C367.771 26.3132 370.014 27.2247 371.682 29.0476C373.35 30.8706 374.184 33.4241 374.184 36.708L374.145 37.0959H359.212C359.264 38.9576 359.885 40.4573 361.074 41.5951C362.263 42.7326 363.686 43.3014 365.34 43.3014C367.616 43.3014 369.4 42.1638 370.693 39.8885L373.874 41.4399C373.02 43.0431 371.837 44.2972 370.325 45.2022C368.812 46.1073 367.099 46.5598 365.185 46.5598C362.393 46.5598 360.091 45.603 358.281 43.6895C356.471 41.7759 355.566 39.3583 355.566 36.4365C355.566 33.5404 356.446 31.1291 358.204 29.2028C359.962 27.2764 362.212 26.3132 364.953 26.3132ZM364.875 29.5714C363.531 29.5714 362.373 29.9851 361.404 30.8124C360.434 31.6399 359.794 32.7517 359.484 34.1478H370.383C370.279 32.8293 369.743 31.7369 368.773 30.8707C367.803 30.0045 366.504 29.5715 364.875 29.5714Z" fill="url(#paint1_radial_1691_5698)"/>
<path d="M380.034 45.8795H376.477V26.932H379.88V29.5615H380.034C380.576 28.6335 381.407 27.8601 382.528 27.2415C383.65 26.6225 384.765 26.3131 385.873 26.3132C387.265 26.3132 388.49 26.6355 389.547 27.2801C390.603 27.9245 391.377 28.8138 391.867 29.948C393.439 27.5248 395.618 26.3132 398.402 26.3132C400.593 26.3132 402.281 26.9836 403.467 28.3242C404.653 29.6646 405.246 31.5721 405.246 34.047V45.8795H401.689V34.5884C401.689 32.8096 401.366 31.527 400.722 30.7409C400.077 29.9546 398.995 29.5615 397.474 29.5615C396.107 29.5615 394.96 30.1415 394.032 31.3016C393.104 32.4615 392.64 33.8278 392.64 35.4003V45.8795H389.083V34.5884C389.083 32.8096 388.76 31.527 388.116 30.7409C387.471 29.9546 386.389 29.5615 384.868 29.5615C383.501 29.5615 382.354 30.1415 381.426 31.3016C380.498 32.4615 380.034 33.8278 380.034 35.4003V45.8795Z" fill="url(#paint2_radial_1691_5698)"/>
<path d="M412.871 20.3557C412.871 21.0528 412.626 21.6466 412.135 22.1371C411.644 22.6279 411.051 22.8733 410.354 22.8733C409.656 22.8733 409.063 22.628 408.572 22.1373C408.081 21.6467 407.836 21.0528 407.836 20.3557C407.836 19.6585 408.081 19.0646 408.572 18.5741C409.063 18.0835 409.656 17.8381 410.353 17.8381C411.051 17.8381 411.645 18.0835 412.135 18.5741C412.626 19.0647 412.871 19.6585 412.871 20.3555M412.135 26.901V45.8794H408.572V26.9012L412.135 26.901Z" fill="url(#paint3_linear_1691_5698)"/>
<path d="M439.08 20.3557C439.08 21.0528 438.835 21.6466 438.344 22.1371C437.853 22.6279 437.26 22.8733 436.563 22.8733C435.865 22.8733 435.271 22.628 434.781 22.1373C434.29 21.6467 434.045 21.0528 434.045 20.3557C434.045 19.6585 434.29 19.0646 434.781 18.5741C435.272 18.0835 435.865 17.8381 436.562 17.8381C437.26 17.8381 437.853 18.0835 438.344 18.5741C438.835 19.0647 439.08 19.6585 439.08 20.3555M438.344 26.901V45.8794H434.781V26.9012L438.344 26.901Z" fill="url(#paint4_radial_1691_5698)"/>
<path d="M415.242 26.932H418.645V29.5615H418.799C419.341 28.6335 420.172 27.8601 421.294 27.2415C422.415 26.6225 423.582 26.3131 424.793 26.3132C427.113 26.3132 428.898 26.9771 430.149 28.3048C431.399 29.6322 432.024 31.5205 432.024 33.9697V45.8795H428.467V34.2017C428.389 31.1082 426.83 29.5615 423.788 29.5615C422.37 29.5615 421.184 30.135 420.23 31.2822C419.276 32.4293 418.8 33.802 418.8 35.4003V45.8795H415.242V26.932Z" fill="url(#paint5_linear_1691_5698)"/>
<path d="M402.964 21.1376C402.336 16.9902 399.081 13.7354 394.934 13.1069C399.081 12.4785 402.336 9.22339 402.964 5.07629C403.593 9.22339 406.848 12.4785 410.995 13.1069C406.848 13.7354 403.593 16.9902 402.964 21.1376Z" fill="#076EFF"/>
</g>
<path d="M487.999 5.06122C485.272 5.06122 482.572 5.59832 480.053 6.64186C477.534 7.6854 475.245 9.21493 473.316 11.1431C469.422 15.0373 467.234 20.319 467.234 25.8262C467.234 35.0043 473.194 42.7912 481.438 45.5529C482.476 45.719 482.808 45.0753 482.808 44.5147V41.0054C477.056 42.2513 475.831 38.2229 475.831 38.2229C474.876 35.8141 473.526 35.1704 473.526 35.1704C471.637 33.883 473.672 33.9245 473.672 33.9245C475.748 34.0699 476.849 36.0633 476.849 36.0633C478.655 39.2196 481.708 38.2852 482.891 37.7868C483.078 36.4371 483.618 35.5234 484.199 35.0043C479.59 34.4852 474.751 32.6994 474.751 24.7879C474.751 22.483 475.54 20.6349 476.89 19.1606C476.682 18.6415 475.956 16.482 477.098 13.6787C477.098 13.6787 478.842 13.118 482.808 15.7967C484.449 15.3399 486.234 15.1115 487.999 15.1115C489.764 15.1115 491.55 15.3399 493.191 15.7967C497.157 13.118 498.901 13.6787 498.901 13.6787C500.043 16.482 499.316 18.6415 499.109 19.1606C500.458 20.6349 501.247 22.483 501.247 24.7879C501.247 32.7202 496.388 34.4644 491.758 34.9835C492.505 35.6273 493.191 36.8939 493.191 38.8251V44.5147C493.191 45.0753 493.523 45.7398 494.582 45.5529C502.826 42.7704 508.764 35.0043 508.764 25.8262C508.764 23.0993 508.227 20.3991 507.184 17.8798C506.14 15.3605 504.611 13.0713 502.682 11.1431C500.754 9.21493 498.465 7.6854 495.946 6.64186C493.426 5.59832 490.726 5.06122 487.999 5.06122Z" fill="black"/>
<defs>
<filter id="filter0_i_1691_5698" x="127.896" y="1.41888" width="14.1445" height="39.1517" filterUnits="userSpaceOnUse" color-interpolation-filters="sRGB">
<feFlood flood-opacity="0" result="BackgroundImageFix"/>
<feBlend mode="normal" in="SourceGraphic" in2="BackgroundImageFix" result="shape"/>
<feColorMatrix in="SourceAlpha" type="matrix" values="0 0 0 0 0 0 0 0 0 0 0 0 0 0 0 0 0 0 127 0" result="hardAlpha"/>
<feOffset/>
<feGaussianBlur stdDeviation="2.45197"/>
<feComposite in2="hardAlpha" operator="arithmetic" k2="-1" k3="1"/>
<feColorMatrix type="matrix" values="0 0 0 0 0 0 0 0 0 0 0 0 0 0 0 0 0 0 0.06 0"/>
<feBlend mode="normal" in2="shape" result="effect1_innerShadow_1691_5698"/>
</filter>
<filter id="filter1_i_1691_5698" x="142.115" y="7.33116" width="9.06785" height="14.7784" filterUnits="userSpaceOnUse" color-interpolation-filters="sRGB">
<feFlood flood-opacity="0" result="BackgroundImageFix"/>
<feBlend mode="normal" in="SourceGraphic" in2="BackgroundImageFix" result="shape"/>
<feColorMatrix in="SourceAlpha" type="matrix" values="0 0 0 0 0 0 0 0 0 0 0 0 0 0 0 0 0 0 127 0" result="hardAlpha"/>
<feOffset dx="0.140112" dy="-1.26101"/>
<feGaussianBlur stdDeviation="0.490393"/>
<feComposite in2="hardAlpha" operator="arithmetic" k2="-1" k3="1"/>
<feColorMatrix type="matrix" values="0 0 0 0 0 0 0 0 0 0 0 0 0 0 0 0 0 0 0.09 0"/>
<feBlend mode="normal" in2="shape" result="effect1_innerShadow_1691_5698"/>
</filter>
<radialGradient id="paint0_radial_1691_5698" cx="0" cy="0" r="1" gradientUnits="userSpaceOnUse" gradientTransform="translate(-2035.47 652.948) rotate(151.125) scale(2845.44 2292.99)">
<stop stop-color="#5BAEFF"/>
<stop offset="1" stop-color="#9CBFFF"/>
</radialGradient>
<radialGradient id="paint1_radial_1691_5698" cx="0" cy="0" r="1" gradientUnits="userSpaceOnUse" gradientTransform="translate(-403.178 1003.5) rotate(99.2037) scale(1382.71 1628.89)">
<stop stop-color="#409DFF"/>
<stop offset="1" stop-color="#64B0FF"/>
</radialGradient>
<radialGradient id="paint2_radial_1691_5698" cx="0" cy="0" r="1" gradientUnits="userSpaceOnUse" gradientTransform="translate(-190.052 1446) rotate(99.4857) scale(3138.2 1497.35)">
<stop stop-color="#177CFF"/>
<stop offset="1" stop-color="#4DA4FF"/>
</radialGradient>
<linearGradient id="paint3_linear_1691_5698" x1="653.989" y1="264.853" x2="653.989" y2="2821.96" gradientUnits="userSpaceOnUse">
<stop stop-color="#076EFF"/>
<stop offset="1" stop-color="#3E93FF"/>
</linearGradient>
<radialGradient id="paint4_radial_1691_5698" cx="0" cy="0" r="1" gradientUnits="userSpaceOnUse" gradientTransform="translate(-300.657 -103.68) rotate(21.4308) scale(1173.47 5874.77)">
<stop stop-color="#1C7AFF"/>
<stop offset="1" stop-color="#8FB9FF"/>
</radialGradient>
<linearGradient id="paint5_linear_1691_5698" x1="637.05" y1="26.3132" x2="1972.53" y2="1676.67" gradientUnits="userSpaceOnUse">
<stop stop-color="#076EFF"/>
<stop offset="1" stop-color="#69A3FF"/>
</linearGradient>
<clipPath id="clip0_1691_5698">
<rect width="30.5332" height="45.7998" fill="white" transform="translate(0.6875 2.92627)"/>
</clipPath>
<clipPath id="clip1_1691_5698">
<rect width="35.8688" height="49.1794" fill="white" transform="translate(127.721 1.23645)"/>
</clipPath>
<clipPath id="clip2_1691_5698">
<rect width="45.1969" height="45.1969" fill="white" transform="translate(187.59 3.22772)"/>
</clipPath>
<clipPath id="clip3_1691_5698">
<rect width="45.2754" height="40.5003" fill="white" transform="translate(256.787 5.57605)"/>
</clipPath>
<clipPath id="clip4_1691_5698">
<rect width="113.02" height="41.4997" fill="white" transform="translate(326.062 5.07629)"/>
</clipPath>
</defs>
</svg>
