<svg width="21" height="22" viewBox="0 0 21 22" fill="none" xmlns="http://www.w3.org/2000/svg">
<path d="M16.7344 20.2793H7.54687C6.76366 20.2793 6.01252 19.9681 5.4587 19.4143C4.90488 18.8605 4.59375 18.1094 4.59375 17.3262V8.13867C4.59375 7.35545 4.90488 6.60431 5.4587 6.0505C6.01252 5.49668 6.76366 5.18555 7.54687 5.18555H16.7344C17.5176 5.18555 18.2687 5.49668 18.8225 6.0505C19.3764 6.60431 19.6875 7.35545 19.6875 8.13867V17.3262C19.6875 18.1094 19.3764 18.8605 18.8225 19.4143C18.2687 19.9681 17.5176 20.2793 16.7344 20.2793Z" fill="#C5E3FE"/>
<path d="M6.56249 3.87304H16.2372C16.0331 3.2977 15.6559 2.79961 15.1574 2.44713C14.6589 2.09465 14.0636 1.90503 13.4531 1.9043H4.26562C3.4824 1.9043 2.73127 2.21543 2.17745 2.76925C1.62363 3.32306 1.3125 4.0742 1.3125 4.85742V14.0449C1.31324 14.6554 1.50285 15.2507 1.85534 15.7492C2.20782 16.2477 2.7059 16.6249 3.28125 16.829V7.15429C3.28125 6.28405 3.62695 5.44945 4.2423 4.8341C4.85766 4.21875 5.69225 3.87304 6.56249 3.87304Z" fill="#C5E3FE"/>
</svg>
