<svg width="25" height="25" viewBox="0 0 25 25" fill="none" xmlns="http://www.w3.org/2000/svg">
<path d="M21.5 14.5918C21.2348 14.5918 20.9804 14.6972 20.7929 14.8847C20.6054 15.0722 20.5 15.3266 20.5 15.5918V19.5918C20.5 19.857 20.3946 20.1114 20.2071 20.2989C20.0196 20.4864 19.7652 20.5918 19.5 20.5918H5.5C5.23478 20.5918 4.98043 20.4864 4.79289 20.2989C4.60536 20.1114 4.5 19.857 4.5 19.5918V15.5918C4.5 15.3266 4.39464 15.0722 4.20711 14.8847C4.01957 14.6972 3.76522 14.5918 3.5 14.5918C3.23478 14.5918 2.98043 14.6972 2.79289 14.8847C2.60536 15.0722 2.5 15.3266 2.5 15.5918V19.5918C2.5 20.3874 2.81607 21.1505 3.37868 21.7131C3.94129 22.2757 4.70435 22.5918 5.5 22.5918H19.5C20.2956 22.5918 21.0587 22.2757 21.6213 21.7131C22.1839 21.1505 22.5 20.3874 22.5 19.5918V15.5918C22.5 15.3266 22.3946 15.0722 22.2071 14.8847C22.0196 14.6972 21.7652 14.5918 21.5 14.5918ZM11.79 16.3018C11.8851 16.3928 11.9972 16.4642 12.12 16.5118C12.2397 16.5647 12.3691 16.592 12.5 16.592C12.6309 16.592 12.7603 16.5647 12.88 16.5118C13.0028 16.4642 13.1149 16.3928 13.21 16.3018L17.21 12.3018C17.3983 12.1135 17.5041 11.8581 17.5041 11.5918C17.5041 11.3255 17.3983 11.0701 17.21 10.8818C17.0217 10.6935 16.7663 10.5877 16.5 10.5877C16.2337 10.5877 15.9783 10.6935 15.79 10.8818L13.5 13.1818V3.5918C13.5 3.32658 13.3946 3.07223 13.2071 2.88469C13.0196 2.69715 12.7652 2.5918 12.5 2.5918C12.2348 2.5918 11.9804 2.69715 11.7929 2.88469C11.6054 3.07223 11.5 3.32658 11.5 3.5918V13.1818L9.21 10.8818C9.11676 10.7886 9.00607 10.7146 8.88425 10.6641C8.76243 10.6137 8.63186 10.5877 8.5 10.5877C8.36814 10.5877 8.23757 10.6137 8.11575 10.6641C7.99393 10.7146 7.88324 10.7886 7.79 10.8818C7.69676 10.975 7.6228 11.0857 7.57234 11.2075C7.52188 11.3294 7.49591 11.4599 7.49591 11.5918C7.49591 11.7237 7.52188 11.8542 7.57234 11.976C7.6228 12.0979 7.69676 12.2086 7.79 12.3018L11.79 16.3018Z" fill="#C5E3FE"/>
</svg>
