<svg width="32" height="31" viewBox="0 0 32 31" fill="none" xmlns="http://www.w3.org/2000/svg">
<path d="M15.6667 2.58301C13.9704 2.58301 12.2908 2.91711 10.7237 3.56623C9.15655 4.21535 7.73263 5.16679 6.5332 6.36621C4.11086 8.78856 2.75 12.074 2.75 15.4997C2.75 21.2088 6.45708 26.0526 11.585 27.7705C12.2308 27.8738 12.4375 27.4734 12.4375 27.1247V24.9418C8.85958 25.7168 8.0975 23.2109 8.0975 23.2109C7.50333 21.7126 6.66375 21.3122 6.66375 21.3122C5.48833 20.5113 6.75417 20.5372 6.75417 20.5372C8.04583 20.6276 8.73042 21.8676 8.73042 21.8676C9.85417 23.8309 11.7529 23.2497 12.4892 22.9397C12.6054 22.1001 12.9413 21.5318 13.3029 21.2088C10.4354 20.8859 7.42583 19.7751 7.42583 14.8538C7.42583 13.4201 7.91667 12.2705 8.75625 11.3534C8.62708 11.0305 8.175 9.68718 8.88542 7.94342C8.88542 7.94342 9.97042 7.59468 12.4375 9.26092C13.4579 8.97676 14.5688 8.83467 15.6667 8.83467C16.7646 8.83467 17.8754 8.97676 18.8958 9.26092C21.3629 7.59468 22.4479 7.94342 22.4479 7.94342C23.1583 9.68718 22.7063 11.0305 22.5771 11.3534C23.4167 12.2705 23.9075 13.4201 23.9075 14.8538C23.9075 19.788 20.885 20.873 18.0046 21.1959C18.4696 21.5963 18.8958 22.3843 18.8958 23.5855V27.1247C18.8958 27.4734 19.1025 27.8868 19.7613 27.7705C24.8892 26.0397 28.5833 21.2088 28.5833 15.4997C28.5833 13.8034 28.2492 12.1238 27.6001 10.5567C26.951 8.98956 25.9996 7.56564 24.8001 6.36621C23.6007 5.16679 22.1768 4.21535 20.6097 3.56623C19.0425 2.91711 17.3629 2.58301 15.6667 2.58301Z" fill="#51C447"/>
</svg>
