<svg width="32" height="33" viewBox="0 0 32 33" fill="none" xmlns="http://www.w3.org/2000/svg">
<path d="M10.6836 3.44482H21.6502C25.828 3.44482 29.2224 6.83927 29.2224 11.017V21.9837C29.2224 23.992 28.4247 25.918 27.0046 27.3381C25.5845 28.7582 23.6585 29.5559 21.6502 29.5559H10.6836C6.50577 29.5559 3.11133 26.1615 3.11133 21.9837V11.017C3.11133 9.00877 3.90911 7.08274 5.32918 5.66268C6.74925 4.24261 8.67527 3.44482 10.6836 3.44482ZM10.4224 6.05594C9.17592 6.05594 7.98046 6.55111 7.09904 7.43253C6.21762 8.31395 5.72244 9.50942 5.72244 10.7559V22.2448C5.72244 24.8429 7.82438 26.9448 10.4224 26.9448H21.9113C23.1578 26.9448 24.3533 26.4496 25.2347 25.5682C26.1162 24.6868 26.6113 23.4913 26.6113 22.2448V10.7559C26.6113 8.15788 24.5094 6.05594 21.9113 6.05594H10.4224ZM23.0211 8.01427C23.4539 8.01427 23.869 8.18621 24.175 8.49225C24.4811 8.7983 24.653 9.21339 24.653 9.64621C24.653 10.079 24.4811 10.4941 24.175 10.8002C23.869 11.1062 23.4539 11.2782 23.0211 11.2782C22.5882 11.2782 22.1731 11.1062 21.8671 10.8002C21.561 10.4941 21.3891 10.079 21.3891 9.64621C21.3891 9.21339 21.561 8.7983 21.8671 8.49225C22.1731 8.18621 22.5882 8.01427 23.0211 8.01427ZM16.1669 9.9726C17.8982 9.9726 19.5585 10.6603 20.7827 11.8845C22.0069 13.1087 22.6947 14.7691 22.6947 16.5004C22.6947 18.2317 22.0069 19.892 20.7827 21.1162C19.5585 22.3404 17.8982 23.0282 16.1669 23.0282C14.4356 23.0282 12.7752 22.3404 11.551 21.1162C10.3269 19.892 9.63911 18.2317 9.63911 16.5004C9.63911 14.7691 10.3269 13.1087 11.551 11.8845C12.7752 10.6603 14.4356 9.9726 16.1669 9.9726ZM16.1669 12.5837C15.1281 12.5837 14.1319 12.9964 13.3974 13.7309C12.6629 14.4654 12.2502 15.4616 12.2502 16.5004C12.2502 17.5391 12.6629 18.5354 13.3974 19.2699C14.1319 20.0044 15.1281 20.417 16.1669 20.417C17.2056 20.417 18.2019 20.0044 18.9364 19.2699C19.6709 18.5354 20.0836 17.5391 20.0836 16.5004C20.0836 15.4616 19.6709 14.4654 18.9364 13.7309C18.2019 12.9964 17.2056 12.5837 16.1669 12.5837Z" fill="#51C447"/>
</svg>
