<svg width="32" height="32" viewBox="0 0 32 32" fill="none" xmlns="http://www.w3.org/2000/svg">
<path d="M10.517 2.61133H21.4837C25.6615 2.61133 29.0559 6.00577 29.0559 10.1836V21.1502C29.0559 23.1585 28.2582 25.0845 26.8381 26.5046C25.418 27.9247 23.492 28.7224 21.4837 28.7224H10.517C6.33927 28.7224 2.94482 25.328 2.94482 21.1502V10.1836C2.94482 8.17527 3.74261 6.24925 5.16268 4.82918C6.58274 3.40911 8.50877 2.61133 10.517 2.61133ZM10.2559 5.22244C9.00942 5.22244 7.81395 5.71762 6.93253 6.59904C6.05111 7.48046 5.55594 8.67592 5.55594 9.92244V21.4113C5.55594 24.0094 7.65788 26.1113 10.2559 26.1113H21.7448C22.9913 26.1113 24.1868 25.6162 25.0682 24.7347C25.9496 23.8533 26.4448 22.6578 26.4448 21.4113V9.92244C26.4448 7.32438 24.3429 5.22244 21.7448 5.22244H10.2559ZM22.8545 7.18077C23.2874 7.18077 23.7025 7.35271 24.0085 7.65876C24.3146 7.96481 24.4865 8.3799 24.4865 8.81272C24.4865 9.24554 24.3146 9.66063 24.0085 9.96668C23.7025 10.2727 23.2874 10.4447 22.8545 10.4447C22.4217 10.4447 22.0066 10.2727 21.7006 9.96668C21.3945 9.66063 21.2226 9.24554 21.2226 8.81272C21.2226 8.3799 21.3945 7.96481 21.7006 7.65876C22.0066 7.35271 22.4217 7.18077 22.8545 7.18077ZM16.0004 9.13911C17.7317 9.13911 19.392 9.82685 20.6162 11.051C21.8404 12.2752 22.5282 13.9356 22.5282 15.6669C22.5282 17.3982 21.8404 19.0585 20.6162 20.2827C19.392 21.5069 17.7317 22.1947 16.0004 22.1947C14.2691 22.1947 12.6087 21.5069 11.3845 20.2827C10.1603 19.0585 9.4726 17.3982 9.4726 15.6669C9.4726 13.9356 10.1603 12.2752 11.3845 11.051C12.6087 9.82685 14.2691 9.13911 16.0004 9.13911ZM16.0004 11.7502C14.9616 11.7502 13.9654 12.1629 13.2309 12.8974C12.4964 13.6319 12.0837 14.6281 12.0837 15.6669C12.0837 16.7056 12.4964 17.7019 13.2309 18.4364C13.9654 19.1709 14.9616 19.5836 16.0004 19.5836C17.0391 19.5836 18.0354 19.1709 18.7699 18.4364C19.5044 17.7019 19.917 16.7056 19.917 15.6669C19.917 14.6281 19.5044 13.6319 18.7699 12.8974C18.0354 12.1629 17.0391 11.7502 16.0004 11.7502Z" fill="#C5E3FE"/>
</svg>
