<svg width="32" height="32" viewBox="0 0 32 32" fill="none" xmlns="http://www.w3.org/2000/svg">
<path d="M25.9374 3.427H5.39323C4.30697 3.427 3.42572 4.30825 3.42572 5.39452V25.9387C3.42572 27.0249 4.30697 27.9062 5.39323 27.9062H25.9374C27.0236 27.9062 27.9049 27.0249 27.9049 25.9387V5.39452C27.9049 4.30825 27.0236 3.427 25.9374 3.427ZM25.9374 25.9478C12.2352 25.9448 5.38405 25.9417 5.38405 25.9387C5.38711 12.2364 5.39017 5.38534 5.39323 5.38534C19.0954 5.3884 25.9466 5.39146 25.9466 5.39452C25.9435 19.0967 25.9404 25.9478 25.9374 25.9478ZM7.05476 12.6036H10.6869V24.2863H7.05476V12.6036ZM8.87234 11.0064C10.032 11.0064 10.9775 10.0639 10.9775 8.90116C10.9775 8.6247 10.9231 8.35094 10.8173 8.09553C10.7115 7.84011 10.5564 7.60804 10.3609 7.41255C10.1655 7.21706 9.93338 7.06199 9.67796 6.9562C9.42255 6.8504 9.1488 6.79595 8.87234 6.79595C8.59588 6.79595 8.32212 6.8504 8.06671 6.9562C7.81129 7.06199 7.57921 7.21706 7.38373 7.41255C7.18824 7.60804 7.03317 7.84011 6.92738 8.09553C6.82158 8.35094 6.76713 8.6247 6.76713 8.90116C6.76407 10.0639 7.70651 11.0064 8.87234 11.0064ZM16.5925 18.5062C16.5925 16.9823 16.8831 15.5075 18.7711 15.5075C20.6315 15.5075 20.6591 17.2486 20.6591 18.6041V24.2863H24.2881V17.8789C24.2881 14.7333 23.6088 12.3129 19.9339 12.3129C18.1683 12.3129 16.9841 13.2829 16.4976 14.2009H16.4486V12.6036H12.9634V24.2863H16.5925V18.5062Z" fill="#CF5C36"/>
</svg>
