<svg width="33" height="33" viewBox="0 0 33 33" fill="none" xmlns="http://www.w3.org/2000/svg">
<path d="M26.7714 4.26074H6.22728C5.14102 4.26074 4.25977 5.14199 4.25977 6.22826V26.7724C4.25977 27.8587 5.14102 28.7399 6.22728 28.7399H26.7714C27.8577 28.7399 28.7389 27.8587 28.7389 26.7724V6.22826C28.7389 5.14199 27.8577 4.26074 26.7714 4.26074ZM26.7714 26.7816C13.0692 26.7785 6.2181 26.7755 6.2181 26.7724C6.22116 13.0702 6.22422 6.21908 6.22728 6.21908C19.9295 6.22214 26.7806 6.2252 26.7806 6.22826C26.7775 19.9305 26.7745 26.7816 26.7714 26.7816ZM7.8888 13.4374H11.5209V25.1201H7.8888V13.4374ZM9.70638 11.8401C10.8661 11.8401 11.8116 10.8977 11.8116 9.7349C11.8116 9.45844 11.7571 9.18468 11.6513 8.92927C11.5455 8.67385 11.3905 8.44178 11.195 8.24629C10.9995 8.0508 10.7674 7.89573 10.512 7.78994C10.2566 7.68414 9.98284 7.62969 9.70638 7.62969C9.42992 7.62969 9.15617 7.68414 8.90075 7.78994C8.64534 7.89573 8.41326 8.0508 8.21777 8.24629C8.02229 8.44178 7.86722 8.67385 7.76142 8.92927C7.65562 9.18468 7.60117 9.45844 7.60117 9.7349C7.59811 10.8977 8.54056 11.8401 9.70638 11.8401ZM17.4265 19.3399C17.4265 17.8161 17.7172 16.3412 19.6051 16.3412C21.4656 16.3412 21.4931 18.0823 21.4931 19.4378V25.1201H25.1221V18.7126C25.1221 15.5671 24.4428 13.1467 20.7679 13.1467C19.0023 13.1467 17.8182 14.1167 17.3316 15.0346H17.2827V13.4374H13.7975V25.1201H17.4265V19.3399Z" fill="#51C447"/>
</svg>
