<svg width="32" height="33" viewBox="0 0 32 33" fill="none" xmlns="http://www.w3.org/2000/svg">
<path d="M26.2988 4.25635H5.75462C4.66836 4.25635 3.78711 5.1376 3.78711 6.22386V26.768C3.78711 27.8543 4.66836 28.7355 5.75462 28.7355H26.2988C27.385 28.7355 28.2663 27.8543 28.2663 26.768V6.22386C28.2663 5.1376 27.385 4.25635 26.2988 4.25635ZM26.2988 26.7772C12.5966 26.7741 5.74544 26.7711 5.74544 26.768C5.7485 13.0658 5.75156 6.21468 5.75462 6.21468C19.4568 6.21774 26.3079 6.2208 26.3079 6.22386C26.3049 19.9261 26.3018 26.7772 26.2988 26.7772ZM7.41615 13.433H11.0482V25.1157H7.41615V13.433ZM9.23372 11.8357C10.3934 11.8357 11.3389 10.8933 11.3389 9.7305C11.3389 9.45404 11.2845 9.18029 11.1787 8.92487C11.0729 8.66946 10.9178 8.43738 10.7223 8.24189C10.5268 8.04641 10.2948 7.89134 10.0394 7.78554C9.78394 7.67975 9.51018 7.62529 9.23372 7.62529C8.95726 7.62529 8.68351 7.67975 8.4281 7.78554C8.17268 7.89134 7.9406 8.04641 7.74512 8.24189C7.54963 8.43738 7.39456 8.66946 7.28877 8.92487C7.18297 9.18029 7.12852 9.45404 7.12852 9.7305C7.12546 10.8933 8.0679 11.8357 9.23372 11.8357ZM16.9538 19.3355C16.9538 17.8117 17.2445 16.3368 19.1325 16.3368C20.9929 16.3368 21.0204 18.0779 21.0204 19.4334V25.1157H24.6495V18.7082C24.6495 15.5627 23.9702 13.1423 20.2952 13.1423C18.5297 13.1423 17.3455 14.1123 16.859 15.0302H16.81V13.433H13.3248V25.1157H16.9538V19.3355Z" fill="#101720"/>
</svg>
