<svg width="32" height="32" viewBox="0 0 32 32" fill="none" xmlns="http://www.w3.org/2000/svg">
<path d="M25.9374 3.42725H5.39329C4.30703 3.42725 3.42578 4.3085 3.42578 5.39476V25.9389C3.42578 27.0252 4.30703 27.9064 5.39329 27.9064H25.9374C27.0237 27.9064 27.9049 27.0252 27.9049 25.9389V5.39476C27.9049 4.3085 27.0237 3.42725 25.9374 3.42725ZM25.9374 25.9481C12.2352 25.945 5.38411 25.942 5.38411 25.9389C5.38717 12.2367 5.39023 5.38558 5.39329 5.38558C19.0955 5.38864 25.9466 5.3917 25.9466 5.39476C25.9436 19.097 25.9405 25.9481 25.9374 25.9481ZM7.05482 12.6039H10.6869V24.2866H7.05482V12.6039ZM8.8724 11.0066C10.0321 11.0066 10.9776 10.0642 10.9776 8.9014C10.9776 8.62494 10.9232 8.35119 10.8174 8.09577C10.7116 7.84036 10.5565 7.60828 10.361 7.41279C10.1655 7.21731 9.93344 7.06224 9.67802 6.95644C9.42261 6.85064 9.14886 6.79619 8.8724 6.79619C8.59594 6.79619 8.32218 6.85064 8.06677 6.95644C7.81135 7.06224 7.57928 7.21731 7.38379 7.41279C7.1883 7.60828 7.03323 7.84036 6.92744 8.09577C6.82164 8.35119 6.76719 8.62494 6.76719 8.9014C6.76413 10.0642 7.70658 11.0066 8.8724 11.0066ZM16.5925 18.5064C16.5925 16.9826 16.8832 15.5077 18.7712 15.5077C20.6316 15.5077 20.6591 17.2488 20.6591 18.6043V24.2866H24.2882V17.8791C24.2882 14.7336 23.6089 12.3132 19.9339 12.3132C18.1684 12.3132 16.9842 13.2832 16.4977 14.2011H16.4487V12.6039H12.9635V24.2866H16.5925V18.5064Z" fill="#C5E3FE"/>
</svg>
