<svg width="83" height="81" viewBox="0 0 83 81" fill="none" xmlns="http://www.w3.org/2000/svg">
<mask id="path-1-outside-1_99_10364" maskUnits="userSpaceOnUse" x="10" y="23" width="63" height="34" fill="black">
<rect fill="white" x="10" y="23" width="63" height="34"/>
<path d="M13.77 56C12.618 56 11.658 55.04 11.658 53.888V40C11.658 31.168 18.826 24 27.658 24C32.266 24 36.682 25.984 39.69 29.44C40.458 30.336 40.394 31.616 39.498 32.384C38.666 33.152 37.322 33.088 36.554 32.192C34.314 29.632 31.05 28.16 27.658 28.16C21.13 28.16 15.818 33.472 15.818 40V53.888C15.818 55.04 14.922 56 13.77 56ZM70.211 45.184C71.363 45.696 71.619 46.784 71.107 47.872C68.291 52.864 62.979 56 57.155 56C48.259 56 41.283 48.768 41.283 39.872C41.283 31.296 48.259 24 57.155 24C62.979 24 68.291 27.136 71.107 32.128C71.619 33.216 71.363 34.304 70.211 34.816C69.443 35.392 67.971 35.072 67.459 34.048C65.219 30.464 61.315 28.16 57.155 28.16C50.755 28.16 45.443 33.472 45.443 39.872C45.443 46.528 50.755 51.904 57.155 51.904C61.315 51.904 65.219 49.6 67.459 46.016C67.971 44.928 69.443 44.672 70.211 45.184Z"/>
</mask>
<path d="M13.77 56C12.618 56 11.658 55.04 11.658 53.888V40C11.658 31.168 18.826 24 27.658 24C32.266 24 36.682 25.984 39.69 29.44C40.458 30.336 40.394 31.616 39.498 32.384C38.666 33.152 37.322 33.088 36.554 32.192C34.314 29.632 31.05 28.16 27.658 28.16C21.13 28.16 15.818 33.472 15.818 40V53.888C15.818 55.04 14.922 56 13.77 56ZM70.211 45.184C71.363 45.696 71.619 46.784 71.107 47.872C68.291 52.864 62.979 56 57.155 56C48.259 56 41.283 48.768 41.283 39.872C41.283 31.296 48.259 24 57.155 24C62.979 24 68.291 27.136 71.107 32.128C71.619 33.216 71.363 34.304 70.211 34.816C69.443 35.392 67.971 35.072 67.459 34.048C65.219 30.464 61.315 28.16 57.155 28.16C50.755 28.16 45.443 33.472 45.443 39.872C45.443 46.528 50.755 51.904 57.155 51.904C61.315 51.904 65.219 49.6 67.459 46.016C67.971 44.928 69.443 44.672 70.211 45.184Z" fill="#C5E3FE"/>
<path d="M39.69 29.44L40.4493 28.7892L40.4443 28.7835L39.69 29.44ZM39.498 32.384L38.8472 31.6247L38.8332 31.6367L38.8197 31.6492L39.498 32.384ZM36.554 32.192L37.3133 31.5412L37.3066 31.5335L36.554 32.192ZM13.77 55C13.1703 55 12.658 54.4877 12.658 53.888H10.658C10.658 55.5923 12.0657 57 13.77 57V55ZM12.658 53.888V40H10.658V53.888H12.658ZM12.658 40C12.658 31.7203 19.3783 25 27.658 25V23C18.2737 23 10.658 30.6157 10.658 40H12.658ZM27.658 25C31.9816 25 36.1208 26.8624 38.9357 30.0965L40.4443 28.7835C37.2432 25.1056 32.5504 23 27.658 23V25ZM38.9307 30.0908C39.3594 30.5909 39.3008 31.2359 38.8472 31.6247L40.1488 33.1433C41.4872 31.9961 41.5566 30.0811 40.4493 28.7892L38.9307 30.0908ZM38.8197 31.6492C38.4059 32.0312 37.714 32.0088 37.3133 31.5412L35.7947 32.8428C36.93 34.1672 38.9261 34.2728 40.1763 33.1188L38.8197 31.6492ZM37.3066 31.5335C34.8758 28.7554 31.337 27.16 27.658 27.16V29.16C30.763 29.16 33.7522 30.5086 35.8014 32.8505L37.3066 31.5335ZM27.658 27.16C20.5777 27.16 14.818 32.9197 14.818 40H16.818C16.818 34.0243 21.6823 29.16 27.658 29.16V27.16ZM14.818 40V53.888H16.818V40H14.818ZM14.818 53.888C14.818 54.5283 14.33 55 13.77 55V57C15.514 57 16.818 55.5517 16.818 53.888H14.818ZM70.211 45.184L69.6563 46.0161L69.7271 46.0633L69.8049 46.0978L70.211 45.184ZM71.107 47.872L71.978 48.3633L71.9961 48.3312L72.0118 48.2978L71.107 47.872ZM71.107 32.128L72.0118 31.7022L71.9961 31.6688L71.978 31.6367L71.107 32.128ZM70.211 34.816L69.8049 33.9022L69.7015 33.9481L69.611 34.016L70.211 34.816ZM67.459 34.048L68.3534 33.6008L68.3322 33.5583L68.307 33.518L67.459 34.048ZM67.459 46.016L68.307 46.546L68.3385 46.4956L68.3638 46.4418L67.459 46.016ZM69.8049 46.0978C70.1515 46.2519 70.2779 46.4443 70.3265 46.6038C70.3817 46.7846 70.3793 47.0699 70.2022 47.4462L72.0118 48.2978C72.3467 47.5861 72.4723 46.7834 72.2395 46.0202C72.0001 45.2357 71.4225 44.6281 70.6171 44.2702L69.8049 46.0978ZM70.236 47.3807C67.5969 52.0591 62.6174 55 57.155 55V57C63.3406 57 68.9851 53.6689 71.978 48.3633L70.236 47.3807ZM57.155 55C48.8321 55 42.283 48.2367 42.283 39.872H40.283C40.283 49.2993 47.6859 57 57.155 57V55ZM42.283 39.872C42.283 31.8351 48.8244 25 57.155 25V23C47.6936 23 40.283 30.7569 40.283 39.872H42.283ZM57.155 25C62.6174 25 67.5969 27.9409 70.236 32.6193L71.978 31.6367C68.9851 26.3311 63.3406 23 57.155 23V25ZM70.2022 32.5538C70.3793 32.9301 70.3817 33.2154 70.3265 33.3962C70.2779 33.5557 70.1515 33.7481 69.8049 33.9022L70.6171 35.7298C71.4225 35.3719 72.0001 34.7643 72.2395 33.9798C72.4723 33.2166 72.3467 32.4139 72.0118 31.7022L70.2022 32.5538ZM69.611 34.016C69.5352 34.0729 69.3117 34.1469 68.9884 34.0636C68.6808 33.9844 68.4547 33.8032 68.3534 33.6008L66.5646 34.4952C66.9753 35.3167 67.7412 35.8076 68.4896 36.0004C69.2223 36.1891 70.1189 36.1351 70.811 35.616L69.611 34.016ZM68.307 33.518C65.8981 29.6638 61.6852 27.16 57.155 27.16V29.16C60.9448 29.16 64.5399 31.2642 66.611 34.578L68.307 33.518ZM57.155 27.16C50.2027 27.16 44.443 32.9197 44.443 39.872H46.443C46.443 34.0243 51.3073 29.16 57.155 29.16V27.16ZM44.443 39.872C44.443 47.0591 50.1818 52.904 57.155 52.904V50.904C51.3282 50.904 46.443 45.9969 46.443 39.872H44.443ZM57.155 52.904C61.6852 52.904 65.8981 50.4002 68.307 46.546L66.611 45.486C64.5399 48.7998 60.9448 50.904 57.155 50.904V52.904ZM68.3638 46.4418C68.4685 46.2193 68.688 46.0458 68.9884 45.9684C69.3104 45.8855 69.5623 45.9534 69.6563 46.0161L70.7657 44.3519C70.0917 43.9026 69.2236 43.8425 68.4896 44.0316C67.734 44.2262 66.9615 44.7247 66.5542 45.5902L68.3638 46.4418Z" fill="#C5E3FE" mask="url(#path-1-outside-1_99_10364)"/>
</svg>
