<svg width="31" height="31" viewBox="0 0 31 31" fill="none" xmlns="http://www.w3.org/2000/svg">
<path d="M5.81249 19.3746C7.88646 19.375 9.93289 18.8997 11.7944 17.9854C13.6559 17.071 15.283 15.7419 16.5504 14.1002C17.8178 12.4585 18.6918 10.5481 19.1052 8.51573C19.5187 6.48339 19.4605 4.3833 18.9352 2.37695C21.2439 2.98253 23.3518 4.18665 25.0462 5.86767C26.7406 7.54869 27.9613 9.64708 28.5851 11.9509C29.2089 14.2547 29.2137 16.6823 28.599 18.9886C27.9843 21.2949 26.7719 23.3981 25.0842 25.0858C23.3965 26.7735 21.2933 27.9859 18.987 28.6006C16.6808 29.2153 14.2531 29.2105 11.9493 28.5867C9.64549 27.9629 7.5471 26.7422 5.86608 25.0478C4.18506 23.3534 2.98095 21.2454 2.37537 18.9368C3.49764 19.2291 4.65277 19.3762 5.81249 19.3746Z" fill="#CF5C36"/>
</svg>
