<svg width="22" height="22" viewBox="0 0 22 22" fill="none" xmlns="http://www.w3.org/2000/svg">
<path d="M11 17.4168C11.2245 17.4169 11.4412 17.4993 11.609 17.6485C11.7768 17.7977 11.884 18.0033 11.9103 18.2262L11.9167 18.3335V19.2502C11.9164 19.4838 11.8269 19.7085 11.6666 19.8784C11.5062 20.0483 11.287 20.1505 11.0537 20.1642C10.8205 20.1779 10.5908 20.102 10.4117 19.9521C10.2325 19.8021 10.1173 19.5894 10.0898 19.3574L10.0833 19.2502V18.3335C10.0833 18.0904 10.1799 17.8572 10.3518 17.6853C10.5237 17.5134 10.7569 17.4168 11 17.4168ZM16.7869 15.501L16.8731 15.5771L17.5148 16.2187C17.6792 16.3837 17.7746 16.6051 17.7817 16.8378C17.7888 17.0706 17.7071 17.2974 17.553 17.4721C17.399 17.6468 17.1842 17.7563 16.9524 17.7784C16.7206 17.8004 16.489 17.7335 16.3048 17.591L16.2186 17.5149L15.5769 16.8732C15.4187 16.7153 15.3237 16.5051 15.3097 16.282C15.2957 16.0589 15.3636 15.8384 15.5008 15.6619C15.638 15.4855 15.8349 15.3652 16.0545 15.3237C16.2741 15.2823 16.5014 15.3225 16.6934 15.4368L16.7869 15.501ZM6.42309 15.5771C6.58091 15.7349 6.67573 15.9449 6.68973 16.1677C6.70374 16.3905 6.63598 16.6107 6.49917 16.7871L6.42309 16.8732L5.78142 17.5149C5.61646 17.6793 5.3951 17.7748 5.16232 17.7819C4.92953 17.789 4.70276 17.7072 4.52808 17.5532C4.35339 17.3992 4.24389 17.1844 4.2218 16.9526C4.19972 16.7207 4.26671 16.4892 4.40917 16.3049L4.48525 16.2187L5.12692 15.5771C5.29882 15.4052 5.53193 15.3087 5.775 15.3087C6.01807 15.3087 6.25118 15.4052 6.42309 15.5771ZM3.66667 10.0835C3.90031 10.0838 4.12503 10.1732 4.29492 10.3336C4.46481 10.494 4.56705 10.7132 4.58074 10.9464C4.59443 11.1797 4.51855 11.4093 4.36859 11.5885C4.21863 11.7677 4.00592 11.8828 3.77392 11.9104L3.66667 11.9168H2.75C2.51636 11.9166 2.29164 11.8271 2.12175 11.6667C1.95186 11.5063 1.84962 11.2871 1.83593 11.0539C1.82223 10.8206 1.89812 10.591 2.04808 10.4118C2.19804 10.2327 2.41075 10.1175 2.64275 10.0899L2.75 10.0835H3.66667ZM19.25 10.0835C19.4836 10.0838 19.7084 10.1732 19.8783 10.3336C20.0481 10.494 20.1504 10.7132 20.1641 10.9464C20.1778 11.1797 20.1019 11.4093 19.9519 11.5885C19.802 11.7677 19.5893 11.8828 19.3573 11.9104L19.25 11.9168H18.3333C18.0997 11.9166 17.875 11.8271 17.7051 11.6667C17.5352 11.5063 17.433 11.2871 17.4193 11.0539C17.4056 10.8206 17.4815 10.591 17.6314 10.4118C17.7814 10.2327 17.9941 10.1175 18.2261 10.0899L18.3333 10.0835H19.25ZM5.69525 4.40933L5.78142 4.48541L6.42309 5.12708C6.58749 5.29204 6.68294 5.51339 6.69004 5.74618C6.69715 5.97897 6.61539 6.20573 6.46136 6.38042C6.30733 6.5551 6.09258 6.66461 5.86073 6.6867C5.62889 6.70878 5.39733 6.64179 5.21308 6.49933L5.12692 6.42325L4.48525 5.78158C4.32767 5.62362 4.23311 5.41361 4.2193 5.19091C4.20549 4.96821 4.27337 4.74812 4.41023 4.5719C4.54709 4.39568 4.74353 4.27543 4.96271 4.23369C5.1819 4.19195 5.40878 4.23158 5.60084 4.34516L5.69525 4.40933ZM17.5148 4.48541C17.6726 4.64326 17.7674 4.85326 17.7814 5.07604C17.7954 5.29881 17.7276 5.51904 17.5908 5.69541L17.5148 5.78158L16.8731 6.42325C16.7081 6.58765 16.4868 6.6831 16.254 6.69021C16.0212 6.69731 15.7944 6.61555 15.6197 6.46152C15.4451 6.30749 15.3356 6.09274 15.3135 5.86089C15.2914 5.62905 15.3584 5.39749 15.5008 5.21325L15.5769 5.12708L16.2186 4.48541C16.3905 4.31356 16.6236 4.21703 16.8667 4.21703C17.1097 4.21703 17.3429 4.31356 17.5148 4.48541ZM11 1.8335C11.2245 1.83353 11.4412 1.91596 11.609 2.06515C11.7768 2.21435 11.884 2.41993 11.9103 2.64291L11.9167 2.75016V3.66683C11.9164 3.90047 11.8269 4.12519 11.6666 4.29508C11.5062 4.46498 11.287 4.56721 11.0537 4.5809C10.8205 4.5946 10.5908 4.51871 10.4117 4.36875C10.2325 4.2188 10.1173 4.00608 10.0898 3.77408L10.0833 3.66683V2.75016C10.0833 2.50705 10.1799 2.27389 10.3518 2.10198C10.5237 1.93007 10.7569 1.8335 11 1.8335ZM11 6.41683C11.898 6.41678 12.7763 6.68054 13.5257 7.17537C14.2751 7.6702 14.8627 8.37428 15.2154 9.20016C15.568 10.026 15.6703 10.9373 15.5095 11.8209C15.3487 12.7044 14.9319 13.5212 14.3108 14.1699C13.6898 14.8185 12.8919 15.2704 12.0162 15.4695C11.1405 15.6685 10.2256 15.6059 9.38514 15.2895C8.54471 14.973 7.81576 14.4166 7.28884 13.6894C6.76191 12.9622 6.46023 12.0963 6.42125 11.1991L6.41667 11.0002L6.42125 10.8012C6.47251 9.62127 6.97731 8.50663 7.83037 7.68977C8.68344 6.87291 9.81891 6.4169 11 6.41683Z" fill="#C5E3FE"/>
</svg>
