<svg width="441" height="51" viewBox="0 0 441 51" fill="none" xmlns="http://www.w3.org/2000/svg">
<g clip-path="url(#clip0_1691_5935)">
<path d="M8.04736 48.394C12.2609 48.394 15.6807 44.9743 15.6807 40.7607V33.1274H8.04736C3.83378 33.1274 0.414062 36.5472 0.414062 40.7607C0.414062 44.9743 3.83378 48.394 8.04736 48.394Z" fill="#0ACF83"/>
<path d="M0.414062 25.4948C0.414062 21.2812 3.83378 17.8615 8.04736 17.8615H15.6807V33.1281H8.04736C3.83378 33.1281 0.414062 29.7083 0.414062 25.4948Z" fill="#A259FF"/>
<path d="M0.414062 10.2275C0.414062 6.01396 3.83378 2.59424 8.04736 2.59424H15.6807V17.8608H8.04736C3.83378 17.8608 0.414062 14.4411 0.414062 10.2275Z" fill="#F24E1E"/>
<path d="M15.6797 2.59424H23.313C27.5266 2.59424 30.9463 6.01396 30.9463 10.2275C30.9463 14.4411 27.5266 17.8608 23.313 17.8608H15.6797V2.59424Z" fill="#FF7262"/>
<path d="M30.9463 25.4948C30.9463 29.7083 27.5266 33.1281 23.313 33.1281C19.0994 33.1281 15.6797 29.7083 15.6797 25.4948C15.6797 21.2812 19.0994 17.8615 23.313 17.8615C27.5266 17.8615 30.9463 21.2812 30.9463 25.4948Z" fill="#1ABCFE"/>
</g>
<g clip-path="url(#clip1_1691_5935)">
<path d="M90.166 2.49414H65.7285C59.7742 2.49414 54.9473 7.32107 54.9473 13.2754V37.7129C54.9473 43.6672 59.7742 48.4941 65.7285 48.4941H90.166C96.1203 48.4941 100.947 43.6672 100.947 37.7129V13.2754C100.947 7.32107 96.1203 2.49414 90.166 2.49414Z" fill="#092E20"/>
<path d="M75.1961 11.6582H80.3378V35.4578C77.7002 35.9586 75.7637 36.159 73.6605 36.159C67.3833 36.1588 64.1113 33.3211 64.1113 27.8788C64.1113 22.6367 67.5838 19.2315 72.9591 19.2315C73.7938 19.2315 74.4281 19.298 75.1961 19.4983V11.6582ZM75.1961 23.6381C74.5952 23.4382 74.0944 23.3713 73.4601 23.3713C70.8559 23.3713 69.3532 24.9739 69.3532 27.7783C69.3532 30.5164 70.7891 32.0188 73.4267 32.0188C73.994 32.0188 74.4617 31.9854 75.1961 31.8854V23.6381Z" fill="white"/>
<path d="M88.5174 19.5986V31.5177C88.5174 35.6246 88.217 37.5943 87.3155 39.2972C86.4807 40.9335 85.3788 41.9683 83.1085 43.1035L78.334 40.833C80.6043 39.7648 81.7062 38.8302 82.4071 37.394C83.1419 35.925 83.3758 34.2221 83.3758 29.7483V19.5984L88.5174 19.5986ZM83.3758 11.6855H88.5174V16.9608H83.3758V11.6855Z" fill="white"/>
</g>
<g clip-path="url(#clip2_1691_5935)">
<path d="M168.909 2.49414H146.816C146.816 3.80383 147.074 5.1007 147.575 6.3107C148.077 7.52071 148.811 8.62014 149.737 9.54623C150.663 10.4723 151.763 11.2069 152.973 11.7081C154.183 12.2093 155.48 12.4672 156.789 12.4672H160.859V16.3966C160.863 21.8995 165.323 26.3597 170.826 26.3633V4.41069C170.826 3.35251 169.968 2.49414 168.909 2.49414Z" fill="#2684FF"/>
<path d="M157.977 13.5022H135.885C135.888 19.0051 140.348 23.4653 145.851 23.4689H149.921V27.4109C149.928 32.9138 154.391 37.371 159.894 37.371V15.4191C159.894 14.3606 159.036 13.5022 157.977 13.5022Z" fill="url(#paint0_linear_1691_5935)"/>
<path d="M147.04 24.5039H124.947C124.947 30.0119 129.412 34.4769 134.92 34.4769H139.003V38.4061C139.006 43.904 143.459 48.3623 148.957 48.3727V26.4206C148.957 25.3621 148.099 24.5039 147.04 24.5039Z" fill="url(#paint1_linear_1691_5935)"/>
</g>
<g clip-path="url(#clip3_1691_5935)">
<path d="M198.37 39.9142L200.367 43.3629C200.782 44.0891 201.378 44.6596 202.078 45.0745C204.084 42.5288 205.48 40.5753 206.266 39.214C207.065 37.8325 208.046 35.6716 209.209 32.7313C206.073 32.3184 203.696 32.1119 202.079 32.1119C200.526 32.1119 198.149 32.3184 194.947 32.7313C194.947 33.5351 195.155 34.3389 195.57 35.0651L198.37 39.9142Z" fill="#0066DA"/>
<path d="M233.091 45.0745C233.792 44.6596 234.388 44.0891 234.803 43.3631L235.633 41.9369L239.6 35.0651C240.007 34.3547 240.222 33.5502 240.222 32.7313C237.002 32.3184 234.629 32.1119 233.104 32.1119C231.466 32.1119 229.093 32.3184 225.986 32.7313C227.136 35.6878 228.104 37.8487 228.891 39.214C229.683 40.5915 231.084 42.545 233.091 45.0745Z" fill="#EA4335"/>
<path d="M217.586 18.2096C219.907 15.4072 221.506 13.2463 222.383 11.7269C223.09 10.5034 223.868 8.54989 224.717 5.86638C224.017 5.45147 223.213 5.24402 222.383 5.24402H212.789C211.959 5.24402 211.155 5.47747 210.455 5.86638C211.535 8.94405 212.451 11.1344 213.204 12.4373C214.036 13.8773 215.497 15.8014 217.586 18.2096Z" fill="#00832D"/>
<path d="M225.961 32.7311H209.209L202.078 45.0743C202.778 45.4892 203.582 45.6967 204.412 45.6967H230.758C231.588 45.6967 232.392 45.4632 233.092 45.0741L225.961 32.7311Z" fill="#2684FC"/>
<path d="M217.585 18.2096L210.454 5.86658C209.754 6.28148 209.158 6.85185 208.743 7.57802L195.57 30.3974C195.162 31.1078 194.948 31.9123 194.947 32.7312H209.209L217.585 18.2096Z" fill="#00AC47"/>
<path d="M233.015 18.9875L226.428 7.57778C226.014 6.8516 225.417 6.28124 224.717 5.86633L217.586 18.2095L225.962 32.7311H240.198C240.198 31.9271 239.99 31.1235 239.575 30.3973L233.015 18.9875Z" fill="#FFBA00"/>
</g>
<g clip-path="url(#clip4_1691_5935)">
<path d="M285.717 36.7353H267.492C266.299 36.7353 265.134 36.0947 264.581 35.0175C263.941 33.7657 264.173 32.2809 265.163 31.3201L277.857 18.6269H268.744C266.24 18.6269 264.231 16.5889 264.231 14.1141H281.03C282.223 14.1141 283.388 14.7547 283.941 15.8319C284.582 17.0837 284.349 18.5685 283.359 19.5291L270.665 32.2227H281.175C283.679 32.2227 285.717 34.2607 285.717 36.7353ZM357.859 13.7941C355.239 13.7941 352.91 14.9295 351.28 16.7345C349.649 14.9295 347.32 13.7941 344.7 13.7941C339.867 13.7941 335.908 17.9281 335.908 22.7609V36.7353C338.412 36.7353 340.42 34.6973 340.42 32.2227V22.7319C340.42 20.4027 342.225 18.4231 344.554 18.3359C347 18.2485 349.009 20.1989 349.009 22.6153V32.2227C349.009 34.7265 351.047 36.7353 353.521 36.7353V22.7027C353.521 20.3737 355.326 18.3939 357.655 18.3067C360.101 18.2193 362.11 20.1699 362.11 22.5863V32.1935C362.11 34.6975 364.148 36.7061 366.622 36.7061V22.7321C366.651 17.9281 362.692 13.7941 357.859 13.7941ZM308.542 25.4393C308.542 31.8733 303.33 37.0845 296.896 37.0845C290.462 37.0845 285.251 31.8733 285.251 25.4393C285.251 19.0053 290.462 13.7941 296.896 13.7941C303.33 13.7941 308.542 19.0053 308.542 25.4393ZM304.029 25.4393C304.029 21.5091 300.827 18.3067 296.896 18.3067C292.966 18.3067 289.764 21.5091 289.764 25.4393C289.764 29.3697 292.966 32.5721 296.896 32.5721C300.827 32.5721 304.029 29.3697 304.029 25.4393ZM333.637 25.4393C333.637 31.8733 328.426 37.0845 321.992 37.0845C315.558 37.0845 310.347 31.8733 310.347 25.4393C310.347 19.0053 315.558 13.7941 321.992 13.7941C328.426 13.7941 333.637 19.0053 333.637 25.4393M329.125 25.4393C329.125 21.5091 325.922 18.3067 321.992 18.3067C318.062 18.3067 314.859 21.5091 314.859 25.4393C314.859 29.3697 318.062 32.5721 321.992 32.5721C325.922 32.5721 329.125 29.3697 329.125 25.4393Z" fill="#0B5CFF"/>
</g>
<path d="M415.54 4.72913C412.813 4.72913 410.113 5.26623 407.594 6.30977C405.075 7.3533 402.786 8.88284 400.857 10.811C396.963 14.7052 394.775 19.9869 394.775 25.4941C394.775 34.6722 400.735 42.4591 408.979 45.2208C410.017 45.3869 410.349 44.7432 410.349 44.1826V40.6733C404.597 41.9192 403.372 37.8908 403.372 37.8908C402.417 35.4821 401.067 34.8383 401.067 34.8383C399.178 33.5509 401.213 33.5924 401.213 33.5924C403.289 33.7378 404.39 35.7312 404.39 35.7312C406.196 38.8875 409.249 37.9531 410.432 37.4547C410.619 36.105 411.159 35.1913 411.74 34.6722C407.131 34.1531 402.292 32.3673 402.292 24.4559C402.292 22.1509 403.081 20.3029 404.431 18.8285C404.223 18.3094 403.497 16.1499 404.639 13.3466C404.639 13.3466 406.383 12.7859 410.349 15.4646C411.99 15.0078 413.775 14.7794 415.54 14.7794C417.305 14.7794 419.091 15.0078 420.732 15.4646C424.698 12.7859 426.442 13.3466 426.442 13.3466C427.584 16.1499 426.857 18.3094 426.65 18.8285C427.999 20.3029 428.788 22.1509 428.788 24.4559C428.788 32.3881 423.929 34.1323 419.299 34.6515C420.046 35.2952 420.732 36.5618 420.732 38.493V44.1826C420.732 44.7432 421.064 45.4077 422.123 45.2208C430.367 42.4383 436.305 34.6722 436.305 25.4941C436.305 22.7672 435.768 20.067 434.725 17.5477C433.681 15.0284 432.152 12.7393 430.223 10.811C428.295 8.88284 426.006 7.3533 423.487 6.30977C420.967 5.26623 418.267 4.72913 415.54 4.72913Z" fill="black"/>
<defs>
<linearGradient id="paint0_linear_1691_5935" x1="2489.54" y1="17.3451" x2="1555.46" y2="992.016" gradientUnits="userSpaceOnUse">
<stop offset="0.18" stop-color="#0052CC"/>
<stop offset="1" stop-color="#2684FF"/>
</linearGradient>
<linearGradient id="paint1_linear_1691_5935" x1="2541.86" y1="35.3642" x2="1461.37" y2="1098.43" gradientUnits="userSpaceOnUse">
<stop offset="0.18" stop-color="#0052CC"/>
<stop offset="1" stop-color="#2684FF"/>
</linearGradient>
<clipPath id="clip0_1691_5935">
<rect width="30.5332" height="45.7998" fill="white" transform="translate(0.414062 2.59424)"/>
</clipPath>
<clipPath id="clip1_1691_5935">
<rect width="46" height="46" fill="white" transform="translate(54.9473 2.49414)"/>
</clipPath>
<clipPath id="clip2_1691_5935">
<rect width="46" height="46" fill="white" transform="translate(124.947 2.49414)"/>
</clipPath>
<clipPath id="clip3_1691_5935">
<rect width="45.2754" height="40.5003" fill="white" transform="translate(194.947 5.24402)"/>
</clipPath>
<clipPath id="clip4_1691_5935">
<rect width="102.4" height="23.4" fill="white" transform="translate(264.223 13.7942)"/>
</clipPath>
</defs>
</svg>
