<svg width="176" height="123" viewBox="0 0 176 123" fill="none" xmlns="http://www.w3.org/2000/svg">
<rect x="0.501953" y="0.374512" width="175" height="122" rx="10.0575" fill="#070F19"/>
<path d="M50.7521 39.6462C50.7521 39.6462 52.5783 43.7253 54.8311 43.7253H73.4782V48.234H58.4211C56.8823 48.234 55.6348 47.1793 55.6348 47.1793V55.4416C55.6348 56.6325 54.4407 58.2445 54.4407 58.2445C54.4407 58.2445 55.6348 59.8565 55.6348 61.0474V71.7122C55.6348 71.7122 59.2705 68.2549 60.8093 68.2549H73.4782V72.8614H58.3275C56.0747 72.8614 50.7521 82.7676 50.7521 82.7676V62.3724C50.7521 60.6393 49.0039 58.2933 49.0039 58.2933C49.0039 58.2933 50.7521 55.9474 50.7521 54.2143V39.6462Z" fill="#C5E3FE"/>
<path d="M73.4782 43.7253H78.0956V48.234H73.4782V43.7253Z" fill="#C5E3FE"/>
<path d="M106.693 20.9991C106.693 20.9991 102.614 22.8254 102.614 25.0782V43.7253H97.9976V28.4996C97.9976 26.9516 99.0357 25.6967 99.0357 25.6967H90.8329C89.649 25.6967 88.0466 24.4955 88.0466 24.4955C88.0466 24.4955 86.4441 25.6967 85.2603 25.6967H77.0575C77.0575 25.6967 78.0956 26.9516 78.0956 28.4996V43.7253H73.4782V25.0782C73.4782 22.8254 69.3992 20.9991 69.3992 20.9991H83.9672C85.7003 20.9991 88.0462 19.251 88.0462 19.251C88.0462 19.251 90.3922 20.9991 92.1253 20.9991H106.693Z" fill="#C5E3FE"/>
<path d="M97.9976 43.7253H102.614V48.234H97.9976V43.7253Z" fill="#C5E3FE"/>
<path d="M120.679 43.7253C122.499 43.7253 124.758 39.6462 124.758 39.6462V54.2143C124.758 55.9474 126.506 58.2933 126.506 58.2933C126.506 58.2933 124.758 60.6393 124.758 62.3724V80.4367C124.758 80.4367 119.435 72.8614 117.182 72.8614H102.614V68.2549H114.893C116.432 68.2549 120.067 71.7122 120.067 71.7122V61.0474C120.067 59.8565 121.261 58.2445 121.261 58.2445C121.261 58.2445 120.067 56.6325 120.067 55.4416V47.1793C120.067 47.1793 118.525 48.234 117.281 48.234H102.614V43.7253H120.679Z" fill="#C5E3FE"/>
<path d="M97.9976 68.2549H102.614V72.8614H97.9976V68.2549Z" fill="#C5E3FE"/>
<path d="M102.614 96.7529C102.614 98.5735 106.693 100.832 106.693 100.832H92.1253C90.3922 100.832 88.0462 102.58 88.0462 102.58C88.0462 102.58 85.7003 100.832 83.9672 100.832H69.3992C69.3992 100.832 73.4782 99.0057 73.4782 96.7529V83.6417C73.4782 80.9819 71.73 79.5627 71.73 79.5627C71.73 79.5627 73.4782 77.9763 73.4782 75.4836V72.8614H78.0956V76.6458C78.0956 78.3587 76.9015 79.4487 76.9015 79.4487C76.9015 79.4487 78.0956 80.4239 78.0956 82.2516V93.3315C78.0956 94.8795 77.0575 96.1344 77.0575 96.1344H85.2603C86.4441 96.1344 88.0466 97.3357 88.0466 97.3357C88.0466 97.3357 89.649 96.1344 90.8329 96.1344H99.0357C99.0357 96.1344 97.9976 94.5825 97.9976 93.3315V82.2516C97.9976 80.5318 99.1917 79.4487 99.1917 79.4487C99.1917 79.4487 97.9976 78.3746 97.9976 76.6458V72.8614H102.614V75.4836C102.614 77.9995 104.362 79.5627 104.362 79.5627C104.362 79.5627 102.614 81.1389 102.614 83.6417V96.7529Z" fill="#C5E3FE"/>
<path d="M73.4782 68.2549H78.0956V72.8614H73.4782V68.2549Z" fill="#C5E3FE"/>
</svg>
