<svg width="25" height="30" viewBox="0 0 25 30" fill="none" xmlns="http://www.w3.org/2000/svg">
<path d="M20.5061 9.41456L20.3741 8.74856C20.2551 8.15056 19.9861 7.58556 19.3731 7.36956C19.1761 7.30056 18.9531 7.27156 18.8031 7.12856C18.6511 6.98556 18.6071 6.76256 18.5721 6.55656C18.5071 6.17856 18.4471 5.80056 18.3801 5.42356C18.3231 5.09856 18.2781 4.73356 18.1301 4.43656C17.9351 4.03656 17.5331 3.80256 17.1341 3.64856C16.9291 3.57254 16.7201 3.50777 16.5081 3.45456C15.5081 3.19156 14.4581 3.09456 13.4311 3.03856C12.1979 2.97132 10.9614 2.99204 9.73109 3.10056C8.81609 3.18356 7.85109 3.28456 6.98109 3.60056C6.66309 3.71656 6.33509 3.85656 6.09309 4.10156C5.79609 4.40356 5.70009 4.87156 5.91609 5.24756C6.07009 5.51456 6.33109 5.70356 6.60809 5.82756C6.96809 5.98956 7.34509 6.11156 7.73109 6.19356C8.80609 6.43156 9.92009 6.52456 11.0181 6.56356C12.2374 6.61289 13.4541 6.57356 14.6681 6.44556C14.9674 6.41223 15.2661 6.37256 15.5641 6.32656C15.9161 6.27256 16.1421 5.81356 16.0381 5.49256C15.9141 5.10956 15.5811 4.96156 15.2041 5.01956C14.7381 5.09356 14.2441 5.12756 13.8221 5.16556C12.6441 5.24556 11.4654 5.24756 10.2861 5.17156C9.89955 5.14609 9.51375 5.11041 9.12909 5.06456C9.04309 5.05456 8.94909 5.03956 8.87109 5.02856C8.62843 4.99189 8.38709 4.94856 8.14709 4.89856C8.03609 4.87156 8.03609 4.71356 8.14709 4.68656H8.15209C8.42942 4.62656 8.70876 4.57756 8.99009 4.53956H8.99209C9.12309 4.53056 9.25509 4.50756 9.38609 4.49156C10.524 4.37322 11.6687 4.33312 12.8121 4.37156C13.4861 4.39089 14.1584 4.43889 14.8291 4.51556L15.0571 4.54656C15.3238 4.58656 15.5898 4.63489 15.8551 4.69156C16.2471 4.77656 16.7501 4.80456 16.9251 5.23356C16.9801 5.37056 17.0051 5.52156 17.0361 5.66456L17.3551 7.14856C17.3619 7.18038 17.362 7.21325 17.3555 7.24513C17.349 7.277 17.336 7.3072 17.3174 7.33385C17.2987 7.36049 17.2747 7.383 17.247 7.39998C17.2193 7.41697 17.1883 7.42805 17.1561 7.43256H17.1531L17.0411 7.44756C15.468 7.64743 13.8838 7.74596 12.2981 7.74256C10.7269 7.7411 9.15738 7.63956 7.59909 7.43856C7.45909 7.42156 7.30609 7.39656 7.18209 7.37856C6.85609 7.33056 6.53309 7.27056 6.20909 7.21756C5.81609 7.15256 5.44109 7.18556 5.08609 7.37856C4.79609 7.53856 4.55909 7.78256 4.41109 8.07956C4.25709 8.39556 4.21209 8.73956 4.14409 9.07956C4.07509 9.41956 3.96809 9.78656 4.00909 10.1356C4.09609 10.8886 4.62209 11.5006 5.37909 11.6376C9.12257 12.3055 12.9426 12.4321 16.7221 12.0136C16.7939 12.0054 16.8666 12.0134 16.9349 12.0371C17.0032 12.0608 17.0653 12.0995 17.1166 12.1503C17.168 12.2012 17.2072 12.2629 17.2315 12.331C17.2559 12.399 17.2646 12.4717 17.2571 12.5436L17.1861 13.2406L16.1681 23.1476C16.1271 23.5576 16.1211 23.9796 16.0431 24.3846C15.9211 25.0216 15.4901 25.4126 14.8611 25.5556C14.2824 25.6869 13.6971 25.7552 13.1051 25.7606C12.4491 25.7646 11.7951 25.7356 11.1391 25.7386C10.4401 25.7426 9.58309 25.6786 9.04409 25.1586C8.56909 24.7006 8.50409 23.9846 8.43909 23.3656L7.70809 16.3526L7.38609 13.2586C7.34909 12.9076 7.10009 12.5636 6.70809 12.5806C6.37209 12.5956 5.99009 12.8806 6.03009 13.2596L6.25809 15.4446L7.20709 24.5566C7.35409 25.9006 8.38109 26.6246 9.65309 26.8286C10.3951 26.9486 11.1561 26.9726 11.9101 26.9846C12.8761 27.0006 13.8521 27.0376 14.8021 26.8626C16.2101 26.6046 17.2671 25.6646 17.4181 24.2056L18.4421 14.2106L18.6571 12.1236C18.6671 12.0198 18.7105 11.9222 18.7809 11.8453C18.8512 11.7685 18.9447 11.7166 19.0471 11.6976C19.4491 11.6196 19.8341 11.4856 20.1211 11.1796C20.5761 10.6916 20.6671 10.0566 20.5061 9.41456ZM19.0281 10.1866C18.8831 10.3236 18.6651 10.3876 18.4501 10.4196C16.0341 10.7786 13.5841 10.9596 11.1421 10.8796C9.39409 10.8196 7.66509 10.6256 5.93509 10.3816C5.76509 10.3576 5.58209 10.3266 5.46509 10.2016C5.24509 9.96556 5.35409 9.49156 5.41109 9.20656C5.46309 8.94656 5.56309 8.59756 5.87409 8.56056C6.35809 8.50356 6.92009 8.70856 7.40009 8.78056C7.97676 8.86856 8.55576 8.93923 9.13709 8.99256C11.6171 9.21856 14.1391 9.18256 16.6091 8.85256C17.0591 8.79256 17.5074 8.72256 17.9541 8.64256C18.3531 8.57056 18.7941 8.43656 19.0341 8.84856C19.2001 9.12956 19.2221 9.50556 19.1961 9.82256C19.1886 9.9611 19.1281 10.0914 19.0271 10.1866H19.0281ZM12.8691 14.0866C12.0071 14.4566 11.0291 14.8746 9.76009 14.8746C9.2298 14.8719 8.7022 14.7989 8.19109 14.6576L9.06809 23.6616C9.13309 24.4416 9.78509 25.0416 10.5681 25.0416C10.5681 25.0416 11.8111 25.1066 12.2261 25.1066C12.6731 25.1066 14.0121 25.0416 14.0121 25.0416C14.7951 25.0416 15.4461 24.4416 15.5111 23.6616L16.4511 13.7116C16.027 13.5583 15.58 13.4778 15.1291 13.4736C14.3031 13.4736 13.6381 13.7576 12.8691 14.0866Z" fill="#C5E3FE"/>
</svg>
