<svg width="22" height="22" viewBox="0 0 22 22" fill="none" xmlns="http://www.w3.org/2000/svg">
<path d="M17.2344 20.1875H8.04687C7.26365 20.1875 6.51252 19.8764 5.9587 19.3225C5.40488 18.7687 5.09375 18.0176 5.09375 17.2344V8.04687C5.09375 7.26365 5.40488 6.51252 5.9587 5.9587C6.51252 5.40488 7.26365 5.09375 8.04687 5.09375H17.2344C18.0176 5.09375 18.7687 5.40488 19.3225 5.9587C19.8764 6.51252 20.1875 7.26365 20.1875 8.04687V17.2344C20.1875 18.0176 19.8764 18.7687 19.3225 19.3225C18.7687 19.8764 18.0176 20.1875 17.2344 20.1875Z" fill="white"/>
<path d="M7.06249 3.78125H16.7372C16.5331 3.2059 16.1559 2.70782 15.6574 2.35534C15.1589 2.00285 14.5636 1.81324 13.9531 1.8125H4.76562C3.9824 1.8125 3.23127 2.12363 2.67745 2.67745C2.12363 3.23127 1.8125 3.9824 1.8125 4.76562V13.9531C1.81324 14.5636 2.00285 15.1589 2.35534 15.6574C2.70782 16.1559 3.2059 16.5331 3.78125 16.7372V7.06249C3.78125 6.19225 4.12695 5.35766 4.7423 4.7423C5.35766 4.12695 6.19225 3.78125 7.06249 3.78125Z" fill="white"/>
</svg>
