<svg width="32" height="32" viewBox="0 0 32 32" fill="none" xmlns="http://www.w3.org/2000/svg">
<path d="M15.8341 2.74951C14.1379 2.74951 12.4583 3.08361 10.8912 3.73273C9.32403 4.38186 7.90011 5.33329 6.70068 6.53272C4.27834 8.95506 2.91748 12.2405 2.91748 15.6662C2.91748 21.3753 6.62456 26.2191 11.7525 27.937C12.3983 28.0403 12.605 27.6399 12.605 27.2912V25.1083C9.02706 25.8833 8.26498 23.3774 8.26498 23.3774C7.67081 21.8791 6.83123 21.4787 6.83123 21.4787C5.65581 20.6778 6.92165 20.7037 6.92165 20.7037C8.21331 20.7941 8.8979 22.0341 8.8979 22.0341C10.0216 23.9974 11.9204 23.4162 12.6566 23.1062C12.7729 22.2666 13.1087 21.6983 13.4704 21.3753C10.6029 21.0524 7.59331 19.9416 7.59331 15.0203C7.59331 13.5866 8.08415 12.437 8.92373 11.5199C8.79456 11.197 8.34248 9.85368 9.0529 8.10993C9.0529 8.10993 10.1379 7.76118 12.605 9.42743C13.6254 9.14326 14.7362 9.00118 15.8341 9.00118C16.9321 9.00118 18.0429 9.14326 19.0633 9.42743C21.5304 7.76118 22.6154 8.10993 22.6154 8.10993C23.3258 9.85368 22.8737 11.197 22.7446 11.5199C23.5841 12.437 24.075 13.5866 24.075 15.0203C24.075 19.9545 21.0525 21.0395 18.1721 21.3624C18.6371 21.7628 19.0633 22.5508 19.0633 23.752V27.2912C19.0633 27.6399 19.27 28.0533 19.9287 27.937C25.0566 26.2062 28.7508 21.3753 28.7508 15.6662C28.7508 13.9699 28.4167 12.2903 27.7676 10.7232C27.1185 9.15606 26.167 7.73214 24.9676 6.53272C23.7682 5.33329 22.3443 4.38186 20.7771 3.73273C19.21 3.08361 17.5304 2.74951 15.8341 2.74951Z" fill="#CF5C36"/>
</svg>
