<svg width="32" height="32" viewBox="0 0 32 32" fill="none" xmlns="http://www.w3.org/2000/svg">
<path d="M16.1676 2.74951C14.4714 2.74951 12.7918 3.08361 11.2246 3.73273C9.65753 4.38186 8.2336 5.33329 7.03418 6.53272C4.61184 8.95506 3.25098 12.2405 3.25098 15.6662C3.25098 21.3753 6.95806 26.2191 12.086 27.937C12.7318 28.0403 12.9385 27.6399 12.9385 27.2912V25.1083C9.36056 25.8833 8.59848 23.3774 8.59848 23.3774C8.00431 21.8791 7.16473 21.4787 7.16473 21.4787C5.98931 20.6778 7.25514 20.7037 7.25514 20.7037C8.54681 20.7941 9.23139 22.0341 9.23139 22.0341C10.3551 23.9974 12.2539 23.4162 12.9901 23.1062C13.1064 22.2666 13.4422 21.6983 13.8039 21.3753C10.9364 21.0524 7.92681 19.9416 7.92681 15.0203C7.92681 13.5866 8.41764 12.437 9.25723 11.5199C9.12806 11.197 8.67598 9.85368 9.38639 8.10993C9.38639 8.10993 10.4714 7.76118 12.9385 9.42743C13.9589 9.14326 15.0697 9.00118 16.1676 9.00118C17.2656 9.00118 18.3764 9.14326 19.3968 9.42743C21.8639 7.76118 22.9489 8.10993 22.9489 8.10993C23.6593 9.85368 23.2072 11.197 23.0781 11.5199C23.9176 12.437 24.4085 13.5866 24.4085 15.0203C24.4085 19.9545 21.386 21.0395 18.5056 21.3624C18.9706 21.7628 19.3968 22.5508 19.3968 23.752V27.2912C19.3968 27.6399 19.6035 28.0533 20.2622 27.937C25.3901 26.2062 29.0843 21.3753 29.0843 15.6662C29.0843 13.9699 28.7502 12.2903 28.1011 10.7232C27.452 9.15606 26.5005 7.73214 25.3011 6.53272C24.1017 5.33329 22.6778 4.38186 21.1106 3.73273C19.5435 3.08361 17.8639 2.74951 16.1676 2.74951Z" fill="#212121"/>
</svg>
