<svg width="32" height="32" viewBox="0 0 32 32" fill="none" xmlns="http://www.w3.org/2000/svg">
<path d="M10.517 2.61108H21.4837C25.6614 2.61108 29.0559 6.00553 29.0559 10.1833V21.15C29.0559 23.1583 28.2581 25.0843 26.838 26.5043C25.418 27.9244 23.4919 28.7222 21.4837 28.7222H10.517C6.33921 28.7222 2.94476 25.3278 2.94476 21.15V10.1833C2.94476 8.17503 3.74255 6.249 5.16262 4.82894C6.58268 3.40887 8.50871 2.61108 10.517 2.61108ZM10.2559 5.2222C9.00936 5.2222 7.81389 5.71737 6.93247 6.59879C6.05105 7.48021 5.55587 8.67568 5.55587 9.9222V21.4111C5.55587 24.0091 7.65782 26.1111 10.2559 26.1111H21.7448C22.9913 26.1111 24.1867 25.6159 25.0682 24.7345C25.9496 23.8531 26.4448 22.6576 26.4448 21.4111V9.9222C26.4448 7.32414 24.3428 5.2222 21.7448 5.2222H10.2559ZM22.8545 7.18053C23.2873 7.18053 23.7024 7.35247 24.0084 7.65851C24.3145 7.96456 24.4864 8.37965 24.4864 8.81247C24.4864 9.24529 24.3145 9.66038 24.0084 9.96643C23.7024 10.2725 23.2873 10.4444 22.8545 10.4444C22.4217 10.4444 22.0066 10.2725 21.7005 9.96643C21.3945 9.66038 21.2225 9.24529 21.2225 8.81247C21.2225 8.37965 21.3945 7.96456 21.7005 7.65851C22.0066 7.35247 22.4217 7.18053 22.8545 7.18053ZM16.0003 9.13886C17.7316 9.13886 19.392 9.82661 20.6162 11.0508C21.8404 12.275 22.5281 13.9354 22.5281 15.6666C22.5281 17.3979 21.8404 19.0583 20.6162 20.2825C19.392 21.5067 17.7316 22.1944 16.0003 22.1944C14.269 22.1944 12.6087 21.5067 11.3845 20.2825C10.1603 19.0583 9.47254 17.3979 9.47254 15.6666C9.47254 13.9354 10.1603 12.275 11.3845 11.0508C12.6087 9.82661 14.269 9.13886 16.0003 9.13886ZM16.0003 11.75C14.9616 11.75 13.9653 12.1626 13.2308 12.8971C12.4963 13.6317 12.0837 14.6279 12.0837 15.6666C12.0837 16.7054 12.4963 17.7016 13.2308 18.4361C13.9653 19.1707 14.9616 19.5833 16.0003 19.5833C17.0391 19.5833 18.0353 19.1707 18.7698 18.4361C19.5043 17.7016 19.917 16.7054 19.917 15.6666C19.917 14.6279 19.5043 13.6317 18.7698 12.8971C18.0353 12.1626 17.0391 11.75 16.0003 11.75Z" fill="#CF5C36"/>
</svg>
