<svg width="32" height="32" viewBox="0 0 32 32" fill="none" xmlns="http://www.w3.org/2000/svg">
<path d="M10.8505 2.61133H21.8172C25.995 2.61133 29.3894 6.00577 29.3894 10.1836V21.1502C29.3894 23.1585 28.5916 25.0845 27.1716 26.5046C25.7515 27.9247 23.8255 28.7224 21.8172 28.7224H10.8505C6.67277 28.7224 3.27832 25.328 3.27832 21.1502V10.1836C3.27832 8.17527 4.07611 6.24925 5.49617 4.82918C6.91624 3.40911 8.84226 2.61133 10.8505 2.61133ZM10.5894 5.22244C9.34291 5.22244 8.14745 5.71762 7.26603 6.59904C6.38461 7.48046 5.88943 8.67592 5.88943 9.92244V21.4113C5.88943 24.0094 7.99138 26.1113 10.5894 26.1113H22.0783C23.3248 26.1113 24.5203 25.6162 25.4017 24.7347C26.2831 23.8533 26.7783 22.6578 26.7783 21.4113V9.92244C26.7783 7.32438 24.6764 5.22244 22.0783 5.22244H10.5894ZM23.188 7.18077C23.6209 7.18077 24.036 7.35271 24.342 7.65876C24.6481 7.96481 24.82 8.3799 24.82 8.81272C24.82 9.24554 24.6481 9.66063 24.342 9.96668C24.036 10.2727 23.6209 10.4447 23.188 10.4447C22.7552 10.4447 22.3401 10.2727 22.0341 9.96668C21.728 9.66063 21.5561 9.24554 21.5561 8.81272C21.5561 8.3799 21.728 7.96481 22.0341 7.65876C22.3401 7.35271 22.7552 7.18077 23.188 7.18077ZM16.3339 9.13911C18.0652 9.13911 19.7255 9.82685 20.9497 11.051C22.1739 12.2752 22.8617 13.9356 22.8617 15.6669C22.8617 17.3982 22.1739 19.0585 20.9497 20.2827C19.7255 21.5069 18.0652 22.1947 16.3339 22.1947C14.6026 22.1947 12.9422 21.5069 11.718 20.2827C10.4938 19.0585 9.8061 17.3982 9.8061 15.6669C9.8061 13.9356 10.4938 12.2752 11.718 11.051C12.9422 9.82685 14.6026 9.13911 16.3339 9.13911ZM16.3339 11.7502C15.2951 11.7502 14.2989 12.1629 13.5644 12.8974C12.8299 13.6319 12.4172 14.6281 12.4172 15.6669C12.4172 16.7056 12.8299 17.7019 13.5644 18.4364C14.2989 19.1709 15.2951 19.5836 16.3339 19.5836C17.3726 19.5836 18.3689 19.1709 19.1034 18.4364C19.8379 17.7019 20.2505 16.7056 20.2505 15.6669C20.2505 14.6281 19.8379 13.6319 19.1034 12.8974C18.3689 12.1629 17.3726 11.7502 16.3339 11.7502Z" fill="#212121"/>
</svg>
