<svg width="32" height="32" viewBox="0 0 32 32" fill="none" xmlns="http://www.w3.org/2000/svg">
<path d="M26.2709 3.42725H5.72679C4.64053 3.42725 3.75928 4.3085 3.75928 5.39476V25.9389C3.75928 27.0252 4.64053 27.9064 5.72679 27.9064H26.2709C27.3572 27.9064 28.2384 27.0252 28.2384 25.9389V5.39476C28.2384 4.3085 27.3572 3.42725 26.2709 3.42725ZM26.2709 25.9481C12.5687 25.945 5.71761 25.942 5.71761 25.9389C5.72067 12.2367 5.72373 5.38558 5.72679 5.38558C19.429 5.38864 26.2801 5.3917 26.2801 5.39476C26.2771 19.097 26.274 25.9481 26.2709 25.9481ZM7.38831 12.6039H11.0204V24.2866H7.38831V12.6039ZM9.20589 11.0066C10.3656 11.0066 11.3111 10.0642 11.3111 8.9014C11.3111 8.62494 11.2566 8.35119 11.1509 8.09577C11.0451 7.84036 10.89 7.60828 10.6945 7.41279C10.499 7.21731 10.2669 7.06224 10.0115 6.95644C9.7561 6.85064 9.48235 6.79619 9.20589 6.79619C8.92943 6.79619 8.65568 6.85064 8.40026 6.95644C8.14485 7.06224 7.91277 7.21731 7.71729 7.41279C7.5218 7.60828 7.36673 7.84036 7.26093 8.09577C7.15514 8.35119 7.10068 8.62494 7.10068 8.9014C7.09762 10.0642 8.04007 11.0066 9.20589 11.0066ZM16.926 18.5064C16.926 16.9826 17.2167 15.5077 19.1047 15.5077C20.9651 15.5077 20.9926 17.2488 20.9926 18.6043V24.2866H24.6216V17.8791C24.6216 14.7336 23.9424 12.3132 20.2674 12.3132C18.5019 12.3132 17.3177 13.2832 16.8312 14.2011H16.7822V12.6039H13.297V24.2866H16.926V18.5064Z" fill="#212121"/>
</svg>
